%TF.GenerationSoftware,KiCad,Pcbnew,7.0.1*%
%TF.CreationDate,2023-04-20T06:23:29-07:00*%
%TF.ProjectId,wissystem_vca1,77697373-7973-4746-956d-5f766361312e,rev?*%
%TF.SameCoordinates,Original*%
%TF.FileFunction,Copper,L2,Bot*%
%TF.FilePolarity,Positive*%
%FSLAX46Y46*%
G04 Gerber Fmt 4.6, Leading zero omitted, Abs format (unit mm)*
G04 Created by KiCad (PCBNEW 7.0.1) date 2023-04-20 06:23:29*
%MOMM*%
%LPD*%
G01*
G04 APERTURE LIST*
%ADD10C,0.250000*%
%TA.AperFunction,NonConductor*%
%ADD11C,0.250000*%
%TD*%
%TA.AperFunction,ComponentPad*%
%ADD12O,2.720000X3.240000*%
%TD*%
%TA.AperFunction,ComponentPad*%
%ADD13R,1.800000X1.800000*%
%TD*%
%TA.AperFunction,ComponentPad*%
%ADD14C,1.800000*%
%TD*%
%TA.AperFunction,ComponentPad*%
%ADD15R,1.930000X1.830000*%
%TD*%
%TA.AperFunction,ComponentPad*%
%ADD16C,2.130000*%
%TD*%
%TA.AperFunction,ViaPad*%
%ADD17C,0.800000*%
%TD*%
%TA.AperFunction,Conductor*%
%ADD18C,0.250000*%
%TD*%
G04 APERTURE END LIST*
D10*
D11*
X50047542Y-30046552D02*
X49809447Y-30713219D01*
X49571352Y-30046552D02*
X49809447Y-30713219D01*
X49809447Y-30713219D02*
X49904685Y-30951314D01*
X49904685Y-30951314D02*
X49952304Y-30998933D01*
X49952304Y-30998933D02*
X50047542Y-31046552D01*
X48761828Y-30713219D02*
X48761828Y-30189409D01*
X48761828Y-30189409D02*
X48809447Y-30094171D01*
X48809447Y-30094171D02*
X48904685Y-30046552D01*
X48904685Y-30046552D02*
X49095161Y-30046552D01*
X49095161Y-30046552D02*
X49190399Y-30094171D01*
X48761828Y-30665600D02*
X48857066Y-30713219D01*
X48857066Y-30713219D02*
X49095161Y-30713219D01*
X49095161Y-30713219D02*
X49190399Y-30665600D01*
X49190399Y-30665600D02*
X49238018Y-30570361D01*
X49238018Y-30570361D02*
X49238018Y-30475123D01*
X49238018Y-30475123D02*
X49190399Y-30379885D01*
X49190399Y-30379885D02*
X49095161Y-30332266D01*
X49095161Y-30332266D02*
X48857066Y-30332266D01*
X48857066Y-30332266D02*
X48761828Y-30284647D01*
X48285637Y-30713219D02*
X48285637Y-29713219D01*
X47857066Y-30713219D02*
X47857066Y-30189409D01*
X47857066Y-30189409D02*
X47904685Y-30094171D01*
X47904685Y-30094171D02*
X47999923Y-30046552D01*
X47999923Y-30046552D02*
X48142780Y-30046552D01*
X48142780Y-30046552D02*
X48238018Y-30094171D01*
X48238018Y-30094171D02*
X48285637Y-30141790D01*
X47333256Y-30665600D02*
X47333256Y-30713219D01*
X47333256Y-30713219D02*
X47380875Y-30808457D01*
X47380875Y-30808457D02*
X47428494Y-30856076D01*
X46285637Y-30046552D02*
X45904685Y-30046552D01*
X46142780Y-29713219D02*
X46142780Y-30570361D01*
X46142780Y-30570361D02*
X46095161Y-30665600D01*
X46095161Y-30665600D02*
X45999923Y-30713219D01*
X45999923Y-30713219D02*
X45904685Y-30713219D01*
X45666589Y-30046552D02*
X45476113Y-30713219D01*
X45476113Y-30713219D02*
X45285637Y-30237028D01*
X45285637Y-30237028D02*
X45095161Y-30713219D01*
X45095161Y-30713219D02*
X44904685Y-30046552D01*
X44380875Y-30713219D02*
X44476113Y-30665600D01*
X44476113Y-30665600D02*
X44523732Y-30617980D01*
X44523732Y-30617980D02*
X44571351Y-30522742D01*
X44571351Y-30522742D02*
X44571351Y-30237028D01*
X44571351Y-30237028D02*
X44523732Y-30141790D01*
X44523732Y-30141790D02*
X44476113Y-30094171D01*
X44476113Y-30094171D02*
X44380875Y-30046552D01*
X44380875Y-30046552D02*
X44238018Y-30046552D01*
X44238018Y-30046552D02*
X44142780Y-30094171D01*
X44142780Y-30094171D02*
X44095161Y-30141790D01*
X44095161Y-30141790D02*
X44047542Y-30237028D01*
X44047542Y-30237028D02*
X44047542Y-30522742D01*
X44047542Y-30522742D02*
X44095161Y-30617980D01*
X44095161Y-30617980D02*
X44142780Y-30665600D01*
X44142780Y-30665600D02*
X44238018Y-30713219D01*
X44238018Y-30713219D02*
X44380875Y-30713219D01*
X42714208Y-30713219D02*
X42809446Y-30665600D01*
X42809446Y-30665600D02*
X42857065Y-30617980D01*
X42857065Y-30617980D02*
X42904684Y-30522742D01*
X42904684Y-30522742D02*
X42904684Y-30237028D01*
X42904684Y-30237028D02*
X42857065Y-30141790D01*
X42857065Y-30141790D02*
X42809446Y-30094171D01*
X42809446Y-30094171D02*
X42714208Y-30046552D01*
X42714208Y-30046552D02*
X42571351Y-30046552D01*
X42571351Y-30046552D02*
X42476113Y-30094171D01*
X42476113Y-30094171D02*
X42428494Y-30141790D01*
X42428494Y-30141790D02*
X42380875Y-30237028D01*
X42380875Y-30237028D02*
X42380875Y-30522742D01*
X42380875Y-30522742D02*
X42428494Y-30617980D01*
X42428494Y-30617980D02*
X42476113Y-30665600D01*
X42476113Y-30665600D02*
X42571351Y-30713219D01*
X42571351Y-30713219D02*
X42714208Y-30713219D01*
X42095160Y-30046552D02*
X41714208Y-30046552D01*
X41952303Y-30713219D02*
X41952303Y-29856076D01*
X41952303Y-29856076D02*
X41904684Y-29760838D01*
X41904684Y-29760838D02*
X41809446Y-29713219D01*
X41809446Y-29713219D02*
X41714208Y-29713219D01*
X40571350Y-29713219D02*
X40666588Y-29903695D01*
X39761827Y-30665600D02*
X39857065Y-30713219D01*
X39857065Y-30713219D02*
X40047541Y-30713219D01*
X40047541Y-30713219D02*
X40142779Y-30665600D01*
X40142779Y-30665600D02*
X40190398Y-30570361D01*
X40190398Y-30570361D02*
X40190398Y-30189409D01*
X40190398Y-30189409D02*
X40142779Y-30094171D01*
X40142779Y-30094171D02*
X40047541Y-30046552D01*
X40047541Y-30046552D02*
X39857065Y-30046552D01*
X39857065Y-30046552D02*
X39761827Y-30094171D01*
X39761827Y-30094171D02*
X39714208Y-30189409D01*
X39714208Y-30189409D02*
X39714208Y-30284647D01*
X39714208Y-30284647D02*
X40190398Y-30379885D01*
X39285636Y-30713219D02*
X39285636Y-30046552D01*
X39285636Y-30141790D02*
X39238017Y-30094171D01*
X39238017Y-30094171D02*
X39142779Y-30046552D01*
X39142779Y-30046552D02*
X38999922Y-30046552D01*
X38999922Y-30046552D02*
X38904684Y-30094171D01*
X38904684Y-30094171D02*
X38857065Y-30189409D01*
X38857065Y-30189409D02*
X38857065Y-30713219D01*
X38857065Y-30189409D02*
X38809446Y-30094171D01*
X38809446Y-30094171D02*
X38714208Y-30046552D01*
X38714208Y-30046552D02*
X38571351Y-30046552D01*
X38571351Y-30046552D02*
X38476112Y-30094171D01*
X38476112Y-30094171D02*
X38428493Y-30189409D01*
X38428493Y-30189409D02*
X38428493Y-30713219D01*
D12*
%TO.P,RV4,*%
%TO.N,*%
X34224000Y-42385600D03*
X24624000Y-42385600D03*
D13*
%TO.P,RV4,1,1*%
%TO.N,Net-(J_CV1-PadT)*%
X31924000Y-49885600D03*
D14*
%TO.P,RV4,2,2*%
%TO.N,Net-(U3A-+)*%
X29424000Y-49885600D03*
%TO.P,RV4,3,3*%
%TO.N,GND*%
X26924000Y-49885600D03*
%TD*%
D15*
%TO.P,J_OUT1,S*%
%TO.N,GND*%
X25196800Y-96651600D03*
D16*
%TO.P,J_OUT1,T*%
%TO.N,Net-(J_OUT1-PadT)*%
X25196800Y-108051600D03*
%TO.P,J_OUT1,TN*%
%TO.N,unconnected-(J_OUT1-PadTN)*%
X25196800Y-99751600D03*
%TD*%
%TO.P,J_CV2,TN*%
%TO.N,unconnected-(J_CV2-PadTN)*%
X35229800Y-120408400D03*
%TO.P,J_CV2,T*%
%TO.N,Net-(J_CV2-PadT)*%
X35229800Y-128708400D03*
D15*
%TO.P,J_CV2,S*%
%TO.N,GND*%
X35229800Y-117308400D03*
%TD*%
%TO.P,J_OUT2,S*%
%TO.N,GND*%
X25196800Y-117308400D03*
D16*
%TO.P,J_OUT2,T*%
%TO.N,Net-(J_OUT2-PadT)*%
X25196800Y-128708400D03*
%TO.P,J_OUT2,TN*%
%TO.N,unconnected-(J_OUT2-PadTN)*%
X25196800Y-120408400D03*
%TD*%
D15*
%TO.P,J_SIG3,S*%
%TO.N,GND*%
X45262800Y-117308400D03*
D16*
%TO.P,J_SIG3,T*%
%TO.N,Net-(J_SIG3-PadT)*%
X45262800Y-128708400D03*
%TO.P,J_SIG3,TN*%
%TO.N,unconnected-(J_SIG3-PadTN)*%
X45262800Y-120408400D03*
%TD*%
%TO.P,J_CV1,TN*%
%TO.N,unconnected-(J_CV1-PadTN)*%
X35229800Y-99751600D03*
%TO.P,J_CV1,T*%
%TO.N,Net-(J_CV1-PadT)*%
X35229800Y-108051600D03*
D15*
%TO.P,J_CV1,S*%
%TO.N,GND*%
X35229800Y-96651600D03*
%TD*%
D12*
%TO.P,RV1,*%
%TO.N,*%
X36144800Y-79026400D03*
X45744800Y-79026400D03*
D13*
%TO.P,RV1,1,1*%
%TO.N,Net-(J_CV2-PadT)*%
X38444800Y-71526400D03*
D14*
%TO.P,RV1,2,2*%
%TO.N,Net-(U1A-+)*%
X40944800Y-71526400D03*
%TO.P,RV1,3,3*%
%TO.N,GND*%
X43444800Y-71526400D03*
%TD*%
D15*
%TO.P,J_SIG1,S*%
%TO.N,GND*%
X45262800Y-96651600D03*
D16*
%TO.P,J_SIG1,T*%
%TO.N,Net-(J_SIG1-PadT)*%
X45262800Y-108051600D03*
%TO.P,J_SIG1,TN*%
%TO.N,unconnected-(J_SIG1-PadTN)*%
X45262800Y-99751600D03*
%TD*%
D17*
%TO.N,GND*%
X32918400Y-95351600D03*
X32816800Y-80975200D03*
X32867600Y-87934800D03*
X30276800Y-95351600D03*
X30276800Y-80975200D03*
X30022800Y-88087200D03*
X35356800Y-87985600D03*
X25958800Y-71932800D03*
X26060400Y-58877200D03*
%TO.N,Net-(U3A-+)*%
X37233500Y-45253500D03*
%TO.N,Net-(U1A-+)*%
X32400100Y-75067700D03*
%TO.N,Net-(U1B--)*%
X33636200Y-72126400D03*
X34883100Y-71322300D03*
%TO.N,Net-(R5-Pad1)*%
X32974500Y-69744800D03*
X33491700Y-79268500D03*
%TO.N,Net-(J_OUT2-PadT)*%
X42227100Y-44093100D03*
%TO.N,-12V*%
X32760200Y-73929500D03*
X36263500Y-72053700D03*
%TD*%
D18*
%TO.N,Net-(U3A-+)*%
X34056100Y-45253500D02*
X29424000Y-49885600D01*
X37233500Y-45253500D02*
X34056100Y-45253500D01*
%TO.N,Net-(U1A-+)*%
X32005100Y-74672700D02*
X32400100Y-75067700D01*
X32005100Y-69672700D02*
X32005100Y-74672700D01*
X32669400Y-69008400D02*
X32005100Y-69672700D01*
X38426800Y-69008400D02*
X32669400Y-69008400D01*
X40944800Y-71526400D02*
X38426800Y-69008400D01*
%TO.N,Net-(U1B--)*%
X34440300Y-71322300D02*
X33636200Y-72126400D01*
X34883100Y-71322300D02*
X34440300Y-71322300D01*
%TO.N,Net-(R5-Pad1)*%
X34980100Y-69744800D02*
X32974500Y-69744800D01*
X36988600Y-71753300D02*
X34980100Y-69744800D01*
X36988600Y-72354100D02*
X36988600Y-71753300D01*
X33491700Y-75851000D02*
X36988600Y-72354100D01*
X33491700Y-79268500D02*
X33491700Y-75851000D01*
%TO.N,Net-(J_OUT2-PadT)*%
X42194800Y-44125400D02*
X42227100Y-44093100D01*
X42194800Y-104625400D02*
X42194800Y-44125400D01*
X30213300Y-116606900D02*
X42194800Y-104625400D01*
X30213300Y-123691900D02*
X30213300Y-116606900D01*
X25196800Y-128708400D02*
X30213300Y-123691900D01*
%TO.N,Net-(J_CV1-PadT)*%
X31924000Y-49885600D02*
X31924000Y-51110700D01*
X31555000Y-104376800D02*
X35229800Y-108051600D01*
X31555000Y-51479700D02*
X31555000Y-104376800D01*
X31924000Y-51110700D02*
X31555000Y-51479700D01*
%TO.N,-12V*%
X34387700Y-73929500D02*
X36263500Y-72053700D01*
X32760200Y-73929500D02*
X34387700Y-73929500D01*
%TD*%
%TA.AperFunction,Conductor*%
%TO.N,GND*%
G36*
X50417500Y-20017113D02*
G01*
X50462887Y-20062500D01*
X50479500Y-20124500D01*
X50479500Y-28443243D01*
X50462887Y-28505243D01*
X50417500Y-28550630D01*
X50355500Y-28567243D01*
X37122042Y-28567243D01*
X37122042Y-28875500D01*
X37105429Y-28937500D01*
X37060042Y-28982887D01*
X36998042Y-28999500D01*
X36499900Y-28999500D01*
X36499618Y-28999616D01*
X36499616Y-28999618D01*
X36499459Y-28999999D01*
X36499459Y-29000000D01*
X36499617Y-29000383D01*
X36499758Y-29000441D01*
X36499900Y-29000500D01*
X36499901Y-29000500D01*
X36998042Y-29000500D01*
X37060042Y-29017113D01*
X37105429Y-29062500D01*
X37122042Y-29124500D01*
X37122042Y-31478957D01*
X50355500Y-31478957D01*
X50417500Y-31495570D01*
X50462887Y-31540957D01*
X50479500Y-31602957D01*
X50479500Y-148375500D01*
X50462887Y-148437500D01*
X50417500Y-148482887D01*
X50355500Y-148499500D01*
X20124500Y-148499500D01*
X20062500Y-148482887D01*
X20017113Y-148437500D01*
X20000500Y-148375500D01*
X20000500Y-145500000D01*
X25074551Y-145500000D01*
X25094317Y-145751149D01*
X25153126Y-145996110D01*
X25156100Y-146003289D01*
X25249534Y-146228859D01*
X25381164Y-146443659D01*
X25544776Y-146635224D01*
X25736341Y-146798836D01*
X25951141Y-146930466D01*
X26183889Y-147026873D01*
X26428852Y-147085683D01*
X26680000Y-147105449D01*
X26931148Y-147085683D01*
X27176111Y-147026873D01*
X27408859Y-146930466D01*
X27623659Y-146798836D01*
X27815224Y-146635224D01*
X27978836Y-146443659D01*
X28110466Y-146228859D01*
X28206873Y-145996111D01*
X28265683Y-145751148D01*
X28285449Y-145500000D01*
X42194551Y-145500000D01*
X42214317Y-145751149D01*
X42273126Y-145996110D01*
X42276100Y-146003289D01*
X42369534Y-146228859D01*
X42501164Y-146443659D01*
X42664776Y-146635224D01*
X42856341Y-146798836D01*
X43071141Y-146930466D01*
X43303889Y-147026873D01*
X43548852Y-147085683D01*
X43800000Y-147105449D01*
X44051148Y-147085683D01*
X44296111Y-147026873D01*
X44528859Y-146930466D01*
X44743659Y-146798836D01*
X44935224Y-146635224D01*
X45098836Y-146443659D01*
X45230466Y-146228859D01*
X45326873Y-145996111D01*
X45385683Y-145751148D01*
X45405449Y-145500000D01*
X45385683Y-145248852D01*
X45326873Y-145003889D01*
X45230466Y-144771141D01*
X45098836Y-144556341D01*
X44935224Y-144364776D01*
X44743659Y-144201164D01*
X44528859Y-144069534D01*
X44412485Y-144021330D01*
X44296110Y-143973126D01*
X44051149Y-143914317D01*
X43800000Y-143894551D01*
X43548850Y-143914317D01*
X43303889Y-143973126D01*
X43071139Y-144069535D01*
X42856342Y-144201163D01*
X42664776Y-144364776D01*
X42501163Y-144556342D01*
X42369535Y-144771139D01*
X42273126Y-145003889D01*
X42214317Y-145248850D01*
X42194551Y-145500000D01*
X28285449Y-145500000D01*
X28265683Y-145248852D01*
X28206873Y-145003889D01*
X28110466Y-144771141D01*
X27978836Y-144556341D01*
X27815224Y-144364776D01*
X27623659Y-144201164D01*
X27408859Y-144069534D01*
X27292485Y-144021330D01*
X27176110Y-143973126D01*
X26931149Y-143914317D01*
X26680000Y-143894551D01*
X26428850Y-143914317D01*
X26183889Y-143973126D01*
X25951139Y-144069535D01*
X25736342Y-144201163D01*
X25544776Y-144364776D01*
X25381163Y-144556342D01*
X25249535Y-144771139D01*
X25153126Y-145003889D01*
X25094317Y-145248850D01*
X25074551Y-145500000D01*
X20000500Y-145500000D01*
X20000500Y-138000000D01*
X21499459Y-138000000D01*
X21499617Y-138000383D01*
X21499759Y-138000441D01*
X21499900Y-138000500D01*
X21499901Y-138000500D01*
X24500099Y-138000500D01*
X24500100Y-138000500D01*
X24500193Y-138000460D01*
X24500383Y-138000383D01*
X24500541Y-138000000D01*
X26499459Y-138000000D01*
X26499617Y-138000383D01*
X26499759Y-138000441D01*
X26499900Y-138000500D01*
X26499901Y-138000500D01*
X29500099Y-138000500D01*
X29500100Y-138000500D01*
X29500193Y-138000460D01*
X29500383Y-138000383D01*
X29500541Y-138000000D01*
X31499459Y-138000000D01*
X31499617Y-138000383D01*
X31499759Y-138000441D01*
X31499900Y-138000500D01*
X31499901Y-138000500D01*
X34500099Y-138000500D01*
X34500100Y-138000500D01*
X34500193Y-138000460D01*
X34500383Y-138000383D01*
X34500541Y-138000000D01*
X36499459Y-138000000D01*
X36499617Y-138000383D01*
X36499759Y-138000441D01*
X36499900Y-138000500D01*
X36499901Y-138000500D01*
X39500099Y-138000500D01*
X39500100Y-138000500D01*
X39500193Y-138000460D01*
X39500383Y-138000383D01*
X39500541Y-138000000D01*
X41499459Y-138000000D01*
X41499617Y-138000383D01*
X41499759Y-138000441D01*
X41499900Y-138000500D01*
X41499901Y-138000500D01*
X44500099Y-138000500D01*
X44500100Y-138000500D01*
X44500193Y-138000460D01*
X44500383Y-138000383D01*
X44500541Y-138000000D01*
X46499459Y-138000000D01*
X46499617Y-138000383D01*
X46499759Y-138000441D01*
X46499900Y-138000500D01*
X46499901Y-138000500D01*
X49500099Y-138000500D01*
X49500100Y-138000500D01*
X49500193Y-138000460D01*
X49500383Y-138000383D01*
X49500541Y-138000000D01*
X49500383Y-137999617D01*
X49500381Y-137999616D01*
X49500100Y-137999500D01*
X49500099Y-137999500D01*
X46499901Y-137999500D01*
X46499900Y-137999500D01*
X46499618Y-137999616D01*
X46499616Y-137999618D01*
X46499459Y-137999999D01*
X46499459Y-138000000D01*
X44500541Y-138000000D01*
X44500383Y-137999617D01*
X44500381Y-137999616D01*
X44500100Y-137999500D01*
X44500099Y-137999500D01*
X41499901Y-137999500D01*
X41499900Y-137999500D01*
X41499618Y-137999616D01*
X41499616Y-137999618D01*
X41499459Y-137999999D01*
X41499459Y-138000000D01*
X39500541Y-138000000D01*
X39500383Y-137999617D01*
X39500381Y-137999616D01*
X39500100Y-137999500D01*
X39500099Y-137999500D01*
X36499901Y-137999500D01*
X36499900Y-137999500D01*
X36499618Y-137999616D01*
X36499616Y-137999618D01*
X36499459Y-137999999D01*
X36499459Y-138000000D01*
X34500541Y-138000000D01*
X34500383Y-137999617D01*
X34500381Y-137999616D01*
X34500100Y-137999500D01*
X34500099Y-137999500D01*
X31499901Y-137999500D01*
X31499900Y-137999500D01*
X31499618Y-137999616D01*
X31499616Y-137999618D01*
X31499459Y-137999999D01*
X31499459Y-138000000D01*
X29500541Y-138000000D01*
X29500383Y-137999617D01*
X29500381Y-137999616D01*
X29500100Y-137999500D01*
X29500099Y-137999500D01*
X26499901Y-137999500D01*
X26499900Y-137999500D01*
X26499618Y-137999616D01*
X26499616Y-137999618D01*
X26499459Y-137999999D01*
X26499459Y-138000000D01*
X24500541Y-138000000D01*
X24500383Y-137999617D01*
X24500381Y-137999616D01*
X24500100Y-137999500D01*
X24500099Y-137999500D01*
X21499901Y-137999500D01*
X21499900Y-137999500D01*
X21499618Y-137999616D01*
X21499616Y-137999618D01*
X21499459Y-137999999D01*
X21499459Y-138000000D01*
X20000500Y-138000000D01*
X20000500Y-128708400D01*
X23626459Y-128708400D01*
X23645793Y-128954056D01*
X23703316Y-129193661D01*
X23750466Y-129307491D01*
X23797616Y-129421320D01*
X23926367Y-129631423D01*
X24086401Y-129818799D01*
X24273777Y-129978833D01*
X24483880Y-130107584D01*
X24711538Y-130201883D01*
X24951145Y-130259407D01*
X25196800Y-130278741D01*
X25442455Y-130259407D01*
X25682062Y-130201883D01*
X25909720Y-130107584D01*
X26119823Y-129978833D01*
X26307199Y-129818799D01*
X26467233Y-129631423D01*
X26595984Y-129421320D01*
X26690283Y-129193662D01*
X26747807Y-128954055D01*
X26767141Y-128708400D01*
X33659459Y-128708400D01*
X33678793Y-128954056D01*
X33736316Y-129193661D01*
X33783466Y-129307491D01*
X33830616Y-129421320D01*
X33959367Y-129631423D01*
X34119401Y-129818799D01*
X34306777Y-129978833D01*
X34516880Y-130107584D01*
X34744538Y-130201883D01*
X34984145Y-130259407D01*
X35229800Y-130278741D01*
X35475455Y-130259407D01*
X35715062Y-130201883D01*
X35942720Y-130107584D01*
X36152823Y-129978833D01*
X36340199Y-129818799D01*
X36500233Y-129631423D01*
X36628984Y-129421320D01*
X36723283Y-129193662D01*
X36780807Y-128954055D01*
X36800141Y-128708400D01*
X43692459Y-128708400D01*
X43711793Y-128954056D01*
X43769316Y-129193661D01*
X43816466Y-129307491D01*
X43863616Y-129421320D01*
X43992367Y-129631423D01*
X44152401Y-129818799D01*
X44339777Y-129978833D01*
X44549880Y-130107584D01*
X44777538Y-130201883D01*
X45017145Y-130259407D01*
X45262800Y-130278741D01*
X45508455Y-130259407D01*
X45748062Y-130201883D01*
X45975720Y-130107584D01*
X46185823Y-129978833D01*
X46373199Y-129818799D01*
X46533233Y-129631423D01*
X46661984Y-129421320D01*
X46756283Y-129193662D01*
X46813807Y-128954055D01*
X46833141Y-128708400D01*
X46813807Y-128462745D01*
X46756283Y-128223138D01*
X46661984Y-127995480D01*
X46533233Y-127785377D01*
X46373199Y-127598001D01*
X46185823Y-127437967D01*
X45975720Y-127309216D01*
X45835481Y-127251127D01*
X45748061Y-127214916D01*
X45508456Y-127157393D01*
X45262800Y-127138059D01*
X45017143Y-127157393D01*
X44777538Y-127214916D01*
X44549878Y-127309217D01*
X44339778Y-127437966D01*
X44152401Y-127598001D01*
X43992366Y-127785378D01*
X43863617Y-127995478D01*
X43769316Y-128223138D01*
X43711793Y-128462743D01*
X43692459Y-128708400D01*
X36800141Y-128708400D01*
X36780807Y-128462745D01*
X36723283Y-128223138D01*
X36628984Y-127995480D01*
X36500233Y-127785377D01*
X36340199Y-127598001D01*
X36152823Y-127437967D01*
X35942720Y-127309216D01*
X35802481Y-127251127D01*
X35715061Y-127214916D01*
X35475456Y-127157393D01*
X35229800Y-127138059D01*
X34984143Y-127157393D01*
X34744538Y-127214916D01*
X34516878Y-127309217D01*
X34306778Y-127437966D01*
X34119401Y-127598001D01*
X33959366Y-127785378D01*
X33830617Y-127995478D01*
X33736316Y-128223138D01*
X33678793Y-128462743D01*
X33659459Y-128708400D01*
X26767141Y-128708400D01*
X26747807Y-128462745D01*
X26690283Y-128223138D01*
X26685779Y-128212265D01*
X26676339Y-128164814D01*
X26685777Y-128117360D01*
X26712655Y-128077133D01*
X30597089Y-124192700D01*
X30613185Y-124179806D01*
X30615173Y-124177687D01*
X30615177Y-124177686D01*
X30661248Y-124128623D01*
X30663866Y-124125923D01*
X30683420Y-124106371D01*
X30685881Y-124103198D01*
X30693456Y-124094327D01*
X30723362Y-124062482D01*
X30733017Y-124044918D01*
X30743694Y-124028664D01*
X30755973Y-124012836D01*
X30773318Y-123972752D01*
X30778460Y-123962256D01*
X30799497Y-123923992D01*
X30804479Y-123904584D01*
X30810781Y-123886180D01*
X30818737Y-123867796D01*
X30825569Y-123824652D01*
X30827933Y-123813238D01*
X30834311Y-123788399D01*
X33724659Y-123788399D01*
X33726455Y-123861928D01*
X33758649Y-124106470D01*
X33784850Y-124192705D01*
X33830355Y-124342479D01*
X33939642Y-124563605D01*
X34083577Y-124763912D01*
X34258295Y-124938021D01*
X34459103Y-125081256D01*
X34680609Y-125189770D01*
X34916864Y-125260650D01*
X35161522Y-125291992D01*
X35408015Y-125282953D01*
X35649721Y-125233777D01*
X35880150Y-125145785D01*
X36093113Y-125021339D01*
X36282892Y-124863782D01*
X36444389Y-124677345D01*
X36573268Y-124467034D01*
X36666066Y-124238499D01*
X36720293Y-123997875D01*
X36732372Y-123788399D01*
X43757659Y-123788399D01*
X43759455Y-123861928D01*
X43791649Y-124106470D01*
X43817850Y-124192705D01*
X43863355Y-124342479D01*
X43972642Y-124563605D01*
X44116577Y-124763912D01*
X44291295Y-124938021D01*
X44492103Y-125081256D01*
X44713609Y-125189770D01*
X44949864Y-125260650D01*
X45194522Y-125291992D01*
X45441015Y-125282953D01*
X45682721Y-125233777D01*
X45913150Y-125145785D01*
X46126113Y-125021339D01*
X46315892Y-124863782D01*
X46477389Y-124677345D01*
X46606268Y-124467034D01*
X46699066Y-124238499D01*
X46753293Y-123997875D01*
X46767492Y-123751626D01*
X46741281Y-123506365D01*
X46741281Y-123506363D01*
X46675364Y-123268676D01*
X46586457Y-123077144D01*
X46571512Y-123044948D01*
X46432514Y-122841184D01*
X46425270Y-122833604D01*
X46262104Y-122662858D01*
X46091461Y-122534737D01*
X46064854Y-122514760D01*
X46048829Y-122506418D01*
X45846067Y-122400866D01*
X45611611Y-122324234D01*
X45367796Y-122286925D01*
X45367793Y-122286925D01*
X45275303Y-122288055D01*
X45121149Y-122289939D01*
X44878319Y-122333192D01*
X44687220Y-122400866D01*
X44645808Y-122415531D01*
X44466056Y-122514759D01*
X44429866Y-122534737D01*
X44236296Y-122687609D01*
X44070293Y-122870044D01*
X43936312Y-123077147D01*
X43837958Y-123303343D01*
X43777869Y-123542569D01*
X43757659Y-123788399D01*
X36732372Y-123788399D01*
X36734492Y-123751626D01*
X36708281Y-123506365D01*
X36708281Y-123506363D01*
X36642364Y-123268676D01*
X36553457Y-123077144D01*
X36538512Y-123044948D01*
X36399514Y-122841184D01*
X36392270Y-122833604D01*
X36229104Y-122662858D01*
X36058461Y-122534737D01*
X36031854Y-122514760D01*
X36015829Y-122506418D01*
X35813067Y-122400866D01*
X35578611Y-122324234D01*
X35334796Y-122286925D01*
X35334793Y-122286925D01*
X35242303Y-122288055D01*
X35088149Y-122289939D01*
X34845319Y-122333192D01*
X34654220Y-122400866D01*
X34612808Y-122415531D01*
X34433056Y-122514759D01*
X34396866Y-122534737D01*
X34203296Y-122687609D01*
X34037293Y-122870044D01*
X33903312Y-123077147D01*
X33804958Y-123303343D01*
X33744869Y-123542569D01*
X33724659Y-123788399D01*
X30834311Y-123788399D01*
X30838800Y-123770919D01*
X30838800Y-123750884D01*
X30840327Y-123731485D01*
X30840368Y-123731221D01*
X30843460Y-123711704D01*
X30839350Y-123668225D01*
X30838800Y-123656556D01*
X30838800Y-120408400D01*
X33659459Y-120408400D01*
X33678793Y-120654056D01*
X33736316Y-120893661D01*
X33783466Y-121007491D01*
X33830616Y-121121320D01*
X33959367Y-121331423D01*
X34119401Y-121518799D01*
X34306777Y-121678833D01*
X34516880Y-121807584D01*
X34744538Y-121901883D01*
X34984145Y-121959407D01*
X35229800Y-121978741D01*
X35475455Y-121959407D01*
X35715062Y-121901883D01*
X35942720Y-121807584D01*
X36152823Y-121678833D01*
X36340199Y-121518799D01*
X36500233Y-121331423D01*
X36628984Y-121121320D01*
X36723283Y-120893662D01*
X36780807Y-120654055D01*
X36800141Y-120408400D01*
X43692459Y-120408400D01*
X43711793Y-120654056D01*
X43769316Y-120893661D01*
X43816466Y-121007491D01*
X43863616Y-121121320D01*
X43992367Y-121331423D01*
X44152401Y-121518799D01*
X44339777Y-121678833D01*
X44549880Y-121807584D01*
X44777538Y-121901883D01*
X45017145Y-121959407D01*
X45262800Y-121978741D01*
X45508455Y-121959407D01*
X45748062Y-121901883D01*
X45975720Y-121807584D01*
X46185823Y-121678833D01*
X46373199Y-121518799D01*
X46533233Y-121331423D01*
X46661984Y-121121320D01*
X46756283Y-120893662D01*
X46813807Y-120654055D01*
X46833141Y-120408400D01*
X46813807Y-120162745D01*
X46756283Y-119923138D01*
X46661984Y-119695480D01*
X46533233Y-119485377D01*
X46373199Y-119298001D01*
X46185823Y-119137967D01*
X45975720Y-119009216D01*
X45861635Y-118961960D01*
X45808771Y-118920285D01*
X45785471Y-118857129D01*
X45798604Y-118791105D01*
X45844299Y-118741673D01*
X45909089Y-118723400D01*
X46275624Y-118723400D01*
X46335175Y-118716997D01*
X46469889Y-118666752D01*
X46584988Y-118580588D01*
X46671152Y-118465489D01*
X46721397Y-118330775D01*
X46727800Y-118271224D01*
X46727800Y-117558400D01*
X43797800Y-117558400D01*
X43797800Y-118271224D01*
X43804202Y-118330775D01*
X43854447Y-118465489D01*
X43940611Y-118580588D01*
X44055710Y-118666752D01*
X44190424Y-118716997D01*
X44249976Y-118723400D01*
X44616511Y-118723400D01*
X44681301Y-118741673D01*
X44726996Y-118791105D01*
X44740129Y-118857129D01*
X44716829Y-118920285D01*
X44663964Y-118961961D01*
X44549878Y-119009217D01*
X44339778Y-119137966D01*
X44152401Y-119298001D01*
X43992366Y-119485378D01*
X43863617Y-119695478D01*
X43769316Y-119923138D01*
X43711793Y-120162743D01*
X43692459Y-120408400D01*
X36800141Y-120408400D01*
X36780807Y-120162745D01*
X36723283Y-119923138D01*
X36628984Y-119695480D01*
X36500233Y-119485377D01*
X36340199Y-119298001D01*
X36152823Y-119137967D01*
X35942720Y-119009216D01*
X35828635Y-118961960D01*
X35775771Y-118920285D01*
X35752471Y-118857129D01*
X35765604Y-118791105D01*
X35811299Y-118741673D01*
X35876089Y-118723400D01*
X36242624Y-118723400D01*
X36302175Y-118716997D01*
X36436889Y-118666752D01*
X36551988Y-118580588D01*
X36638152Y-118465489D01*
X36688397Y-118330775D01*
X36694800Y-118271224D01*
X36694800Y-117558400D01*
X33764800Y-117558400D01*
X33764800Y-118271224D01*
X33771202Y-118330775D01*
X33821447Y-118465489D01*
X33907611Y-118580588D01*
X34022710Y-118666752D01*
X34157424Y-118716997D01*
X34216976Y-118723400D01*
X34583511Y-118723400D01*
X34648301Y-118741673D01*
X34693996Y-118791105D01*
X34707129Y-118857129D01*
X34683829Y-118920285D01*
X34630964Y-118961961D01*
X34516878Y-119009217D01*
X34306778Y-119137966D01*
X34119401Y-119298001D01*
X33959366Y-119485378D01*
X33830617Y-119695478D01*
X33736316Y-119923138D01*
X33678793Y-120162743D01*
X33659459Y-120408400D01*
X30838800Y-120408400D01*
X30838800Y-117058400D01*
X33764800Y-117058400D01*
X34979800Y-117058400D01*
X34979800Y-115893400D01*
X35479800Y-115893400D01*
X35479800Y-117058400D01*
X36694800Y-117058400D01*
X43797800Y-117058400D01*
X45012800Y-117058400D01*
X45012800Y-115893400D01*
X45512800Y-115893400D01*
X45512800Y-117058400D01*
X46727800Y-117058400D01*
X46727800Y-116345576D01*
X46721397Y-116286024D01*
X46671152Y-116151310D01*
X46584988Y-116036211D01*
X46469889Y-115950047D01*
X46335175Y-115899802D01*
X46275624Y-115893400D01*
X45512800Y-115893400D01*
X45012800Y-115893400D01*
X44249976Y-115893400D01*
X44190424Y-115899802D01*
X44055710Y-115950047D01*
X43940611Y-116036211D01*
X43854447Y-116151310D01*
X43804202Y-116286024D01*
X43797800Y-116345576D01*
X43797800Y-117058400D01*
X36694800Y-117058400D01*
X36694800Y-116345576D01*
X36688397Y-116286024D01*
X36638152Y-116151310D01*
X36551988Y-116036211D01*
X36436889Y-115950047D01*
X36302175Y-115899802D01*
X36242624Y-115893400D01*
X35479800Y-115893400D01*
X34979800Y-115893400D01*
X34216976Y-115893400D01*
X34157424Y-115899802D01*
X34022710Y-115950047D01*
X33907611Y-116036211D01*
X33821447Y-116151310D01*
X33771202Y-116286024D01*
X33764800Y-116345576D01*
X33764800Y-117058400D01*
X30838800Y-117058400D01*
X30838800Y-116917352D01*
X30848239Y-116869899D01*
X30875119Y-116829671D01*
X39407534Y-108297255D01*
X39653189Y-108051600D01*
X43692459Y-108051600D01*
X43711793Y-108297256D01*
X43769316Y-108536861D01*
X43816466Y-108650690D01*
X43863616Y-108764520D01*
X43992367Y-108974623D01*
X44152401Y-109161999D01*
X44339777Y-109322033D01*
X44549880Y-109450784D01*
X44777538Y-109545083D01*
X45017145Y-109602607D01*
X45262800Y-109621941D01*
X45508455Y-109602607D01*
X45748062Y-109545083D01*
X45975720Y-109450784D01*
X46185823Y-109322033D01*
X46373199Y-109161999D01*
X46533233Y-108974623D01*
X46661984Y-108764520D01*
X46756283Y-108536862D01*
X46813807Y-108297255D01*
X46833141Y-108051600D01*
X46813807Y-107805945D01*
X46756283Y-107566338D01*
X46661984Y-107338680D01*
X46533233Y-107128577D01*
X46373199Y-106941201D01*
X46185823Y-106781167D01*
X45975720Y-106652416D01*
X45835481Y-106594327D01*
X45748061Y-106558116D01*
X45508456Y-106500593D01*
X45262800Y-106481259D01*
X45017143Y-106500593D01*
X44777538Y-106558116D01*
X44549878Y-106652417D01*
X44339778Y-106781166D01*
X44152401Y-106941201D01*
X43992366Y-107128578D01*
X43863617Y-107338678D01*
X43769316Y-107566338D01*
X43711793Y-107805943D01*
X43692459Y-108051600D01*
X39653189Y-108051600D01*
X42578586Y-105126202D01*
X42594687Y-105113304D01*
X42596674Y-105111187D01*
X42596677Y-105111186D01*
X42642732Y-105062141D01*
X42645413Y-105059376D01*
X42664920Y-105039870D01*
X42667381Y-105036695D01*
X42674952Y-105027831D01*
X42704862Y-104995982D01*
X42714512Y-104978427D01*
X42725200Y-104962157D01*
X42737473Y-104946336D01*
X42754822Y-104906241D01*
X42759957Y-104895762D01*
X42780996Y-104857493D01*
X42780997Y-104857492D01*
X42785978Y-104838090D01*
X42792278Y-104819687D01*
X42800238Y-104801295D01*
X42807070Y-104758148D01*
X42809439Y-104746715D01*
X42820300Y-104704420D01*
X42820300Y-104684384D01*
X42821827Y-104664985D01*
X42824960Y-104645204D01*
X42820850Y-104601725D01*
X42820300Y-104590056D01*
X42820300Y-103131599D01*
X43757659Y-103131599D01*
X43759455Y-103205128D01*
X43791649Y-103449670D01*
X43831762Y-103581694D01*
X43863355Y-103685679D01*
X43972642Y-103906805D01*
X44116577Y-104107112D01*
X44291295Y-104281221D01*
X44492103Y-104424456D01*
X44713609Y-104532970D01*
X44949864Y-104603850D01*
X45194522Y-104635192D01*
X45441015Y-104626153D01*
X45682721Y-104576977D01*
X45913150Y-104488985D01*
X46126113Y-104364539D01*
X46315892Y-104206982D01*
X46477389Y-104020545D01*
X46606268Y-103810234D01*
X46699066Y-103581699D01*
X46753293Y-103341075D01*
X46767492Y-103094826D01*
X46741281Y-102849565D01*
X46741281Y-102849563D01*
X46675364Y-102611876D01*
X46586457Y-102420344D01*
X46571512Y-102388148D01*
X46432514Y-102184384D01*
X46425270Y-102176804D01*
X46262104Y-102006058D01*
X46091461Y-101877937D01*
X46064854Y-101857960D01*
X46048829Y-101849618D01*
X45846067Y-101744066D01*
X45611611Y-101667434D01*
X45367796Y-101630125D01*
X45367793Y-101630125D01*
X45275303Y-101631255D01*
X45121149Y-101633139D01*
X44878319Y-101676392D01*
X44687220Y-101744066D01*
X44645808Y-101758731D01*
X44466056Y-101857959D01*
X44429866Y-101877937D01*
X44236296Y-102030809D01*
X44070293Y-102213244D01*
X43936312Y-102420347D01*
X43837958Y-102646543D01*
X43777869Y-102885769D01*
X43757659Y-103131599D01*
X42820300Y-103131599D01*
X42820300Y-99751600D01*
X43692459Y-99751600D01*
X43711793Y-99997256D01*
X43769316Y-100236861D01*
X43816466Y-100350691D01*
X43863616Y-100464520D01*
X43992367Y-100674623D01*
X44152401Y-100861999D01*
X44339777Y-101022033D01*
X44549880Y-101150784D01*
X44777538Y-101245083D01*
X45017145Y-101302607D01*
X45262800Y-101321941D01*
X45508455Y-101302607D01*
X45748062Y-101245083D01*
X45975720Y-101150784D01*
X46185823Y-101022033D01*
X46373199Y-100861999D01*
X46533233Y-100674623D01*
X46661984Y-100464520D01*
X46756283Y-100236862D01*
X46813807Y-99997255D01*
X46833141Y-99751600D01*
X46813807Y-99505945D01*
X46756283Y-99266338D01*
X46661984Y-99038680D01*
X46533233Y-98828577D01*
X46373199Y-98641201D01*
X46185823Y-98481167D01*
X45975720Y-98352416D01*
X45861635Y-98305160D01*
X45808771Y-98263485D01*
X45785471Y-98200329D01*
X45798604Y-98134305D01*
X45844299Y-98084873D01*
X45909089Y-98066600D01*
X46275624Y-98066600D01*
X46335175Y-98060197D01*
X46469889Y-98009952D01*
X46584988Y-97923788D01*
X46671152Y-97808689D01*
X46721397Y-97673975D01*
X46727800Y-97614424D01*
X46727800Y-96901600D01*
X43797800Y-96901600D01*
X43797800Y-97614424D01*
X43804202Y-97673975D01*
X43854447Y-97808689D01*
X43940611Y-97923788D01*
X44055710Y-98009952D01*
X44190424Y-98060197D01*
X44249976Y-98066600D01*
X44616511Y-98066600D01*
X44681301Y-98084873D01*
X44726996Y-98134305D01*
X44740129Y-98200329D01*
X44716829Y-98263485D01*
X44663964Y-98305161D01*
X44549878Y-98352417D01*
X44339778Y-98481166D01*
X44152401Y-98641201D01*
X43992366Y-98828578D01*
X43863617Y-99038678D01*
X43769316Y-99266338D01*
X43711793Y-99505943D01*
X43692459Y-99751600D01*
X42820300Y-99751600D01*
X42820300Y-96401600D01*
X43797800Y-96401600D01*
X45012800Y-96401600D01*
X45012800Y-95236600D01*
X45512800Y-95236600D01*
X45512800Y-96401600D01*
X46727800Y-96401600D01*
X46727800Y-95688776D01*
X46721397Y-95629224D01*
X46671152Y-95494510D01*
X46584988Y-95379411D01*
X46469889Y-95293247D01*
X46335175Y-95243002D01*
X46275624Y-95236600D01*
X45512800Y-95236600D01*
X45012800Y-95236600D01*
X44249976Y-95236600D01*
X44190424Y-95243002D01*
X44055710Y-95293247D01*
X43940611Y-95379411D01*
X43854447Y-95494510D01*
X43804202Y-95629224D01*
X43797800Y-95688776D01*
X43797800Y-96401600D01*
X42820300Y-96401600D01*
X42820300Y-79354403D01*
X43884300Y-79354403D01*
X43899202Y-79558017D01*
X43958416Y-79823838D01*
X44007744Y-79952810D01*
X44055707Y-80078214D01*
X44188996Y-80315710D01*
X44272220Y-80423489D01*
X44355445Y-80531269D01*
X44551504Y-80720294D01*
X44772999Y-80878759D01*
X44902706Y-80945446D01*
X45015203Y-81003285D01*
X45272959Y-81091219D01*
X45272961Y-81091219D01*
X45272963Y-81091220D01*
X45540770Y-81140686D01*
X45812930Y-81150632D01*
X45812930Y-81150631D01*
X45812931Y-81150632D01*
X46083639Y-81120846D01*
X46347126Y-81051962D01*
X46597775Y-80945447D01*
X46830244Y-80803573D01*
X47039579Y-80629363D01*
X47221318Y-80426531D01*
X47371588Y-80199398D01*
X47487186Y-79952806D01*
X47565647Y-79692011D01*
X47605300Y-79422571D01*
X47605300Y-78698400D01*
X47601961Y-78652786D01*
X47590397Y-78494782D01*
X47531183Y-78228961D01*
X47481857Y-78099994D01*
X47433893Y-77974586D01*
X47300604Y-77737090D01*
X47192823Y-77597510D01*
X47134154Y-77521530D01*
X46938095Y-77332505D01*
X46716600Y-77174040D01*
X46474402Y-77049517D01*
X46474398Y-77049515D01*
X46474397Y-77049515D01*
X46331713Y-77000838D01*
X46216636Y-76961579D01*
X45948829Y-76912113D01*
X45676669Y-76902167D01*
X45405962Y-76931953D01*
X45142474Y-77000838D01*
X44891824Y-77107353D01*
X44659356Y-77249226D01*
X44450023Y-77423435D01*
X44268280Y-77626271D01*
X44118010Y-77853405D01*
X44002415Y-78099989D01*
X43942367Y-78299583D01*
X43923953Y-78360789D01*
X43886187Y-78617412D01*
X43884300Y-78630232D01*
X43884300Y-79354403D01*
X42820300Y-79354403D01*
X42820300Y-72965884D01*
X42834049Y-72909133D01*
X42872246Y-72864967D01*
X42926422Y-72843180D01*
X42984563Y-72848603D01*
X43099940Y-72888211D01*
X43328793Y-72926400D01*
X43560807Y-72926400D01*
X43789659Y-72888211D01*
X44009096Y-72812878D01*
X44213153Y-72702448D01*
X44243598Y-72678751D01*
X43178928Y-71614081D01*
X43146834Y-71558494D01*
X43146834Y-71526400D01*
X43798353Y-71526400D01*
X44595986Y-72324034D01*
X44680283Y-72195007D01*
X44773480Y-71982538D01*
X44830438Y-71757617D01*
X44849598Y-71526400D01*
X44830438Y-71295182D01*
X44773480Y-71070260D01*
X44680284Y-70857792D01*
X44595986Y-70728764D01*
X43798353Y-71526400D01*
X43146834Y-71526400D01*
X43146834Y-71494306D01*
X43178928Y-71438719D01*
X44243599Y-70374047D01*
X44213149Y-70350348D01*
X44009099Y-70239922D01*
X43789659Y-70164588D01*
X43560807Y-70126400D01*
X43328793Y-70126400D01*
X43099940Y-70164588D01*
X42984563Y-70204197D01*
X42926422Y-70209620D01*
X42872246Y-70187833D01*
X42834049Y-70143667D01*
X42820300Y-70086916D01*
X42820300Y-44827660D01*
X42828536Y-44783222D01*
X42852150Y-44744688D01*
X42959633Y-44625316D01*
X43054279Y-44461384D01*
X43070597Y-44411162D01*
X43112774Y-44281356D01*
X43132560Y-44093100D01*
X43112774Y-43904844D01*
X43054279Y-43724816D01*
X43054279Y-43724815D01*
X42959633Y-43560883D01*
X42832970Y-43420210D01*
X42679830Y-43308948D01*
X42506902Y-43231955D01*
X42321748Y-43192600D01*
X42321746Y-43192600D01*
X42132454Y-43192600D01*
X42132452Y-43192600D01*
X41947297Y-43231955D01*
X41774369Y-43308948D01*
X41621229Y-43420210D01*
X41494566Y-43560883D01*
X41399920Y-43724815D01*
X41341426Y-43904842D01*
X41321640Y-44093100D01*
X41341426Y-44281357D01*
X41399920Y-44461384D01*
X41494566Y-44625315D01*
X41537449Y-44672941D01*
X41561064Y-44711476D01*
X41569300Y-44755914D01*
X41569300Y-70086388D01*
X41555551Y-70143139D01*
X41517353Y-70187305D01*
X41463177Y-70209093D01*
X41405037Y-70203669D01*
X41289784Y-70164102D01*
X41099256Y-70132309D01*
X41060849Y-70125900D01*
X40828751Y-70125900D01*
X40790595Y-70132266D01*
X40599814Y-70164102D01*
X40574219Y-70172889D01*
X40506008Y-70176416D01*
X40446278Y-70143288D01*
X38927602Y-68624611D01*
X38914706Y-68608513D01*
X38863575Y-68560498D01*
X38860778Y-68557787D01*
X38841270Y-68538279D01*
X38838090Y-68535812D01*
X38829224Y-68528239D01*
X38797382Y-68498338D01*
X38779824Y-68488685D01*
X38763564Y-68478004D01*
X38747736Y-68465727D01*
X38707651Y-68448380D01*
X38697161Y-68443241D01*
X38658891Y-68422202D01*
X38639491Y-68417221D01*
X38621084Y-68410919D01*
X38602697Y-68402962D01*
X38559558Y-68396129D01*
X38548124Y-68393761D01*
X38505819Y-68382900D01*
X38485784Y-68382900D01*
X38466386Y-68381373D01*
X38458962Y-68380197D01*
X38446605Y-68378240D01*
X38446604Y-68378240D01*
X38420284Y-68380728D01*
X38403125Y-68382350D01*
X38391456Y-68382900D01*
X32752141Y-68382900D01*
X32731637Y-68380636D01*
X32661545Y-68382839D01*
X32657651Y-68382900D01*
X32630048Y-68382900D01*
X32626053Y-68383404D01*
X32614429Y-68384318D01*
X32570768Y-68385690D01*
X32551528Y-68391280D01*
X32532481Y-68395225D01*
X32512609Y-68397735D01*
X32471999Y-68413813D01*
X32460954Y-68417594D01*
X32419010Y-68429781D01*
X32401765Y-68439979D01*
X32384304Y-68448533D01*
X32351110Y-68461678D01*
X32349526Y-68457678D01*
X32314239Y-68470700D01*
X32248211Y-68457571D01*
X32198774Y-68411876D01*
X32180500Y-68347083D01*
X32180500Y-51790153D01*
X32189939Y-51742701D01*
X32216818Y-51702473D01*
X32307783Y-51611506D01*
X32323880Y-51598611D01*
X32325873Y-51596488D01*
X32325877Y-51596486D01*
X32371948Y-51547423D01*
X32374566Y-51544723D01*
X32394120Y-51525171D01*
X32396581Y-51521998D01*
X32404156Y-51513127D01*
X32434062Y-51481282D01*
X32443712Y-51463727D01*
X32454400Y-51447457D01*
X32466673Y-51431636D01*
X32484026Y-51391532D01*
X32489157Y-51381062D01*
X32506036Y-51350360D01*
X32551576Y-51303367D01*
X32614697Y-51286099D01*
X32871870Y-51286099D01*
X32871872Y-51286099D01*
X32931483Y-51279691D01*
X33066331Y-51229396D01*
X33181546Y-51143146D01*
X33267796Y-51027931D01*
X33318091Y-50893083D01*
X33324500Y-50833473D01*
X33324499Y-48937728D01*
X33318091Y-48878117D01*
X33267796Y-48743269D01*
X33181546Y-48628054D01*
X33066331Y-48541804D01*
X32931483Y-48491509D01*
X32871873Y-48485100D01*
X32871869Y-48485100D01*
X32008451Y-48485100D01*
X31952156Y-48471585D01*
X31908133Y-48433985D01*
X31885978Y-48380498D01*
X31890520Y-48322782D01*
X31920770Y-48273419D01*
X34278871Y-45915319D01*
X34319099Y-45888439D01*
X34366552Y-45879000D01*
X36529753Y-45879000D01*
X36580188Y-45889720D01*
X36621901Y-45920026D01*
X36627629Y-45926388D01*
X36780770Y-46037651D01*
X36780771Y-46037651D01*
X36780772Y-46037652D01*
X36953697Y-46114644D01*
X37138852Y-46154000D01*
X37138854Y-46154000D01*
X37328146Y-46154000D01*
X37328148Y-46154000D01*
X37451583Y-46127762D01*
X37513303Y-46114644D01*
X37686230Y-46037651D01*
X37839371Y-45926388D01*
X37966033Y-45785716D01*
X38060679Y-45621784D01*
X38119174Y-45441756D01*
X38138960Y-45253500D01*
X38119174Y-45065244D01*
X38060679Y-44885216D01*
X38060679Y-44885215D01*
X37966033Y-44721283D01*
X37839370Y-44580610D01*
X37686230Y-44469348D01*
X37513302Y-44392355D01*
X37328148Y-44353000D01*
X37328146Y-44353000D01*
X37138854Y-44353000D01*
X37138852Y-44353000D01*
X36953697Y-44392355D01*
X36780772Y-44469347D01*
X36707173Y-44522820D01*
X36627629Y-44580612D01*
X36621901Y-44586973D01*
X36580188Y-44617280D01*
X36529753Y-44628000D01*
X34924909Y-44628000D01*
X34860312Y-44609846D01*
X34814631Y-44560698D01*
X34801240Y-44494949D01*
X34824061Y-44431850D01*
X34876410Y-44389878D01*
X35076975Y-44304647D01*
X35309444Y-44162773D01*
X35518779Y-43988563D01*
X35700518Y-43785731D01*
X35850788Y-43558598D01*
X35966386Y-43312006D01*
X36044847Y-43051211D01*
X36084500Y-42781771D01*
X36084500Y-42057600D01*
X36079510Y-41989429D01*
X36069597Y-41853982D01*
X36010383Y-41588161D01*
X35961057Y-41459194D01*
X35913093Y-41333786D01*
X35779804Y-41096290D01*
X35672024Y-40956710D01*
X35613354Y-40880730D01*
X35417295Y-40691705D01*
X35195800Y-40533240D01*
X34953602Y-40408717D01*
X34953598Y-40408715D01*
X34953597Y-40408715D01*
X34810913Y-40360038D01*
X34695836Y-40320779D01*
X34428029Y-40271313D01*
X34155869Y-40261367D01*
X33885162Y-40291153D01*
X33621674Y-40360038D01*
X33371024Y-40466553D01*
X33138556Y-40608426D01*
X32929223Y-40782635D01*
X32747480Y-40985471D01*
X32597210Y-41212605D01*
X32481615Y-41459189D01*
X32403153Y-41719988D01*
X32403153Y-41719989D01*
X32383434Y-41853982D01*
X32363500Y-41989432D01*
X32363500Y-42713603D01*
X32378402Y-42917217D01*
X32437616Y-43183038D01*
X32486944Y-43312010D01*
X32534907Y-43437414D01*
X32668196Y-43674910D01*
X32751420Y-43782689D01*
X32834645Y-43890469D01*
X33030704Y-44079494D01*
X33252199Y-44237959D01*
X33494397Y-44362482D01*
X33494403Y-44362485D01*
X33752159Y-44450419D01*
X33756605Y-44451240D01*
X33810855Y-44475801D01*
X33847399Y-44522820D01*
X33857809Y-44581454D01*
X33839683Y-44638179D01*
X33797202Y-44679912D01*
X33788466Y-44685078D01*
X33771004Y-44693633D01*
X33752367Y-44701012D01*
X33717031Y-44726685D01*
X33707274Y-44733095D01*
X33669680Y-44755329D01*
X33655513Y-44769496D01*
X33640724Y-44782126D01*
X33624513Y-44793904D01*
X33596672Y-44827558D01*
X33588811Y-44836197D01*
X29922520Y-48502488D01*
X29862789Y-48535616D01*
X29794577Y-48532089D01*
X29768980Y-48523301D01*
X29578250Y-48491474D01*
X29540049Y-48485100D01*
X29307951Y-48485100D01*
X29269544Y-48491509D01*
X29079015Y-48523302D01*
X28859501Y-48598662D01*
X28655372Y-48709131D01*
X28472215Y-48851687D01*
X28315018Y-49022450D01*
X28277509Y-49079862D01*
X28232718Y-49121095D01*
X28173700Y-49136040D01*
X28114682Y-49121094D01*
X28079140Y-49088374D01*
X28075186Y-49087964D01*
X27277553Y-49885600D01*
X28075186Y-50683234D01*
X28079141Y-50682824D01*
X28114683Y-50650105D01*
X28173700Y-50635159D01*
X28232718Y-50650104D01*
X28277508Y-50691335D01*
X28315021Y-50748753D01*
X28472216Y-50919513D01*
X28655374Y-51062070D01*
X28859497Y-51172536D01*
X28969258Y-51210217D01*
X29079015Y-51247897D01*
X29079017Y-51247897D01*
X29079019Y-51247898D01*
X29307951Y-51286100D01*
X29540048Y-51286100D01*
X29540049Y-51286100D01*
X29768981Y-51247898D01*
X29988503Y-51172536D01*
X30192626Y-51062070D01*
X30369566Y-50924352D01*
X30421991Y-50900501D01*
X30479540Y-50902908D01*
X30529793Y-50931057D01*
X30561906Y-50978873D01*
X30580204Y-51027931D01*
X30666454Y-51143146D01*
X30781669Y-51229396D01*
X30852206Y-51255704D01*
X30901648Y-51289615D01*
X30929402Y-51342761D01*
X30929102Y-51385017D01*
X30929500Y-51385017D01*
X30929500Y-51420716D01*
X30927973Y-51440115D01*
X30924840Y-51459894D01*
X30928950Y-51503375D01*
X30929500Y-51515044D01*
X30929500Y-104294056D01*
X30927235Y-104314562D01*
X30929439Y-104384673D01*
X30929500Y-104388568D01*
X30929500Y-104416149D01*
X30930003Y-104420134D01*
X30930918Y-104431767D01*
X30932290Y-104475426D01*
X30937879Y-104494660D01*
X30941825Y-104513716D01*
X30944335Y-104533592D01*
X30960414Y-104574204D01*
X30964197Y-104585251D01*
X30976382Y-104627191D01*
X30986580Y-104644435D01*
X30995136Y-104661900D01*
X31002514Y-104680532D01*
X31002515Y-104680533D01*
X31028180Y-104715859D01*
X31034593Y-104725622D01*
X31056826Y-104763216D01*
X31056829Y-104763219D01*
X31056830Y-104763220D01*
X31070995Y-104777385D01*
X31083627Y-104792175D01*
X31095406Y-104808387D01*
X31129058Y-104836226D01*
X31137699Y-104844089D01*
X33713940Y-107420331D01*
X33740820Y-107460558D01*
X33750259Y-107508009D01*
X33740822Y-107555461D01*
X33736316Y-107566338D01*
X33678793Y-107805943D01*
X33659459Y-108051600D01*
X33678793Y-108297256D01*
X33736316Y-108536861D01*
X33783466Y-108650690D01*
X33830616Y-108764520D01*
X33959367Y-108974623D01*
X34119401Y-109161999D01*
X34306777Y-109322033D01*
X34516880Y-109450784D01*
X34744538Y-109545083D01*
X34984145Y-109602607D01*
X35229800Y-109621941D01*
X35475455Y-109602607D01*
X35715062Y-109545083D01*
X35942720Y-109450784D01*
X36152823Y-109322033D01*
X36340199Y-109161999D01*
X36500233Y-108974623D01*
X36628984Y-108764520D01*
X36723283Y-108536862D01*
X36780807Y-108297255D01*
X36800141Y-108051600D01*
X36780807Y-107805945D01*
X36723283Y-107566338D01*
X36628984Y-107338680D01*
X36500233Y-107128577D01*
X36340199Y-106941201D01*
X36152823Y-106781167D01*
X35942720Y-106652416D01*
X35802481Y-106594327D01*
X35715061Y-106558116D01*
X35475456Y-106500593D01*
X35229800Y-106481259D01*
X34984143Y-106500593D01*
X34744532Y-106558118D01*
X34733658Y-106562622D01*
X34686207Y-106572059D01*
X34638756Y-106562619D01*
X34598530Y-106535740D01*
X32216819Y-104154028D01*
X32189939Y-104113800D01*
X32180500Y-104066347D01*
X32180500Y-103131599D01*
X33724659Y-103131599D01*
X33726455Y-103205128D01*
X33758649Y-103449670D01*
X33798762Y-103581694D01*
X33830355Y-103685679D01*
X33939642Y-103906805D01*
X34083577Y-104107112D01*
X34258295Y-104281221D01*
X34459103Y-104424456D01*
X34680609Y-104532970D01*
X34916864Y-104603850D01*
X35161522Y-104635192D01*
X35408015Y-104626153D01*
X35649721Y-104576977D01*
X35880150Y-104488985D01*
X36093113Y-104364539D01*
X36282892Y-104206982D01*
X36444389Y-104020545D01*
X36573268Y-103810234D01*
X36666066Y-103581699D01*
X36720293Y-103341075D01*
X36734492Y-103094826D01*
X36708281Y-102849565D01*
X36708281Y-102849563D01*
X36642364Y-102611876D01*
X36553457Y-102420344D01*
X36538512Y-102388148D01*
X36399514Y-102184384D01*
X36392270Y-102176804D01*
X36229104Y-102006058D01*
X36058461Y-101877937D01*
X36031854Y-101857960D01*
X36015829Y-101849618D01*
X35813067Y-101744066D01*
X35578611Y-101667434D01*
X35334796Y-101630125D01*
X35334793Y-101630125D01*
X35242303Y-101631255D01*
X35088149Y-101633139D01*
X34845319Y-101676392D01*
X34654220Y-101744066D01*
X34612808Y-101758731D01*
X34433056Y-101857959D01*
X34396866Y-101877937D01*
X34203296Y-102030809D01*
X34037293Y-102213244D01*
X33903312Y-102420347D01*
X33804958Y-102646543D01*
X33744869Y-102885769D01*
X33724659Y-103131599D01*
X32180500Y-103131599D01*
X32180500Y-99751600D01*
X33659459Y-99751600D01*
X33678793Y-99997256D01*
X33736316Y-100236861D01*
X33783466Y-100350691D01*
X33830616Y-100464520D01*
X33959367Y-100674623D01*
X34119401Y-100861999D01*
X34306777Y-101022033D01*
X34516880Y-101150784D01*
X34744538Y-101245083D01*
X34984145Y-101302607D01*
X35229800Y-101321941D01*
X35475455Y-101302607D01*
X35715062Y-101245083D01*
X35942720Y-101150784D01*
X36152823Y-101022033D01*
X36340199Y-100861999D01*
X36500233Y-100674623D01*
X36628984Y-100464520D01*
X36723283Y-100236862D01*
X36780807Y-99997255D01*
X36800141Y-99751600D01*
X36780807Y-99505945D01*
X36723283Y-99266338D01*
X36628984Y-99038680D01*
X36500233Y-98828577D01*
X36340199Y-98641201D01*
X36152823Y-98481167D01*
X35942720Y-98352416D01*
X35828635Y-98305160D01*
X35775771Y-98263485D01*
X35752471Y-98200329D01*
X35765604Y-98134305D01*
X35811299Y-98084873D01*
X35876089Y-98066600D01*
X36242624Y-98066600D01*
X36302175Y-98060197D01*
X36436889Y-98009952D01*
X36551988Y-97923788D01*
X36638152Y-97808689D01*
X36688397Y-97673975D01*
X36694800Y-97614424D01*
X36694800Y-96901600D01*
X33764800Y-96901600D01*
X33764800Y-97614424D01*
X33771202Y-97673975D01*
X33821447Y-97808689D01*
X33907611Y-97923788D01*
X34022710Y-98009952D01*
X34157424Y-98060197D01*
X34216976Y-98066600D01*
X34583511Y-98066600D01*
X34648301Y-98084873D01*
X34693996Y-98134305D01*
X34707129Y-98200329D01*
X34683829Y-98263485D01*
X34630964Y-98305161D01*
X34516878Y-98352417D01*
X34306778Y-98481166D01*
X34119401Y-98641201D01*
X33959366Y-98828578D01*
X33830617Y-99038678D01*
X33736316Y-99266338D01*
X33678793Y-99505943D01*
X33659459Y-99751600D01*
X32180500Y-99751600D01*
X32180500Y-96401600D01*
X33764800Y-96401600D01*
X34979800Y-96401600D01*
X34979800Y-95236600D01*
X35479800Y-95236600D01*
X35479800Y-96401600D01*
X36694800Y-96401600D01*
X36694800Y-95688776D01*
X36688397Y-95629224D01*
X36638152Y-95494510D01*
X36551988Y-95379411D01*
X36436889Y-95293247D01*
X36302175Y-95243002D01*
X36242624Y-95236600D01*
X35479800Y-95236600D01*
X34979800Y-95236600D01*
X34216976Y-95236600D01*
X34157424Y-95243002D01*
X34022710Y-95293247D01*
X33907611Y-95379411D01*
X33821447Y-95494510D01*
X33771202Y-95629224D01*
X33764800Y-95688776D01*
X33764800Y-96401600D01*
X32180500Y-96401600D01*
X32180500Y-76092200D01*
X32197113Y-76030200D01*
X32242500Y-75984813D01*
X32304500Y-75968200D01*
X32494748Y-75968200D01*
X32679901Y-75928845D01*
X32691765Y-75923563D01*
X32751930Y-75913225D01*
X32809736Y-75932848D01*
X32851173Y-75977676D01*
X32866200Y-76036843D01*
X32866200Y-78569813D01*
X32857964Y-78614251D01*
X32834352Y-78652782D01*
X32801245Y-78689551D01*
X32759164Y-78736286D01*
X32664520Y-78900215D01*
X32606026Y-79080242D01*
X32586240Y-79268499D01*
X32606026Y-79456757D01*
X32664520Y-79636784D01*
X32759166Y-79800716D01*
X32885829Y-79941389D01*
X33038969Y-80052651D01*
X33211897Y-80129644D01*
X33397052Y-80169000D01*
X33397054Y-80169000D01*
X33586346Y-80169000D01*
X33586348Y-80169000D01*
X33709784Y-80142762D01*
X33771503Y-80129644D01*
X33944430Y-80052651D01*
X34081850Y-79952810D01*
X34097570Y-79941389D01*
X34176621Y-79853594D01*
X34228948Y-79819135D01*
X34291442Y-79814656D01*
X34348148Y-79841302D01*
X34384589Y-79892269D01*
X34407744Y-79952810D01*
X34455707Y-80078214D01*
X34588996Y-80315710D01*
X34672220Y-80423489D01*
X34755445Y-80531269D01*
X34951504Y-80720294D01*
X35172999Y-80878759D01*
X35302706Y-80945446D01*
X35415203Y-81003285D01*
X35672959Y-81091219D01*
X35672961Y-81091219D01*
X35672963Y-81091220D01*
X35940770Y-81140686D01*
X36212930Y-81150632D01*
X36212930Y-81150631D01*
X36212931Y-81150632D01*
X36483639Y-81120846D01*
X36747126Y-81051962D01*
X36997775Y-80945447D01*
X37230244Y-80803573D01*
X37439579Y-80629363D01*
X37621318Y-80426531D01*
X37771588Y-80199398D01*
X37887186Y-79952806D01*
X37965647Y-79692011D01*
X38005300Y-79422571D01*
X38005300Y-78698400D01*
X38001961Y-78652786D01*
X37990397Y-78494782D01*
X37931183Y-78228961D01*
X37881857Y-78099994D01*
X37833893Y-77974586D01*
X37700604Y-77737090D01*
X37592823Y-77597510D01*
X37534154Y-77521530D01*
X37338095Y-77332505D01*
X37116600Y-77174040D01*
X36874402Y-77049517D01*
X36874398Y-77049515D01*
X36874397Y-77049515D01*
X36731713Y-77000838D01*
X36616636Y-76961579D01*
X36348829Y-76912113D01*
X36076669Y-76902167D01*
X35805962Y-76931953D01*
X35542474Y-77000838D01*
X35291824Y-77107353D01*
X35059356Y-77249226D01*
X34850023Y-77423435D01*
X34668280Y-77626271D01*
X34518010Y-77853405D01*
X34402415Y-78099989D01*
X34359943Y-78241164D01*
X34321904Y-78299583D01*
X34258358Y-78328247D01*
X34189389Y-78318097D01*
X34136796Y-78272341D01*
X34117200Y-78205440D01*
X34117200Y-76161452D01*
X34126639Y-76113999D01*
X34153519Y-76073771D01*
X35672290Y-74555000D01*
X37285908Y-72941381D01*
X37324774Y-72915077D01*
X37370636Y-72905100D01*
X37416921Y-72912884D01*
X37422801Y-72915077D01*
X37437317Y-72920491D01*
X37496927Y-72926900D01*
X39392672Y-72926899D01*
X39452283Y-72920491D01*
X39587131Y-72870196D01*
X39702346Y-72783946D01*
X39788596Y-72668731D01*
X39806893Y-72619672D01*
X39839005Y-72571858D01*
X39889258Y-72543708D01*
X39946807Y-72541300D01*
X39999235Y-72565153D01*
X40176174Y-72702870D01*
X40380297Y-72813336D01*
X40439971Y-72833822D01*
X40599815Y-72888697D01*
X40599817Y-72888697D01*
X40599819Y-72888698D01*
X40828751Y-72926900D01*
X41060848Y-72926900D01*
X41060849Y-72926900D01*
X41289781Y-72888698D01*
X41300451Y-72885035D01*
X41405037Y-72849131D01*
X41463177Y-72843707D01*
X41517353Y-72865495D01*
X41555551Y-72909661D01*
X41569300Y-72966412D01*
X41569300Y-104314948D01*
X41559861Y-104362401D01*
X41532981Y-104402629D01*
X29829508Y-116106099D01*
X29813410Y-116118996D01*
X29765396Y-116170125D01*
X29762691Y-116172917D01*
X29743174Y-116192434D01*
X29740715Y-116195605D01*
X29733142Y-116204472D01*
X29703235Y-116236320D01*
X29693585Y-116253874D01*
X29682909Y-116270128D01*
X29670626Y-116285963D01*
X29653275Y-116326058D01*
X29648138Y-116336544D01*
X29627102Y-116374807D01*
X29622121Y-116394209D01*
X29615820Y-116412611D01*
X29607861Y-116431002D01*
X29601028Y-116474142D01*
X29598660Y-116485574D01*
X29587800Y-116527878D01*
X29587800Y-116547916D01*
X29586273Y-116567315D01*
X29583140Y-116587094D01*
X29587250Y-116630575D01*
X29587800Y-116642244D01*
X29587800Y-123381447D01*
X29578361Y-123428900D01*
X29551481Y-123469128D01*
X25828067Y-127192540D01*
X25787839Y-127219420D01*
X25740386Y-127228859D01*
X25692933Y-127219420D01*
X25682061Y-127214916D01*
X25442456Y-127157393D01*
X25196800Y-127138059D01*
X24951143Y-127157393D01*
X24711538Y-127214916D01*
X24483878Y-127309217D01*
X24273778Y-127437966D01*
X24086401Y-127598001D01*
X23926366Y-127785378D01*
X23797617Y-127995478D01*
X23703316Y-128223138D01*
X23645793Y-128462743D01*
X23626459Y-128708400D01*
X20000500Y-128708400D01*
X20000500Y-123788399D01*
X23691659Y-123788399D01*
X23693455Y-123861928D01*
X23725649Y-124106470D01*
X23751850Y-124192705D01*
X23797355Y-124342479D01*
X23906642Y-124563605D01*
X24050577Y-124763912D01*
X24225295Y-124938021D01*
X24426103Y-125081256D01*
X24647609Y-125189770D01*
X24883864Y-125260650D01*
X25128522Y-125291992D01*
X25375015Y-125282953D01*
X25616721Y-125233777D01*
X25847150Y-125145785D01*
X26060113Y-125021339D01*
X26249892Y-124863782D01*
X26411389Y-124677345D01*
X26540268Y-124467034D01*
X26633066Y-124238499D01*
X26687293Y-123997875D01*
X26701492Y-123751626D01*
X26675281Y-123506365D01*
X26675281Y-123506363D01*
X26609364Y-123268676D01*
X26520457Y-123077144D01*
X26505512Y-123044948D01*
X26366514Y-122841184D01*
X26359270Y-122833604D01*
X26196104Y-122662858D01*
X26025461Y-122534737D01*
X25998854Y-122514760D01*
X25982829Y-122506418D01*
X25780067Y-122400866D01*
X25545611Y-122324234D01*
X25301796Y-122286925D01*
X25301793Y-122286925D01*
X25209303Y-122288055D01*
X25055149Y-122289939D01*
X24812319Y-122333192D01*
X24621220Y-122400866D01*
X24579808Y-122415531D01*
X24400056Y-122514759D01*
X24363866Y-122534737D01*
X24170296Y-122687609D01*
X24004293Y-122870044D01*
X23870312Y-123077147D01*
X23771958Y-123303343D01*
X23711869Y-123542569D01*
X23691659Y-123788399D01*
X20000500Y-123788399D01*
X20000500Y-120408400D01*
X23626459Y-120408400D01*
X23645793Y-120654056D01*
X23703316Y-120893661D01*
X23750466Y-121007491D01*
X23797616Y-121121320D01*
X23926367Y-121331423D01*
X24086401Y-121518799D01*
X24273777Y-121678833D01*
X24483880Y-121807584D01*
X24711538Y-121901883D01*
X24951145Y-121959407D01*
X25196800Y-121978741D01*
X25442455Y-121959407D01*
X25682062Y-121901883D01*
X25909720Y-121807584D01*
X26119823Y-121678833D01*
X26307199Y-121518799D01*
X26467233Y-121331423D01*
X26595984Y-121121320D01*
X26690283Y-120893662D01*
X26747807Y-120654055D01*
X26767141Y-120408400D01*
X26747807Y-120162745D01*
X26690283Y-119923138D01*
X26595984Y-119695480D01*
X26467233Y-119485377D01*
X26307199Y-119298001D01*
X26119823Y-119137967D01*
X25909720Y-119009216D01*
X25795635Y-118961960D01*
X25742771Y-118920285D01*
X25719471Y-118857129D01*
X25732604Y-118791105D01*
X25778299Y-118741673D01*
X25843089Y-118723400D01*
X26209624Y-118723400D01*
X26269175Y-118716997D01*
X26403889Y-118666752D01*
X26518988Y-118580588D01*
X26605152Y-118465489D01*
X26655397Y-118330775D01*
X26661800Y-118271224D01*
X26661800Y-117558400D01*
X23731800Y-117558400D01*
X23731800Y-118271224D01*
X23738202Y-118330775D01*
X23788447Y-118465489D01*
X23874611Y-118580588D01*
X23989710Y-118666752D01*
X24124424Y-118716997D01*
X24183976Y-118723400D01*
X24550511Y-118723400D01*
X24615301Y-118741673D01*
X24660996Y-118791105D01*
X24674129Y-118857129D01*
X24650829Y-118920285D01*
X24597964Y-118961961D01*
X24483878Y-119009217D01*
X24273778Y-119137966D01*
X24086401Y-119298001D01*
X23926366Y-119485378D01*
X23797617Y-119695478D01*
X23703316Y-119923138D01*
X23645793Y-120162743D01*
X23626459Y-120408400D01*
X20000500Y-120408400D01*
X20000500Y-117058400D01*
X23731800Y-117058400D01*
X24946800Y-117058400D01*
X24946800Y-115893400D01*
X25446800Y-115893400D01*
X25446800Y-117058400D01*
X26661800Y-117058400D01*
X26661800Y-116345576D01*
X26655397Y-116286024D01*
X26605152Y-116151310D01*
X26518988Y-116036211D01*
X26403889Y-115950047D01*
X26269175Y-115899802D01*
X26209624Y-115893400D01*
X25446800Y-115893400D01*
X24946800Y-115893400D01*
X24183976Y-115893400D01*
X24124424Y-115899802D01*
X23989710Y-115950047D01*
X23874611Y-116036211D01*
X23788447Y-116151310D01*
X23738202Y-116286024D01*
X23731800Y-116345576D01*
X23731800Y-117058400D01*
X20000500Y-117058400D01*
X20000500Y-108051600D01*
X23626459Y-108051600D01*
X23645793Y-108297256D01*
X23703316Y-108536861D01*
X23750466Y-108650690D01*
X23797616Y-108764520D01*
X23926367Y-108974623D01*
X24086401Y-109161999D01*
X24273777Y-109322033D01*
X24483880Y-109450784D01*
X24711538Y-109545083D01*
X24951145Y-109602607D01*
X25196800Y-109621941D01*
X25442455Y-109602607D01*
X25682062Y-109545083D01*
X25909720Y-109450784D01*
X26119823Y-109322033D01*
X26307199Y-109161999D01*
X26467233Y-108974623D01*
X26595984Y-108764520D01*
X26690283Y-108536862D01*
X26747807Y-108297255D01*
X26767141Y-108051600D01*
X26747807Y-107805945D01*
X26690283Y-107566338D01*
X26595984Y-107338680D01*
X26467233Y-107128577D01*
X26307199Y-106941201D01*
X26119823Y-106781167D01*
X25909720Y-106652416D01*
X25769481Y-106594327D01*
X25682061Y-106558116D01*
X25442456Y-106500593D01*
X25196800Y-106481259D01*
X24951143Y-106500593D01*
X24711538Y-106558116D01*
X24483878Y-106652417D01*
X24273778Y-106781166D01*
X24086401Y-106941201D01*
X23926366Y-107128578D01*
X23797617Y-107338678D01*
X23703316Y-107566338D01*
X23645793Y-107805943D01*
X23626459Y-108051600D01*
X20000500Y-108051600D01*
X20000500Y-103131599D01*
X23691659Y-103131599D01*
X23693455Y-103205128D01*
X23725649Y-103449670D01*
X23765762Y-103581694D01*
X23797355Y-103685679D01*
X23906642Y-103906805D01*
X24050577Y-104107112D01*
X24225295Y-104281221D01*
X24426103Y-104424456D01*
X24647609Y-104532970D01*
X24883864Y-104603850D01*
X25128522Y-104635192D01*
X25375015Y-104626153D01*
X25616721Y-104576977D01*
X25847150Y-104488985D01*
X26060113Y-104364539D01*
X26249892Y-104206982D01*
X26411389Y-104020545D01*
X26540268Y-103810234D01*
X26633066Y-103581699D01*
X26687293Y-103341075D01*
X26701492Y-103094826D01*
X26675281Y-102849565D01*
X26675281Y-102849563D01*
X26609364Y-102611876D01*
X26520457Y-102420344D01*
X26505512Y-102388148D01*
X26366514Y-102184384D01*
X26359270Y-102176804D01*
X26196104Y-102006058D01*
X26025461Y-101877937D01*
X25998854Y-101857960D01*
X25982829Y-101849618D01*
X25780067Y-101744066D01*
X25545611Y-101667434D01*
X25301796Y-101630125D01*
X25301793Y-101630125D01*
X25209303Y-101631255D01*
X25055149Y-101633139D01*
X24812319Y-101676392D01*
X24621220Y-101744066D01*
X24579808Y-101758731D01*
X24400056Y-101857959D01*
X24363866Y-101877937D01*
X24170296Y-102030809D01*
X24004293Y-102213244D01*
X23870312Y-102420347D01*
X23771958Y-102646543D01*
X23711869Y-102885769D01*
X23691659Y-103131599D01*
X20000500Y-103131599D01*
X20000500Y-99751600D01*
X23626459Y-99751600D01*
X23645793Y-99997256D01*
X23703316Y-100236861D01*
X23750466Y-100350691D01*
X23797616Y-100464520D01*
X23926367Y-100674623D01*
X24086401Y-100861999D01*
X24273777Y-101022033D01*
X24483880Y-101150784D01*
X24711538Y-101245083D01*
X24951145Y-101302607D01*
X25196800Y-101321941D01*
X25442455Y-101302607D01*
X25682062Y-101245083D01*
X25909720Y-101150784D01*
X26119823Y-101022033D01*
X26307199Y-100861999D01*
X26467233Y-100674623D01*
X26595984Y-100464520D01*
X26690283Y-100236862D01*
X26747807Y-99997255D01*
X26767141Y-99751600D01*
X26747807Y-99505945D01*
X26690283Y-99266338D01*
X26595984Y-99038680D01*
X26467233Y-98828577D01*
X26307199Y-98641201D01*
X26119823Y-98481167D01*
X25909720Y-98352416D01*
X25795635Y-98305160D01*
X25742771Y-98263485D01*
X25719471Y-98200329D01*
X25732604Y-98134305D01*
X25778299Y-98084873D01*
X25843089Y-98066600D01*
X26209624Y-98066600D01*
X26269175Y-98060197D01*
X26403889Y-98009952D01*
X26518988Y-97923788D01*
X26605152Y-97808689D01*
X26655397Y-97673975D01*
X26661800Y-97614424D01*
X26661800Y-96901600D01*
X23731800Y-96901600D01*
X23731800Y-97614424D01*
X23738202Y-97673975D01*
X23788447Y-97808689D01*
X23874611Y-97923788D01*
X23989710Y-98009952D01*
X24124424Y-98060197D01*
X24183976Y-98066600D01*
X24550511Y-98066600D01*
X24615301Y-98084873D01*
X24660996Y-98134305D01*
X24674129Y-98200329D01*
X24650829Y-98263485D01*
X24597964Y-98305161D01*
X24483878Y-98352417D01*
X24273778Y-98481166D01*
X24086401Y-98641201D01*
X23926366Y-98828578D01*
X23797617Y-99038678D01*
X23703316Y-99266338D01*
X23645793Y-99505943D01*
X23626459Y-99751600D01*
X20000500Y-99751600D01*
X20000500Y-96401600D01*
X23731800Y-96401600D01*
X24946800Y-96401600D01*
X24946800Y-95236600D01*
X25446800Y-95236600D01*
X25446800Y-96401600D01*
X26661800Y-96401600D01*
X26661800Y-95688776D01*
X26655397Y-95629224D01*
X26605152Y-95494510D01*
X26518988Y-95379411D01*
X26403889Y-95293247D01*
X26269175Y-95243002D01*
X26209624Y-95236600D01*
X25446800Y-95236600D01*
X24946800Y-95236600D01*
X24183976Y-95236600D01*
X24124424Y-95243002D01*
X23989710Y-95293247D01*
X23874611Y-95379411D01*
X23788447Y-95494510D01*
X23738202Y-95629224D01*
X23731800Y-95688776D01*
X23731800Y-96401600D01*
X20000500Y-96401600D01*
X20000500Y-51037951D01*
X26125199Y-51037951D01*
X26155650Y-51061651D01*
X26359700Y-51172077D01*
X26579140Y-51247411D01*
X26807993Y-51285600D01*
X27040007Y-51285600D01*
X27268859Y-51247411D01*
X27488296Y-51172078D01*
X27692353Y-51061648D01*
X27722798Y-51037951D01*
X26924000Y-50239153D01*
X26125199Y-51037951D01*
X20000500Y-51037951D01*
X20000500Y-49885599D01*
X25519201Y-49885599D01*
X25538361Y-50116817D01*
X25595319Y-50341739D01*
X25688516Y-50554209D01*
X25772812Y-50683233D01*
X26570447Y-49885601D01*
X26570447Y-49885600D01*
X25772812Y-49087965D01*
X25688516Y-49216990D01*
X25595319Y-49429460D01*
X25538361Y-49654382D01*
X25519201Y-49885599D01*
X20000500Y-49885599D01*
X20000500Y-48733247D01*
X26125200Y-48733247D01*
X26924000Y-49532047D01*
X26924001Y-49532047D01*
X27722799Y-48733248D01*
X27722799Y-48733247D01*
X27692349Y-48709548D01*
X27488299Y-48599122D01*
X27268859Y-48523788D01*
X27040007Y-48485600D01*
X26807993Y-48485600D01*
X26579140Y-48523788D01*
X26359703Y-48599121D01*
X26155645Y-48709552D01*
X26125200Y-48733246D01*
X26125200Y-48733247D01*
X20000500Y-48733247D01*
X20000500Y-42713603D01*
X22763500Y-42713603D01*
X22778402Y-42917217D01*
X22837616Y-43183038D01*
X22886944Y-43312010D01*
X22934907Y-43437414D01*
X23068196Y-43674910D01*
X23151420Y-43782689D01*
X23234645Y-43890469D01*
X23430704Y-44079494D01*
X23652199Y-44237959D01*
X23894397Y-44362482D01*
X23894403Y-44362485D01*
X24152159Y-44450419D01*
X24152161Y-44450419D01*
X24152163Y-44450420D01*
X24419970Y-44499886D01*
X24692130Y-44509832D01*
X24692130Y-44509831D01*
X24692131Y-44509832D01*
X24962839Y-44480046D01*
X25226326Y-44411162D01*
X25476975Y-44304647D01*
X25709444Y-44162773D01*
X25918779Y-43988563D01*
X26100518Y-43785731D01*
X26250788Y-43558598D01*
X26366386Y-43312006D01*
X26444847Y-43051211D01*
X26484500Y-42781771D01*
X26484500Y-42057600D01*
X26479510Y-41989429D01*
X26469597Y-41853982D01*
X26410383Y-41588161D01*
X26361057Y-41459194D01*
X26313093Y-41333786D01*
X26179804Y-41096290D01*
X26072024Y-40956710D01*
X26013354Y-40880730D01*
X25817295Y-40691705D01*
X25595800Y-40533240D01*
X25353602Y-40408717D01*
X25353598Y-40408715D01*
X25353597Y-40408715D01*
X25210913Y-40360038D01*
X25095836Y-40320779D01*
X24828029Y-40271313D01*
X24555869Y-40261367D01*
X24285162Y-40291153D01*
X24021674Y-40360038D01*
X23771024Y-40466553D01*
X23538556Y-40608426D01*
X23329223Y-40782635D01*
X23147480Y-40985471D01*
X22997210Y-41212605D01*
X22881615Y-41459189D01*
X22803153Y-41719988D01*
X22803153Y-41719989D01*
X22783434Y-41853982D01*
X22763500Y-41989432D01*
X22763500Y-42713603D01*
X20000500Y-42713603D01*
X20000500Y-29000000D01*
X21499459Y-29000000D01*
X21499617Y-29000383D01*
X21499758Y-29000441D01*
X21499900Y-29000500D01*
X21499901Y-29000500D01*
X24500099Y-29000500D01*
X24500100Y-29000500D01*
X24500193Y-29000460D01*
X24500383Y-29000383D01*
X24500541Y-29000000D01*
X26499459Y-29000000D01*
X26499617Y-29000383D01*
X26499758Y-29000441D01*
X26499900Y-29000500D01*
X26499901Y-29000500D01*
X29500099Y-29000500D01*
X29500100Y-29000500D01*
X29500193Y-29000460D01*
X29500383Y-29000383D01*
X29500541Y-29000000D01*
X31499459Y-29000000D01*
X31499617Y-29000383D01*
X31499758Y-29000441D01*
X31499900Y-29000500D01*
X31499901Y-29000500D01*
X34500099Y-29000500D01*
X34500100Y-29000500D01*
X34500193Y-29000460D01*
X34500383Y-29000383D01*
X34500541Y-29000000D01*
X34500383Y-28999617D01*
X34500381Y-28999616D01*
X34500100Y-28999500D01*
X34500099Y-28999500D01*
X31499901Y-28999500D01*
X31499900Y-28999500D01*
X31499618Y-28999616D01*
X31499616Y-28999618D01*
X31499459Y-28999999D01*
X31499459Y-29000000D01*
X29500541Y-29000000D01*
X29500383Y-28999617D01*
X29500381Y-28999616D01*
X29500100Y-28999500D01*
X29500099Y-28999500D01*
X26499901Y-28999500D01*
X26499900Y-28999500D01*
X26499618Y-28999616D01*
X26499616Y-28999618D01*
X26499459Y-28999999D01*
X26499459Y-29000000D01*
X24500541Y-29000000D01*
X24500383Y-28999617D01*
X24500381Y-28999616D01*
X24500100Y-28999500D01*
X24500099Y-28999500D01*
X21499901Y-28999500D01*
X21499900Y-28999500D01*
X21499618Y-28999616D01*
X21499616Y-28999618D01*
X21499459Y-28999999D01*
X21499459Y-29000000D01*
X20000500Y-29000000D01*
X20000500Y-23000000D01*
X25074551Y-23000000D01*
X25094317Y-23251149D01*
X25153126Y-23496110D01*
X25156100Y-23503289D01*
X25249534Y-23728859D01*
X25381164Y-23943659D01*
X25544776Y-24135224D01*
X25736341Y-24298836D01*
X25951141Y-24430466D01*
X26183889Y-24526873D01*
X26428852Y-24585683D01*
X26680000Y-24605449D01*
X26931148Y-24585683D01*
X27176111Y-24526873D01*
X27408859Y-24430466D01*
X27623659Y-24298836D01*
X27815224Y-24135224D01*
X27978836Y-23943659D01*
X28110466Y-23728859D01*
X28206873Y-23496111D01*
X28265683Y-23251148D01*
X28285449Y-23000000D01*
X28285449Y-22999999D01*
X42194551Y-22999999D01*
X42214317Y-23251149D01*
X42273126Y-23496110D01*
X42276100Y-23503289D01*
X42369534Y-23728859D01*
X42501164Y-23943659D01*
X42664776Y-24135224D01*
X42856341Y-24298836D01*
X43071141Y-24430466D01*
X43303889Y-24526873D01*
X43548852Y-24585683D01*
X43800000Y-24605449D01*
X44051148Y-24585683D01*
X44296111Y-24526873D01*
X44528859Y-24430466D01*
X44743659Y-24298836D01*
X44935224Y-24135224D01*
X45098836Y-23943659D01*
X45230466Y-23728859D01*
X45326873Y-23496111D01*
X45385683Y-23251148D01*
X45405449Y-23000000D01*
X45385683Y-22748852D01*
X45326873Y-22503889D01*
X45230466Y-22271141D01*
X45098836Y-22056341D01*
X44935224Y-21864776D01*
X44743659Y-21701164D01*
X44528859Y-21569534D01*
X44412484Y-21521330D01*
X44296110Y-21473126D01*
X44051149Y-21414317D01*
X43800000Y-21394551D01*
X43548850Y-21414317D01*
X43303889Y-21473126D01*
X43071139Y-21569535D01*
X42856342Y-21701163D01*
X42664776Y-21864776D01*
X42501163Y-22056342D01*
X42369535Y-22271139D01*
X42273126Y-22503889D01*
X42214317Y-22748850D01*
X42194551Y-22999999D01*
X28285449Y-22999999D01*
X28265683Y-22748852D01*
X28206873Y-22503889D01*
X28110466Y-22271141D01*
X27978836Y-22056341D01*
X27815224Y-21864776D01*
X27623659Y-21701164D01*
X27408859Y-21569534D01*
X27292484Y-21521330D01*
X27176110Y-21473126D01*
X26931149Y-21414317D01*
X26680000Y-21394551D01*
X26428850Y-21414317D01*
X26183889Y-21473126D01*
X25951139Y-21569535D01*
X25736342Y-21701163D01*
X25544776Y-21864776D01*
X25381163Y-22056342D01*
X25249535Y-22271139D01*
X25153126Y-22503889D01*
X25094317Y-22748850D01*
X25074551Y-23000000D01*
X20000500Y-23000000D01*
X20000500Y-20124500D01*
X20017113Y-20062500D01*
X20062500Y-20017113D01*
X20124500Y-20000500D01*
X50355500Y-20000500D01*
X50417500Y-20017113D01*
G37*
%TD.AperFunction*%
%TD*%
M02*
