%TF.GenerationSoftware,KiCad,Pcbnew,7.0.1*%
%TF.CreationDate,2023-04-20T06:23:29-07:00*%
%TF.ProjectId,wissystem_vca1,77697373-7973-4746-956d-5f766361312e,rev?*%
%TF.SameCoordinates,Original*%
%TF.FileFunction,Legend,Top*%
%TF.FilePolarity,Positive*%
%FSLAX46Y46*%
G04 Gerber Fmt 4.6, Leading zero omitted, Abs format (unit mm)*
G04 Created by KiCad (PCBNEW 7.0.1) date 2023-04-20 06:23:29*
%MOMM*%
%LPD*%
G01*
G04 APERTURE LIST*
G04 Aperture macros list*
%AMRoundRect*
0 Rectangle with rounded corners*
0 $1 Rounding radius*
0 $2 $3 $4 $5 $6 $7 $8 $9 X,Y pos of 4 corners*
0 Add a 4 corners polygon primitive as box body*
4,1,4,$2,$3,$4,$5,$6,$7,$8,$9,$2,$3,0*
0 Add four circle primitives for the rounded corners*
1,1,$1+$1,$2,$3*
1,1,$1+$1,$4,$5*
1,1,$1+$1,$6,$7*
1,1,$1+$1,$8,$9*
0 Add four rect primitives between the rounded corners*
20,1,$1+$1,$2,$3,$4,$5,0*
20,1,$1+$1,$4,$5,$6,$7,0*
20,1,$1+$1,$6,$7,$8,$9,0*
20,1,$1+$1,$8,$9,$2,$3,0*%
G04 Aperture macros list end*
%ADD10C,0.120000*%
%ADD11O,2.720000X3.240000*%
%ADD12R,1.800000X1.800000*%
%ADD13C,1.800000*%
%ADD14RoundRect,0.255000X0.255000X-2.245000X0.255000X2.245000X-0.255000X2.245000X-0.255000X-2.245000X0*%
%ADD15RoundRect,0.135000X0.185000X-0.135000X0.185000X0.135000X-0.185000X0.135000X-0.185000X-0.135000X0*%
%ADD16RoundRect,0.135000X-0.135000X-0.185000X0.135000X-0.185000X0.135000X0.185000X-0.135000X0.185000X0*%
%ADD17RoundRect,0.200000X0.200000X0.275000X-0.200000X0.275000X-0.200000X-0.275000X0.200000X-0.275000X0*%
%ADD18R,1.200000X1.200000*%
%ADD19R,1.600000X1.500000*%
%ADD20RoundRect,0.150000X-0.825000X-0.150000X0.825000X-0.150000X0.825000X0.150000X-0.825000X0.150000X0*%
%ADD21R,1.930000X1.830000*%
%ADD22C,2.130000*%
%ADD23RoundRect,0.135000X0.135000X0.185000X-0.135000X0.185000X-0.135000X-0.185000X0.135000X-0.185000X0*%
%ADD24RoundRect,0.150000X0.825000X0.150000X-0.825000X0.150000X-0.825000X-0.150000X0.825000X-0.150000X0*%
%ADD25RoundRect,0.135000X-0.185000X0.135000X-0.185000X-0.135000X0.185000X-0.135000X0.185000X0.135000X0*%
%ADD26RoundRect,0.150000X0.150000X-0.850000X0.150000X0.850000X-0.150000X0.850000X-0.150000X-0.850000X0*%
G04 APERTURE END LIST*
D10*
%TO.C,J1*%
X21327600Y-92611400D02*
X21327600Y-83441400D01*
X25507600Y-92611400D02*
X25507600Y-94111400D01*
X25507600Y-92611400D02*
X21327600Y-92611400D01*
X45307600Y-92611400D02*
X49487600Y-92611400D01*
X49487600Y-92611400D02*
X49487600Y-83441400D01*
X21327600Y-83441400D02*
X25507600Y-83441400D01*
X49487600Y-83441400D02*
X45307600Y-83441400D01*
%TO.C,RV3*%
X27860400Y-52924400D02*
X27160400Y-52924400D01*
X26260400Y-53424400D02*
X25860400Y-53424400D01*
X27860400Y-53624400D02*
X27860400Y-52924400D01*
X27660400Y-54524400D02*
X27660400Y-57424400D01*
X24460400Y-54524400D02*
X24460400Y-57424400D01*
X27660400Y-57424400D02*
X27060400Y-57424400D01*
X24460400Y-57424400D02*
X25060400Y-57424400D01*
%TO.C,U3*%
X42570400Y-46298800D02*
X40620400Y-46298800D01*
X42570400Y-46298800D02*
X44520400Y-46298800D01*
X42570400Y-41178800D02*
X39120400Y-41178800D01*
X42570400Y-41178800D02*
X44520400Y-41178800D01*
%TO.C,U1*%
X28244800Y-78556800D02*
X26294800Y-78556800D01*
X28244800Y-78556800D02*
X31694800Y-78556800D01*
X28244800Y-73436800D02*
X26294800Y-73436800D01*
X28244800Y-73436800D02*
X30194800Y-73436800D01*
%TO.C,U2*%
X39604000Y-61264800D02*
X39604000Y-59314800D01*
X39604000Y-61264800D02*
X39604000Y-63214800D01*
X29484000Y-61264800D02*
X29484000Y-59314800D01*
X29484000Y-61264800D02*
X29484000Y-64764800D01*
%TO.C,RV2*%
X24460400Y-69847200D02*
X25060400Y-69847200D01*
X27660400Y-69847200D02*
X27060400Y-69847200D01*
X24460400Y-66947200D02*
X24460400Y-69847200D01*
X27660400Y-66947200D02*
X27660400Y-69847200D01*
X27860400Y-66047200D02*
X27860400Y-65347200D01*
X26260400Y-65847200D02*
X25860400Y-65847200D01*
X27860400Y-65347200D02*
X27160400Y-65347200D01*
%TD*%
%LPC*%
D11*
%TO.C,RV4*%
X34224000Y-42385600D03*
X24624000Y-42385600D03*
D12*
X31924000Y-49885600D03*
D13*
X29424000Y-49885600D03*
X26924000Y-49885600D03*
%TD*%
D14*
%TO.C,J1*%
X26517600Y-91826400D03*
X26517600Y-84226400D03*
X29057600Y-91826400D03*
X29057600Y-84226400D03*
X31597600Y-91826400D03*
X31597600Y-84226400D03*
X34137600Y-91826400D03*
X34137600Y-84226400D03*
X36677600Y-91826400D03*
X36677600Y-84226400D03*
X39217600Y-91826400D03*
X39217600Y-84226400D03*
X41757600Y-91826400D03*
X41757600Y-84226400D03*
X44297600Y-91826400D03*
X44297600Y-84226400D03*
%TD*%
D15*
%TO.C,R3*%
X31394400Y-66501200D03*
X31394400Y-65481200D03*
%TD*%
D16*
%TO.C,R6*%
X27025600Y-107086400D03*
X28045600Y-107086400D03*
%TD*%
D17*
%TO.C,R4*%
X48995600Y-128727200D03*
X47345600Y-128727200D03*
%TD*%
D18*
%TO.C,RV3*%
X27060400Y-53724400D03*
D19*
X26060400Y-56974400D03*
D18*
X25060400Y-53724400D03*
%TD*%
D20*
%TO.C,U3*%
X45045400Y-41833800D03*
X45045400Y-43103800D03*
X45045400Y-44373800D03*
X45045400Y-45643800D03*
X40095400Y-45643800D03*
X40095400Y-44373800D03*
X40095400Y-43103800D03*
X40095400Y-41833800D03*
%TD*%
D21*
%TO.C,J_OUT1*%
X25196800Y-96651600D03*
D22*
X25196800Y-108051600D03*
X25196800Y-99751600D03*
%TD*%
D17*
%TO.C,R10*%
X48894000Y-108051600D03*
X47244000Y-108051600D03*
%TD*%
D16*
%TO.C,R13*%
X27021600Y-127711200D03*
X28041600Y-127711200D03*
%TD*%
D22*
%TO.C,J_CV2*%
X35229800Y-120408400D03*
X35229800Y-128708400D03*
D21*
X35229800Y-117308400D03*
%TD*%
%TO.C,J_OUT2*%
X25196800Y-117308400D03*
D22*
X25196800Y-128708400D03*
X25196800Y-120408400D03*
%TD*%
D23*
%TO.C,R7*%
X27023600Y-108051600D03*
X28043600Y-108051600D03*
%TD*%
D24*
%TO.C,U1*%
X30719800Y-77901800D03*
X30719800Y-76631800D03*
X30719800Y-75361800D03*
X30719800Y-74091800D03*
X25769800Y-74091800D03*
X25769800Y-75361800D03*
X25769800Y-76631800D03*
X25769800Y-77901800D03*
%TD*%
D23*
%TO.C,R14*%
X28045600Y-128676400D03*
X27025600Y-128676400D03*
%TD*%
D15*
%TO.C,R2*%
X33426400Y-77927200D03*
X33426400Y-76907200D03*
%TD*%
D25*
%TO.C,R8*%
X37388800Y-41910000D03*
X37388800Y-42930000D03*
%TD*%
%TO.C,R9*%
X31343600Y-56028400D03*
X31343600Y-57048400D03*
%TD*%
%TO.C,R1*%
X32461200Y-76907200D03*
X32461200Y-77927200D03*
%TD*%
D26*
%TO.C,U2*%
X30099000Y-58764800D03*
X31369000Y-58764800D03*
X32639000Y-58764800D03*
X33909000Y-58764800D03*
X35179000Y-58764800D03*
X36449000Y-58764800D03*
X37719000Y-58764800D03*
X38989000Y-58764800D03*
X38989000Y-63764800D03*
X37719000Y-63764800D03*
X36449000Y-63764800D03*
X35179000Y-63764800D03*
X33909000Y-63764800D03*
X32639000Y-63764800D03*
X31369000Y-63764800D03*
X30099000Y-63764800D03*
%TD*%
D15*
%TO.C,R5*%
X32461200Y-79808800D03*
X32461200Y-78788800D03*
%TD*%
D21*
%TO.C,J_SIG3*%
X45262800Y-117308400D03*
D22*
X45262800Y-128708400D03*
X45262800Y-120408400D03*
%TD*%
%TO.C,J_CV1*%
X35229800Y-99751600D03*
X35229800Y-108051600D03*
D21*
X35229800Y-96651600D03*
%TD*%
D15*
%TO.C,R11*%
X38354000Y-42930000D03*
X38354000Y-41910000D03*
%TD*%
D11*
%TO.C,RV1*%
X36144800Y-79026400D03*
X45744800Y-79026400D03*
D12*
X38444800Y-71526400D03*
D13*
X40944800Y-71526400D03*
X43444800Y-71526400D03*
%TD*%
D25*
%TO.C,R12*%
X38354000Y-40028400D03*
X38354000Y-41048400D03*
%TD*%
D21*
%TO.C,J_SIG1*%
X45262800Y-96651600D03*
D22*
X45262800Y-108051600D03*
X45262800Y-99751600D03*
%TD*%
D18*
%TO.C,RV2*%
X25060400Y-66147200D03*
D19*
X26060400Y-69397200D03*
D18*
X27060400Y-66147200D03*
%TD*%
M02*
