%TF.GenerationSoftware,KiCad,Pcbnew,7.0.1*%
%TF.CreationDate,2023-04-20T06:23:29-07:00*%
%TF.ProjectId,wissystem_vca1,77697373-7973-4746-956d-5f766361312e,rev?*%
%TF.SameCoordinates,Original*%
%TF.FileFunction,Copper,L1,Top*%
%TF.FilePolarity,Positive*%
%FSLAX46Y46*%
G04 Gerber Fmt 4.6, Leading zero omitted, Abs format (unit mm)*
G04 Created by KiCad (PCBNEW 7.0.1) date 2023-04-20 06:23:29*
%MOMM*%
%LPD*%
G01*
G04 APERTURE LIST*
G04 Aperture macros list*
%AMRoundRect*
0 Rectangle with rounded corners*
0 $1 Rounding radius*
0 $2 $3 $4 $5 $6 $7 $8 $9 X,Y pos of 4 corners*
0 Add a 4 corners polygon primitive as box body*
4,1,4,$2,$3,$4,$5,$6,$7,$8,$9,$2,$3,0*
0 Add four circle primitives for the rounded corners*
1,1,$1+$1,$2,$3*
1,1,$1+$1,$4,$5*
1,1,$1+$1,$6,$7*
1,1,$1+$1,$8,$9*
0 Add four rect primitives between the rounded corners*
20,1,$1+$1,$2,$3,$4,$5,0*
20,1,$1+$1,$4,$5,$6,$7,0*
20,1,$1+$1,$6,$7,$8,$9,0*
20,1,$1+$1,$8,$9,$2,$3,0*%
G04 Aperture macros list end*
%TA.AperFunction,ComponentPad*%
%ADD10O,2.720000X3.240000*%
%TD*%
%TA.AperFunction,ComponentPad*%
%ADD11R,1.800000X1.800000*%
%TD*%
%TA.AperFunction,ComponentPad*%
%ADD12C,1.800000*%
%TD*%
%TA.AperFunction,SMDPad,CuDef*%
%ADD13RoundRect,0.255000X0.255000X-2.245000X0.255000X2.245000X-0.255000X2.245000X-0.255000X-2.245000X0*%
%TD*%
%TA.AperFunction,SMDPad,CuDef*%
%ADD14RoundRect,0.135000X0.185000X-0.135000X0.185000X0.135000X-0.185000X0.135000X-0.185000X-0.135000X0*%
%TD*%
%TA.AperFunction,SMDPad,CuDef*%
%ADD15RoundRect,0.135000X-0.135000X-0.185000X0.135000X-0.185000X0.135000X0.185000X-0.135000X0.185000X0*%
%TD*%
%TA.AperFunction,SMDPad,CuDef*%
%ADD16RoundRect,0.200000X0.200000X0.275000X-0.200000X0.275000X-0.200000X-0.275000X0.200000X-0.275000X0*%
%TD*%
%TA.AperFunction,SMDPad,CuDef*%
%ADD17R,1.200000X1.200000*%
%TD*%
%TA.AperFunction,SMDPad,CuDef*%
%ADD18R,1.600000X1.500000*%
%TD*%
%TA.AperFunction,SMDPad,CuDef*%
%ADD19RoundRect,0.150000X-0.825000X-0.150000X0.825000X-0.150000X0.825000X0.150000X-0.825000X0.150000X0*%
%TD*%
%TA.AperFunction,ComponentPad*%
%ADD20R,1.930000X1.830000*%
%TD*%
%TA.AperFunction,ComponentPad*%
%ADD21C,2.130000*%
%TD*%
%TA.AperFunction,SMDPad,CuDef*%
%ADD22RoundRect,0.135000X0.135000X0.185000X-0.135000X0.185000X-0.135000X-0.185000X0.135000X-0.185000X0*%
%TD*%
%TA.AperFunction,SMDPad,CuDef*%
%ADD23RoundRect,0.150000X0.825000X0.150000X-0.825000X0.150000X-0.825000X-0.150000X0.825000X-0.150000X0*%
%TD*%
%TA.AperFunction,SMDPad,CuDef*%
%ADD24RoundRect,0.135000X-0.185000X0.135000X-0.185000X-0.135000X0.185000X-0.135000X0.185000X0.135000X0*%
%TD*%
%TA.AperFunction,SMDPad,CuDef*%
%ADD25RoundRect,0.150000X0.150000X-0.850000X0.150000X0.850000X-0.150000X0.850000X-0.150000X-0.850000X0*%
%TD*%
%TA.AperFunction,ViaPad*%
%ADD26C,0.800000*%
%TD*%
%TA.AperFunction,Conductor*%
%ADD27C,0.250000*%
%TD*%
G04 APERTURE END LIST*
D10*
%TO.P,RV4,*%
%TO.N,*%
X34224000Y-42385600D03*
X24624000Y-42385600D03*
D11*
%TO.P,RV4,1,1*%
%TO.N,Net-(J_CV1-PadT)*%
X31924000Y-49885600D03*
D12*
%TO.P,RV4,2,2*%
%TO.N,Net-(U3A-+)*%
X29424000Y-49885600D03*
%TO.P,RV4,3,3*%
%TO.N,GND*%
X26924000Y-49885600D03*
%TD*%
D13*
%TO.P,J1,1,-12v_R*%
%TO.N,-12V*%
X26517600Y-91826400D03*
%TO.P,J1,2,-12v_L*%
X26517600Y-84226400D03*
%TO.P,J1,3,GND*%
%TO.N,GND*%
X29057600Y-91826400D03*
%TO.P,J1,4,GND*%
X29057600Y-84226400D03*
%TO.P,J1,5,GND_R3*%
X31597600Y-91826400D03*
%TO.P,J1,6,GND_L3*%
X31597600Y-84226400D03*
%TO.P,J1,7,GND_R2*%
X34137600Y-91826400D03*
%TO.P,J1,8,GND_L2*%
X34137600Y-84226400D03*
%TO.P,J1,9,+12V_R*%
%TO.N,+12V*%
X36677600Y-91826400D03*
%TO.P,J1,10,+12V_L*%
X36677600Y-84226400D03*
%TO.P,J1,11,+5v_R*%
%TO.N,+5V*%
X39217600Y-91826400D03*
%TO.P,J1,12,+5v_L*%
X39217600Y-84226400D03*
%TO.P,J1,13,CV_R*%
%TO.N,Net-(J1-CV_L)*%
X41757600Y-91826400D03*
%TO.P,J1,14,CV_L*%
X41757600Y-84226400D03*
%TO.P,J1,15,GATE_R*%
%TO.N,Net-(J1-GATE_L)*%
X44297600Y-91826400D03*
%TO.P,J1,16,GATE_L*%
X44297600Y-84226400D03*
%TD*%
D14*
%TO.P,R3,1*%
%TO.N,+12V*%
X31394400Y-66501200D03*
%TO.P,R3,2*%
%TO.N,Net-(U2A-D)*%
X31394400Y-65481200D03*
%TD*%
D15*
%TO.P,R6,1*%
%TO.N,GND*%
X27025600Y-107086400D03*
%TO.P,R6,2*%
%TO.N,Net-(U1B--)*%
X28045600Y-107086400D03*
%TD*%
D16*
%TO.P,R4,1*%
%TO.N,Net-(U2A-+)*%
X48995600Y-128727200D03*
%TO.P,R4,2*%
%TO.N,Net-(J_SIG3-PadT)*%
X47345600Y-128727200D03*
%TD*%
D17*
%TO.P,RV3,1,1*%
%TO.N,Net-(U2B--)*%
X27060400Y-53724400D03*
D18*
%TO.P,RV3,2,2*%
%TO.N,GND*%
X26060400Y-56974400D03*
D17*
%TO.P,RV3,3,3*%
%TO.N,Net-(U2B-+)*%
X25060400Y-53724400D03*
%TD*%
D19*
%TO.P,U3,8,V+*%
%TO.N,+12V*%
X45045400Y-41833800D03*
%TO.P,U3,7*%
%TO.N,Net-(J_OUT2-PadT)*%
X45045400Y-43103800D03*
%TO.P,U3,6,-*%
%TO.N,Net-(U3B--)*%
X45045400Y-44373800D03*
%TO.P,U3,5,+*%
%TO.N,GND*%
X45045400Y-45643800D03*
%TO.P,U3,4,V-*%
%TO.N,-12V*%
X40095400Y-45643800D03*
%TO.P,U3,3,+*%
%TO.N,Net-(U3A-+)*%
X40095400Y-44373800D03*
%TO.P,U3,2,-*%
%TO.N,Net-(U3A--)*%
X40095400Y-43103800D03*
%TO.P,U3,1*%
%TO.N,Net-(R11-Pad2)*%
X40095400Y-41833800D03*
%TD*%
D20*
%TO.P,J_OUT1,S*%
%TO.N,GND*%
X25196800Y-96651600D03*
D21*
%TO.P,J_OUT1,T*%
%TO.N,Net-(J_OUT1-PadT)*%
X25196800Y-108051600D03*
%TO.P,J_OUT1,TN*%
%TO.N,unconnected-(J_OUT1-PadTN)*%
X25196800Y-99751600D03*
%TD*%
D16*
%TO.P,R10,1*%
%TO.N,Net-(U2B-+)*%
X48894000Y-108051600D03*
%TO.P,R10,2*%
%TO.N,Net-(J_SIG1-PadT)*%
X47244000Y-108051600D03*
%TD*%
D15*
%TO.P,R13,1*%
%TO.N,GND*%
X27021600Y-127711200D03*
%TO.P,R13,2*%
%TO.N,Net-(U3B--)*%
X28041600Y-127711200D03*
%TD*%
D21*
%TO.P,J_CV2,TN*%
%TO.N,unconnected-(J_CV2-PadTN)*%
X35229800Y-120408400D03*
%TO.P,J_CV2,T*%
%TO.N,Net-(J_CV2-PadT)*%
X35229800Y-128708400D03*
D20*
%TO.P,J_CV2,S*%
%TO.N,GND*%
X35229800Y-117308400D03*
%TD*%
%TO.P,J_OUT2,S*%
%TO.N,GND*%
X25196800Y-117308400D03*
D21*
%TO.P,J_OUT2,T*%
%TO.N,Net-(J_OUT2-PadT)*%
X25196800Y-128708400D03*
%TO.P,J_OUT2,TN*%
%TO.N,unconnected-(J_OUT2-PadTN)*%
X25196800Y-120408400D03*
%TD*%
D22*
%TO.P,R7,2*%
%TO.N,Net-(J_OUT1-PadT)*%
X27023600Y-108051600D03*
%TO.P,R7,1*%
%TO.N,Net-(U1B--)*%
X28043600Y-108051600D03*
%TD*%
D23*
%TO.P,U1,1*%
%TO.N,Net-(R1-Pad2)*%
X30719800Y-77901800D03*
%TO.P,U1,2,-*%
%TO.N,Net-(U1A--)*%
X30719800Y-76631800D03*
%TO.P,U1,3,+*%
%TO.N,Net-(U1A-+)*%
X30719800Y-75361800D03*
%TO.P,U1,4,V-*%
%TO.N,-12V*%
X30719800Y-74091800D03*
%TO.P,U1,5,+*%
%TO.N,GND*%
X25769800Y-74091800D03*
%TO.P,U1,6,-*%
%TO.N,Net-(U1B--)*%
X25769800Y-75361800D03*
%TO.P,U1,7*%
%TO.N,Net-(J_OUT1-PadT)*%
X25769800Y-76631800D03*
%TO.P,U1,8,V+*%
%TO.N,+12V*%
X25769800Y-77901800D03*
%TD*%
D22*
%TO.P,R14,1*%
%TO.N,Net-(U3B--)*%
X28045600Y-128676400D03*
%TO.P,R14,2*%
%TO.N,Net-(J_OUT2-PadT)*%
X27025600Y-128676400D03*
%TD*%
D14*
%TO.P,R2,1*%
%TO.N,+12V*%
X33426400Y-77927200D03*
%TO.P,R2,2*%
%TO.N,Net-(U1A--)*%
X33426400Y-76907200D03*
%TD*%
D24*
%TO.P,R8,1*%
%TO.N,+12V*%
X37388800Y-41910000D03*
%TO.P,R8,2*%
%TO.N,Net-(U3A--)*%
X37388800Y-42930000D03*
%TD*%
%TO.P,R9,1*%
%TO.N,+12V*%
X31343600Y-56028400D03*
%TO.P,R9,2*%
%TO.N,Net-(U2B-D)*%
X31343600Y-57048400D03*
%TD*%
%TO.P,R1,1*%
%TO.N,Net-(U1A--)*%
X32461200Y-76907200D03*
%TO.P,R1,2*%
%TO.N,Net-(R1-Pad2)*%
X32461200Y-77927200D03*
%TD*%
D25*
%TO.P,U2,16*%
%TO.N,Net-(R12-Pad1)*%
X30099000Y-58764800D03*
%TO.P,U2,15,D*%
%TO.N,Net-(U2B-D)*%
X31369000Y-58764800D03*
%TO.P,U2,14,+*%
%TO.N,Net-(U2B-+)*%
X32639000Y-58764800D03*
%TO.P,U2,13,-*%
%TO.N,Net-(U2B--)*%
X33909000Y-58764800D03*
%TO.P,U2,12*%
%TO.N,Net-(U3B--)*%
X35179000Y-58764800D03*
%TO.P,U2,11,V+*%
%TO.N,+12V*%
X36449000Y-58764800D03*
%TO.P,U2,10*%
%TO.N,unconnected-(U2-Pad10)*%
X37719000Y-58764800D03*
%TO.P,U2,9*%
%TO.N,unconnected-(U2-Pad9)*%
X38989000Y-58764800D03*
%TO.P,U2,8*%
%TO.N,unconnected-(U2-Pad8)*%
X38989000Y-63764800D03*
%TO.P,U2,7*%
%TO.N,unconnected-(U2-Pad7)*%
X37719000Y-63764800D03*
%TO.P,U2,6,V-*%
%TO.N,-12V*%
X36449000Y-63764800D03*
%TO.P,U2,5*%
%TO.N,Net-(U1B--)*%
X35179000Y-63764800D03*
%TO.P,U2,4,-*%
%TO.N,Net-(U2A--)*%
X33909000Y-63764800D03*
%TO.P,U2,3,+*%
%TO.N,Net-(U2A-+)*%
X32639000Y-63764800D03*
%TO.P,U2,2,D*%
%TO.N,Net-(U2A-D)*%
X31369000Y-63764800D03*
%TO.P,U2,1*%
%TO.N,Net-(R5-Pad1)*%
X30099000Y-63764800D03*
%TD*%
D14*
%TO.P,R5,1*%
%TO.N,Net-(R5-Pad1)*%
X32461200Y-79808800D03*
%TO.P,R5,2*%
%TO.N,Net-(R1-Pad2)*%
X32461200Y-78788800D03*
%TD*%
D20*
%TO.P,J_SIG3,S*%
%TO.N,GND*%
X45262800Y-117308400D03*
D21*
%TO.P,J_SIG3,T*%
%TO.N,Net-(J_SIG3-PadT)*%
X45262800Y-128708400D03*
%TO.P,J_SIG3,TN*%
%TO.N,unconnected-(J_SIG3-PadTN)*%
X45262800Y-120408400D03*
%TD*%
%TO.P,J_CV1,TN*%
%TO.N,unconnected-(J_CV1-PadTN)*%
X35229800Y-99751600D03*
%TO.P,J_CV1,T*%
%TO.N,Net-(J_CV1-PadT)*%
X35229800Y-108051600D03*
D20*
%TO.P,J_CV1,S*%
%TO.N,GND*%
X35229800Y-96651600D03*
%TD*%
D14*
%TO.P,R11,1*%
%TO.N,Net-(U3A--)*%
X38354000Y-42930000D03*
%TO.P,R11,2*%
%TO.N,Net-(R11-Pad2)*%
X38354000Y-41910000D03*
%TD*%
D10*
%TO.P,RV1,*%
%TO.N,*%
X36144800Y-79026400D03*
X45744800Y-79026400D03*
D11*
%TO.P,RV1,1,1*%
%TO.N,Net-(J_CV2-PadT)*%
X38444800Y-71526400D03*
D12*
%TO.P,RV1,2,2*%
%TO.N,Net-(U1A-+)*%
X40944800Y-71526400D03*
%TO.P,RV1,3,3*%
%TO.N,GND*%
X43444800Y-71526400D03*
%TD*%
D24*
%TO.P,R12,1*%
%TO.N,Net-(R12-Pad1)*%
X38354000Y-40028400D03*
%TO.P,R12,2*%
%TO.N,Net-(R11-Pad2)*%
X38354000Y-41048400D03*
%TD*%
D20*
%TO.P,J_SIG1,S*%
%TO.N,GND*%
X45262800Y-96651600D03*
D21*
%TO.P,J_SIG1,T*%
%TO.N,Net-(J_SIG1-PadT)*%
X45262800Y-108051600D03*
%TO.P,J_SIG1,TN*%
%TO.N,unconnected-(J_SIG1-PadTN)*%
X45262800Y-99751600D03*
%TD*%
D17*
%TO.P,RV2,3,3*%
%TO.N,Net-(U2A-+)*%
X25060400Y-66147200D03*
D18*
%TO.P,RV2,2,2*%
%TO.N,GND*%
X26060400Y-69397200D03*
D17*
%TO.P,RV2,1,1*%
%TO.N,Net-(U2A--)*%
X27060400Y-66147200D03*
%TD*%
D26*
%TO.N,GND*%
X32918400Y-95351600D03*
X32816800Y-80975200D03*
X32867600Y-87934800D03*
X30276800Y-95351600D03*
X30276800Y-80975200D03*
X30022800Y-88087200D03*
X35356800Y-87985600D03*
X25958800Y-71932800D03*
X26060400Y-58877200D03*
%TO.N,Net-(U3A-+)*%
X37233500Y-45253500D03*
%TO.N,Net-(U1A-+)*%
X32400100Y-75067700D03*
%TO.N,Net-(U1B--)*%
X33636200Y-72126400D03*
X34883100Y-71322300D03*
%TO.N,Net-(R5-Pad1)*%
X32974500Y-69744800D03*
X33491700Y-79268500D03*
%TO.N,Net-(J_OUT2-PadT)*%
X42227100Y-44093100D03*
%TO.N,-12V*%
X32760200Y-73929500D03*
X36263500Y-72053700D03*
%TD*%
D27*
%TO.N,Net-(J_CV2-PadT)*%
X40052600Y-73134200D02*
X38444800Y-71526400D01*
X39420800Y-94943444D02*
X40052600Y-94311644D01*
X39420800Y-124517400D02*
X39420800Y-94943444D01*
X40052600Y-94311644D02*
X40052600Y-73134200D01*
X35229800Y-128708400D02*
X39420800Y-124517400D01*
%TO.N,Net-(U3B--)*%
X35511000Y-73889200D02*
X37856400Y-76234600D01*
X28752800Y-108313900D02*
X28752800Y-126999800D01*
X35511000Y-71780700D02*
X35511000Y-73889200D01*
X37856400Y-99210300D02*
X28752800Y-108313900D01*
X35814000Y-71477700D02*
X35511000Y-71780700D01*
X37856400Y-76234600D02*
X37856400Y-99210300D01*
X35814000Y-60161700D02*
X35814000Y-71477700D01*
X28752800Y-126999800D02*
X28041600Y-127711000D01*
%TO.N,Net-(U2B-+)*%
X33836600Y-39432700D02*
X44354600Y-39432700D01*
X44354600Y-39432700D02*
X48894000Y-43972100D01*
X25311000Y-60109000D02*
X23682700Y-58480700D01*
X23682700Y-49586600D02*
X33836600Y-39432700D01*
X30471800Y-60109000D02*
X25311000Y-60109000D01*
X23682700Y-58480700D02*
X23682700Y-49586600D01*
X48894000Y-43972100D02*
X48894000Y-108051600D01*
X30734000Y-59846800D02*
X30471800Y-60109000D01*
%TO.N,Net-(U3A-+)*%
X38113200Y-44373800D02*
X37233500Y-45253500D01*
X40095400Y-44373800D02*
X38113200Y-44373800D01*
%TO.N,Net-(U2B--)*%
X30027500Y-53724400D02*
X27060400Y-53724400D01*
X33909000Y-57605900D02*
X30027500Y-53724400D01*
X33909000Y-58764800D02*
X33909000Y-57605900D01*
%TO.N,Net-(U2A--)*%
X33909000Y-65711500D02*
X33909000Y-63764800D01*
X32019200Y-67601300D02*
X33909000Y-65711500D01*
X29439600Y-67601300D02*
X32019200Y-67601300D01*
X27985500Y-66147200D02*
X29439600Y-67601300D01*
X27060400Y-66147200D02*
X27985500Y-66147200D01*
%TO.N,Net-(U1A-+)*%
X32106000Y-75361800D02*
X32400100Y-75067700D01*
X30719800Y-75361800D02*
X32106000Y-75361800D01*
%TO.N,Net-(U3B--)*%
X28045600Y-128676000D02*
X28045600Y-128676400D01*
X28045600Y-127715000D02*
X28041600Y-127711000D01*
X28045600Y-128676000D02*
X28045600Y-127715000D01*
X44401200Y-45018000D02*
X45045400Y-44373800D01*
X39073300Y-45018000D02*
X44401200Y-45018000D01*
X37084000Y-47007300D02*
X39073300Y-45018000D01*
X37084000Y-59868300D02*
X37084000Y-47007300D01*
X36790600Y-60161700D02*
X37084000Y-59868300D01*
X35814000Y-60161700D02*
X36790600Y-60161700D01*
X35179000Y-59526700D02*
X35814000Y-60161700D01*
X35179000Y-58764800D02*
X35179000Y-59526700D01*
X28041600Y-127711000D02*
X28041600Y-127711200D01*
%TO.N,Net-(R12-Pad1)*%
X33877600Y-40028400D02*
X38354000Y-40028400D01*
X24135200Y-49770800D02*
X33877600Y-40028400D01*
X24135200Y-54474800D02*
X24135200Y-49770800D01*
X24935000Y-55274600D02*
X24135200Y-54474800D01*
X26608800Y-55274600D02*
X24935000Y-55274600D01*
X30099000Y-58764800D02*
X26608800Y-55274600D01*
%TO.N,Net-(R11-Pad2)*%
X38354000Y-41910000D02*
X38354000Y-41048400D01*
X40019200Y-41910000D02*
X40095400Y-41833800D01*
X38354000Y-41910000D02*
X40019200Y-41910000D01*
%TO.N,Net-(U2B-+)*%
X25060400Y-53724400D02*
X25985500Y-53724400D01*
X31041700Y-60154500D02*
X30734000Y-59846800D01*
X31656900Y-60154500D02*
X31041700Y-60154500D01*
X32639000Y-59172400D02*
X31656900Y-60154500D01*
X32639000Y-58764800D02*
X32639000Y-59172400D01*
X25985500Y-54331600D02*
X25985500Y-53724400D01*
X26303400Y-54649500D02*
X25985500Y-54331600D01*
X27676600Y-54649500D02*
X26303400Y-54649500D01*
X30734000Y-57706900D02*
X27676600Y-54649500D01*
X30734000Y-59846800D02*
X30734000Y-57706900D01*
%TO.N,Net-(U2B-D)*%
X31369000Y-57073800D02*
X31343600Y-57048400D01*
X31369000Y-58764800D02*
X31369000Y-57073800D01*
%TO.N,Net-(U3A--)*%
X39921600Y-42930000D02*
X40095400Y-43103800D01*
X38354000Y-42930000D02*
X39921600Y-42930000D01*
X38354000Y-42930000D02*
X37388800Y-42930000D01*
%TO.N,Net-(U1B--)*%
X28043600Y-107088000D02*
X28045600Y-107086000D01*
X28043600Y-108051600D02*
X28043600Y-107088000D01*
X28045600Y-107086000D02*
X28045600Y-107086400D01*
X28043600Y-108052000D02*
X28043600Y-108051600D01*
X25390900Y-75361800D02*
X25769800Y-75361800D01*
X23291600Y-77461100D02*
X25390900Y-75361800D01*
X23291600Y-108177500D02*
X23291600Y-77461100D01*
X24594000Y-109479900D02*
X23291600Y-108177500D01*
X26615700Y-109479900D02*
X24594000Y-109479900D01*
X28043600Y-108052000D02*
X26615700Y-109479900D01*
X29383000Y-72126400D02*
X33636200Y-72126400D01*
X26147600Y-75361800D02*
X29383000Y-72126400D01*
X25769800Y-75361800D02*
X26147600Y-75361800D01*
X35179000Y-71026400D02*
X35179000Y-63764800D01*
X34883100Y-71322300D02*
X35179000Y-71026400D01*
%TO.N,Net-(R5-Pad1)*%
X29342600Y-69744800D02*
X32974500Y-69744800D01*
X26670200Y-67072400D02*
X29342600Y-69744800D01*
X24240500Y-67072400D02*
X26670200Y-67072400D01*
X24135200Y-66967100D02*
X24240500Y-67072400D01*
X24135200Y-65388000D02*
X24135200Y-66967100D01*
X25758400Y-63764800D02*
X24135200Y-65388000D01*
X30099000Y-63764800D02*
X25758400Y-63764800D01*
X32951400Y-79808800D02*
X32461200Y-79808800D01*
X33491700Y-79268500D02*
X32951400Y-79808800D01*
%TO.N,Net-(U2A-+)*%
X25060400Y-66147200D02*
X25985500Y-66147200D01*
X30734000Y-64823300D02*
X29712700Y-65844600D01*
X30734000Y-62718200D02*
X30734000Y-64823300D01*
X30431000Y-62415200D02*
X30734000Y-62718200D01*
X26471400Y-62415200D02*
X30431000Y-62415200D01*
X22839700Y-66046900D02*
X26471400Y-62415200D01*
X22839700Y-128346700D02*
X22839700Y-66046900D01*
X24614300Y-130121300D02*
X22839700Y-128346700D01*
X47601500Y-130121300D02*
X24614300Y-130121300D01*
X48995600Y-128727200D02*
X47601500Y-130121300D01*
X29090100Y-65222000D02*
X29712700Y-65844600D01*
X26303600Y-65222000D02*
X29090100Y-65222000D01*
X25985500Y-65540100D02*
X26303600Y-65222000D01*
X25985500Y-66147200D02*
X25985500Y-65540100D01*
X32639000Y-66329200D02*
X32639000Y-63764800D01*
X31860400Y-67107800D02*
X32639000Y-66329200D01*
X30975900Y-67107800D02*
X31860400Y-67107800D01*
X29712700Y-65844600D02*
X30975900Y-67107800D01*
%TO.N,Net-(U2A-D)*%
X31394400Y-63790200D02*
X31369000Y-63764800D01*
X31394400Y-65481200D02*
X31394400Y-63790200D01*
%TO.N,Net-(R1-Pad2)*%
X32461200Y-77927200D02*
X32461200Y-78788800D01*
X32435800Y-77901800D02*
X32461200Y-77927200D01*
X30719800Y-77901800D02*
X32435800Y-77901800D01*
%TO.N,Net-(U1A--)*%
X32461200Y-76907200D02*
X33426400Y-76907200D01*
X32185800Y-76631800D02*
X32461200Y-76907200D01*
X30719800Y-76631800D02*
X32185800Y-76631800D01*
%TO.N,Net-(J_SIG3-PadT)*%
X47326800Y-128708000D02*
X47345600Y-128727000D01*
X45262800Y-128708000D02*
X47326800Y-128708000D01*
X47345600Y-128727000D02*
X47345600Y-128727200D01*
X45262800Y-128708400D02*
X45262800Y-128708000D01*
%TO.N,Net-(J_SIG1-PadT)*%
X45262800Y-108052000D02*
X45263200Y-108052000D01*
X45263200Y-108052000D02*
X45262800Y-108051600D01*
X45263200Y-108052000D02*
X47243600Y-108052000D01*
X47243600Y-108052000D02*
X47244000Y-108052000D01*
X47243600Y-108052000D02*
X47244000Y-108051600D01*
%TO.N,Net-(J_OUT2-PadT)*%
X27009600Y-128692000D02*
X27025600Y-128676000D01*
X27010000Y-128692000D02*
X27025600Y-128676400D01*
X27009600Y-128692000D02*
X27010000Y-128692000D01*
X25196800Y-128708000D02*
X25197200Y-128708000D01*
X26993600Y-128708000D02*
X27009600Y-128692000D01*
X25197200Y-128708000D02*
X26993600Y-128708000D01*
X25197200Y-128708000D02*
X25196800Y-128708400D01*
X43216400Y-43103800D02*
X45045400Y-43103800D01*
X42227100Y-44093100D02*
X43216400Y-43103800D01*
%TO.N,Net-(J_OUT1-PadT)*%
X27023200Y-108052000D02*
X27023600Y-108052000D01*
X27023200Y-108052000D02*
X27023600Y-108051600D01*
X25196800Y-108052000D02*
X25197200Y-108052000D01*
X25197200Y-108052000D02*
X27023200Y-108052000D01*
X25197200Y-108052000D02*
X25196800Y-108051600D01*
X25390200Y-76631800D02*
X25769800Y-76631800D01*
X23792900Y-78229100D02*
X25390200Y-76631800D01*
X23792900Y-106647700D02*
X23792900Y-78229100D01*
X25196800Y-108051600D02*
X23792900Y-106647700D01*
%TO.N,Net-(J1-GATE_L)*%
X44297600Y-91826400D02*
X44297600Y-84226400D01*
%TO.N,Net-(J1-CV_L)*%
X41757600Y-84226400D02*
X41757600Y-91826400D01*
%TO.N,+5V*%
X39217600Y-91826400D02*
X39217600Y-84226400D01*
%TO.N,+12V*%
X36677600Y-84226400D02*
X36677600Y-91826400D01*
X33426400Y-77927200D02*
X34115700Y-77927200D01*
X34216800Y-78028300D02*
X34115700Y-77927200D01*
X34216800Y-79771100D02*
X34216800Y-78028300D01*
X36677600Y-82231900D02*
X34216800Y-79771100D01*
X36677600Y-84226400D02*
X36677600Y-82231900D01*
X34115700Y-73873400D02*
X34115700Y-77927200D01*
X33515200Y-73272900D02*
X34115700Y-73873400D01*
X26219900Y-77901800D02*
X25769800Y-77901800D01*
X27314000Y-76807700D02*
X26219900Y-77901800D01*
X27314000Y-75823400D02*
X27314000Y-76807700D01*
X29933000Y-73204400D02*
X27314000Y-75823400D01*
X33446700Y-73204400D02*
X29933000Y-73204400D01*
X33515200Y-73272900D02*
X33446700Y-73204400D01*
X32301200Y-62379200D02*
X34226500Y-62379200D01*
X32004000Y-62676400D02*
X32301200Y-62379200D01*
X32004000Y-65042500D02*
X32004000Y-62676400D01*
X32059200Y-65097700D02*
X32004000Y-65042500D01*
X32059200Y-65836400D02*
X32059200Y-65097700D01*
X31394400Y-66501200D02*
X32059200Y-65836400D01*
X34387200Y-72400900D02*
X33515200Y-73272900D01*
X34387200Y-71851800D02*
X34387200Y-72400900D01*
X34158000Y-71622600D02*
X34387200Y-71851800D01*
X34158000Y-71022000D02*
X34158000Y-71622600D01*
X34544000Y-70636000D02*
X34158000Y-71022000D01*
X34544000Y-62696700D02*
X34544000Y-70636000D01*
X34226500Y-62379200D02*
X34544000Y-62696700D01*
X34226500Y-62379200D02*
X34226500Y-60147100D01*
X31607000Y-56028400D02*
X31343600Y-56028400D01*
X33274000Y-57695400D02*
X31607000Y-56028400D01*
X33274000Y-59807300D02*
X33274000Y-57695400D01*
X33613800Y-60147100D02*
X33274000Y-59807300D01*
X34226500Y-60147100D02*
X33613800Y-60147100D01*
X36742700Y-42556100D02*
X36742700Y-43738800D01*
X37388800Y-41910000D02*
X36742700Y-42556100D01*
X43036500Y-41833800D02*
X45045400Y-41833800D01*
X41131500Y-43738800D02*
X43036500Y-41833800D01*
X36742700Y-43738800D02*
X41131500Y-43738800D01*
X35550500Y-44931000D02*
X36742700Y-43738800D01*
X35550500Y-57423800D02*
X35550500Y-44931000D01*
X34820600Y-57423800D02*
X35550500Y-57423800D01*
X34543900Y-57700500D02*
X34820600Y-57423800D01*
X34543900Y-59829700D02*
X34543900Y-57700500D01*
X34226500Y-60147100D02*
X34543900Y-59829700D01*
X36449000Y-58322300D02*
X36449000Y-58764800D01*
X35550500Y-57423800D02*
X36449000Y-58322300D01*
%TO.N,-12V*%
X26517600Y-91826400D02*
X26517600Y-84226400D01*
X30341900Y-74091800D02*
X30719800Y-74091800D01*
X27764200Y-76669500D02*
X30341900Y-74091800D01*
X27764200Y-82979800D02*
X27764200Y-76669500D01*
X26517600Y-84226400D02*
X27764200Y-82979800D01*
X32597900Y-74091800D02*
X32760200Y-73929500D01*
X30719800Y-74091800D02*
X32597900Y-74091800D01*
X36449000Y-71868200D02*
X36449000Y-63764800D01*
X36263500Y-72053700D02*
X36449000Y-71868200D01*
X40095400Y-59514200D02*
X40095400Y-45643800D01*
X36449000Y-63160600D02*
X40095400Y-59514200D01*
X36449000Y-63764800D02*
X36449000Y-63160600D01*
%TO.N,GND*%
X34137600Y-84226400D02*
X34137600Y-91826400D01*
X31597600Y-91826400D02*
X34137600Y-91826400D01*
X31597600Y-84226400D02*
X31597600Y-91826400D01*
X29057600Y-84226400D02*
X29057600Y-91826400D01*
X34137600Y-91826400D02*
X31597600Y-91826400D01*
X31597600Y-91826400D02*
X29057600Y-91826400D01*
X29057600Y-84226400D02*
X31597600Y-84226400D01*
X31597600Y-84226400D02*
X34137600Y-84226400D01*
%TD*%
%TA.AperFunction,Conductor*%
%TO.N,GND*%
G36*
X38644901Y-94762024D02*
G01*
X38707754Y-94782851D01*
X38756769Y-94813214D01*
X38786754Y-94862465D01*
X38791224Y-94919952D01*
X38790640Y-94923639D01*
X38794750Y-94967119D01*
X38795300Y-94978788D01*
X38795300Y-124206948D01*
X38785861Y-124254401D01*
X38758981Y-124294629D01*
X35861067Y-127192540D01*
X35820839Y-127219420D01*
X35773386Y-127228859D01*
X35725933Y-127219420D01*
X35715061Y-127214916D01*
X35475456Y-127157393D01*
X35229800Y-127138059D01*
X34984143Y-127157393D01*
X34744538Y-127214916D01*
X34516878Y-127309217D01*
X34306778Y-127437966D01*
X34119401Y-127598001D01*
X33959366Y-127785378D01*
X33830618Y-127995476D01*
X33830616Y-127995480D01*
X33829216Y-127998861D01*
X33736316Y-128223138D01*
X33678793Y-128462743D01*
X33659459Y-128708400D01*
X33678793Y-128954056D01*
X33736317Y-129193664D01*
X33790448Y-129324348D01*
X33799290Y-129383954D01*
X33778989Y-129440691D01*
X33734340Y-129481158D01*
X33675887Y-129495800D01*
X28744295Y-129495800D01*
X28688000Y-129482285D01*
X28643977Y-129444685D01*
X28621822Y-129391198D01*
X28626364Y-129333482D01*
X28656614Y-129284119D01*
X28656614Y-129284118D01*
X28686735Y-129253998D01*
X28768469Y-129115793D01*
X28813265Y-128961604D01*
X28816100Y-128925581D01*
X28816099Y-128427220D01*
X28813265Y-128391196D01*
X28780276Y-128277646D01*
X28764099Y-128221964D01*
X28766376Y-128221302D01*
X28759979Y-128202637D01*
X28763922Y-128152475D01*
X28774124Y-128117360D01*
X28809265Y-127996404D01*
X28812100Y-127960381D01*
X28812099Y-127876450D01*
X28821538Y-127828999D01*
X28848415Y-127788773D01*
X29136586Y-127500602D01*
X29152687Y-127487704D01*
X29154674Y-127485587D01*
X29154677Y-127485586D01*
X29200732Y-127436541D01*
X29203413Y-127433776D01*
X29211193Y-127425996D01*
X29222920Y-127414270D01*
X29225381Y-127411095D01*
X29232952Y-127402231D01*
X29262862Y-127370382D01*
X29272513Y-127352826D01*
X29283193Y-127336567D01*
X29295474Y-127320736D01*
X29312818Y-127280651D01*
X29317960Y-127270156D01*
X29338997Y-127231892D01*
X29343978Y-127212488D01*
X29350280Y-127194083D01*
X29358238Y-127175695D01*
X29365070Y-127132548D01*
X29367439Y-127121116D01*
X29378300Y-127078820D01*
X29378300Y-127058784D01*
X29379827Y-127039385D01*
X29382960Y-127019604D01*
X29378850Y-126976125D01*
X29378300Y-126964456D01*
X29378300Y-120408400D01*
X33659459Y-120408400D01*
X33678793Y-120654056D01*
X33736316Y-120893661D01*
X33783466Y-121007491D01*
X33830616Y-121121320D01*
X33959367Y-121331423D01*
X34119401Y-121518799D01*
X34306777Y-121678833D01*
X34516880Y-121807584D01*
X34744538Y-121901883D01*
X34984145Y-121959407D01*
X35229800Y-121978741D01*
X35475455Y-121959407D01*
X35715062Y-121901883D01*
X35942720Y-121807584D01*
X36152823Y-121678833D01*
X36340199Y-121518799D01*
X36500233Y-121331423D01*
X36628984Y-121121320D01*
X36723283Y-120893662D01*
X36780807Y-120654055D01*
X36800141Y-120408400D01*
X36780807Y-120162745D01*
X36723283Y-119923138D01*
X36628984Y-119695480D01*
X36500233Y-119485377D01*
X36340199Y-119298001D01*
X36152823Y-119137967D01*
X35942720Y-119009216D01*
X35828635Y-118961960D01*
X35775771Y-118920285D01*
X35752471Y-118857129D01*
X35765604Y-118791105D01*
X35811299Y-118741673D01*
X35876089Y-118723400D01*
X36242624Y-118723400D01*
X36302175Y-118716997D01*
X36436889Y-118666752D01*
X36551988Y-118580588D01*
X36638152Y-118465489D01*
X36688397Y-118330775D01*
X36694800Y-118271224D01*
X36694800Y-117558400D01*
X33764800Y-117558400D01*
X33764800Y-118271224D01*
X33771202Y-118330775D01*
X33821447Y-118465489D01*
X33907611Y-118580588D01*
X34022710Y-118666752D01*
X34157424Y-118716997D01*
X34216976Y-118723400D01*
X34583511Y-118723400D01*
X34648301Y-118741673D01*
X34693996Y-118791105D01*
X34707129Y-118857129D01*
X34683829Y-118920285D01*
X34630964Y-118961961D01*
X34516878Y-119009217D01*
X34306778Y-119137966D01*
X34119401Y-119298001D01*
X33959366Y-119485378D01*
X33830617Y-119695478D01*
X33736316Y-119923138D01*
X33678793Y-120162743D01*
X33659459Y-120408400D01*
X29378300Y-120408400D01*
X29378300Y-117058400D01*
X33764800Y-117058400D01*
X34979800Y-117058400D01*
X34979800Y-115893400D01*
X35479800Y-115893400D01*
X35479800Y-117058400D01*
X36694800Y-117058400D01*
X36694800Y-116345576D01*
X36688397Y-116286024D01*
X36638152Y-116151310D01*
X36551988Y-116036211D01*
X36436889Y-115950047D01*
X36302175Y-115899802D01*
X36242624Y-115893400D01*
X35479800Y-115893400D01*
X34979800Y-115893400D01*
X34216976Y-115893400D01*
X34157424Y-115899802D01*
X34022710Y-115950047D01*
X33907611Y-116036211D01*
X33821447Y-116151310D01*
X33771202Y-116286024D01*
X33764800Y-116345576D01*
X33764800Y-117058400D01*
X29378300Y-117058400D01*
X29378300Y-108624352D01*
X29387739Y-108576899D01*
X29414619Y-108536671D01*
X29899690Y-108051600D01*
X33659459Y-108051600D01*
X33678793Y-108297256D01*
X33736316Y-108536861D01*
X33781843Y-108646772D01*
X33830616Y-108764520D01*
X33959367Y-108974623D01*
X34119401Y-109161999D01*
X34306777Y-109322033D01*
X34516880Y-109450784D01*
X34744538Y-109545083D01*
X34984145Y-109602607D01*
X35229800Y-109621941D01*
X35475455Y-109602607D01*
X35715062Y-109545083D01*
X35942720Y-109450784D01*
X36152823Y-109322033D01*
X36340199Y-109161999D01*
X36500233Y-108974623D01*
X36628984Y-108764520D01*
X36723283Y-108536862D01*
X36780807Y-108297255D01*
X36800141Y-108051600D01*
X36780807Y-107805945D01*
X36723283Y-107566338D01*
X36628984Y-107338680D01*
X36500233Y-107128577D01*
X36340199Y-106941201D01*
X36152823Y-106781167D01*
X35942720Y-106652416D01*
X35802481Y-106594327D01*
X35715061Y-106558116D01*
X35475456Y-106500593D01*
X35229800Y-106481259D01*
X34984143Y-106500593D01*
X34744538Y-106558116D01*
X34550218Y-106638606D01*
X34529939Y-106647007D01*
X34516878Y-106652417D01*
X34306778Y-106781166D01*
X34119401Y-106941201D01*
X33959366Y-107128578D01*
X33830617Y-107338678D01*
X33736316Y-107566338D01*
X33678793Y-107805943D01*
X33659459Y-108051600D01*
X29899690Y-108051600D01*
X31614043Y-106337247D01*
X38240186Y-99711102D01*
X38256287Y-99698204D01*
X38258274Y-99696087D01*
X38258277Y-99696086D01*
X38304332Y-99647041D01*
X38307013Y-99644276D01*
X38326520Y-99624770D01*
X38328981Y-99621595D01*
X38336552Y-99612731D01*
X38366462Y-99580882D01*
X38376113Y-99563326D01*
X38386793Y-99547067D01*
X38399074Y-99531236D01*
X38416418Y-99491151D01*
X38421560Y-99480656D01*
X38442597Y-99442392D01*
X38447578Y-99422988D01*
X38453880Y-99404583D01*
X38461838Y-99386195D01*
X38468670Y-99343048D01*
X38471039Y-99331616D01*
X38481900Y-99289320D01*
X38481900Y-99269284D01*
X38483427Y-99249885D01*
X38486560Y-99230104D01*
X38482450Y-99186625D01*
X38481900Y-99174956D01*
X38481900Y-94879731D01*
X38495497Y-94823276D01*
X38533306Y-94779202D01*
X38587035Y-94757174D01*
X38644901Y-94762024D01*
G37*
%TD.AperFunction*%
%TA.AperFunction,Conductor*%
G36*
X28076185Y-109051933D02*
G01*
X28113785Y-109095956D01*
X28127300Y-109152251D01*
X28127300Y-126689347D01*
X28117861Y-126736800D01*
X28090980Y-126777029D01*
X28013625Y-126854382D01*
X27973398Y-126881261D01*
X27925946Y-126890700D01*
X27842421Y-126890700D01*
X27806394Y-126893535D01*
X27652207Y-126938330D01*
X27594227Y-126972619D01*
X27531107Y-126989886D01*
X27467987Y-126972618D01*
X27410795Y-126938795D01*
X27271599Y-126898355D01*
X27271600Y-126898356D01*
X27271600Y-127450792D01*
X27271218Y-127460518D01*
X27271100Y-127462018D01*
X27271100Y-127731900D01*
X27254487Y-127793900D01*
X27209100Y-127839287D01*
X27147100Y-127855900D01*
X27014071Y-127855900D01*
X26895599Y-127855900D01*
X26833600Y-127839288D01*
X26788213Y-127793901D01*
X26771600Y-127731901D01*
X26771600Y-126898355D01*
X26632404Y-126938795D01*
X26494309Y-127020464D01*
X26380864Y-127133909D01*
X26299193Y-127272007D01*
X26276486Y-127350166D01*
X26248795Y-127399383D01*
X26202150Y-127431217D01*
X26146225Y-127439065D01*
X26092620Y-127421297D01*
X25966934Y-127344277D01*
X25909720Y-127309216D01*
X25769481Y-127251127D01*
X25682061Y-127214916D01*
X25442456Y-127157393D01*
X25196800Y-127138059D01*
X24951143Y-127157393D01*
X24711538Y-127214916D01*
X24483878Y-127309217D01*
X24273778Y-127437966D01*
X24086401Y-127598001D01*
X23926366Y-127785378D01*
X23816737Y-127964278D01*
X23797616Y-127995480D01*
X23796216Y-127998861D01*
X23744287Y-128124227D01*
X23708390Y-128172627D01*
X23653917Y-128198390D01*
X23593730Y-128195434D01*
X23542045Y-128164454D01*
X23501519Y-128123928D01*
X23474639Y-128083700D01*
X23465200Y-128036247D01*
X23465200Y-120942187D01*
X23483473Y-120877397D01*
X23532905Y-120831702D01*
X23598929Y-120818569D01*
X23662085Y-120841869D01*
X23703761Y-120894734D01*
X23797616Y-121121320D01*
X23926367Y-121331423D01*
X24086401Y-121518799D01*
X24273777Y-121678833D01*
X24483880Y-121807584D01*
X24711538Y-121901883D01*
X24951145Y-121959407D01*
X25196800Y-121978741D01*
X25442455Y-121959407D01*
X25682062Y-121901883D01*
X25909720Y-121807584D01*
X26119823Y-121678833D01*
X26307199Y-121518799D01*
X26467233Y-121331423D01*
X26595984Y-121121320D01*
X26690283Y-120893662D01*
X26747807Y-120654055D01*
X26767141Y-120408400D01*
X26747807Y-120162745D01*
X26690283Y-119923138D01*
X26595984Y-119695480D01*
X26467233Y-119485377D01*
X26307199Y-119298001D01*
X26119823Y-119137967D01*
X25909720Y-119009216D01*
X25795635Y-118961960D01*
X25742771Y-118920285D01*
X25719471Y-118857129D01*
X25732604Y-118791105D01*
X25778299Y-118741673D01*
X25843089Y-118723400D01*
X26209624Y-118723400D01*
X26269175Y-118716997D01*
X26403889Y-118666752D01*
X26518988Y-118580588D01*
X26605152Y-118465489D01*
X26655397Y-118330775D01*
X26661800Y-118271224D01*
X26661800Y-117558400D01*
X23731800Y-117558400D01*
X23731800Y-118271224D01*
X23738202Y-118330775D01*
X23788447Y-118465489D01*
X23874611Y-118580588D01*
X23989710Y-118666752D01*
X24124424Y-118716997D01*
X24183976Y-118723400D01*
X24550511Y-118723400D01*
X24615301Y-118741673D01*
X24660996Y-118791105D01*
X24674129Y-118857129D01*
X24650829Y-118920285D01*
X24597964Y-118961961D01*
X24483878Y-119009217D01*
X24273778Y-119137966D01*
X24086401Y-119298001D01*
X23926366Y-119485378D01*
X23797617Y-119695478D01*
X23703761Y-119922066D01*
X23662085Y-119974931D01*
X23598929Y-119998231D01*
X23532905Y-119985098D01*
X23483473Y-119939403D01*
X23465200Y-119874613D01*
X23465200Y-117058400D01*
X23731800Y-117058400D01*
X24946800Y-117058400D01*
X24946800Y-115893400D01*
X25446800Y-115893400D01*
X25446800Y-117058400D01*
X26661800Y-117058400D01*
X26661800Y-116345576D01*
X26655397Y-116286024D01*
X26605152Y-116151310D01*
X26518988Y-116036211D01*
X26403889Y-115950047D01*
X26269175Y-115899802D01*
X26209624Y-115893400D01*
X25446800Y-115893400D01*
X24946800Y-115893400D01*
X24183976Y-115893400D01*
X24124424Y-115899802D01*
X23989710Y-115950047D01*
X23874611Y-116036211D01*
X23788447Y-116151310D01*
X23738202Y-116286024D01*
X23731800Y-116345576D01*
X23731800Y-117058400D01*
X23465200Y-117058400D01*
X23465200Y-109535052D01*
X23478715Y-109478757D01*
X23516315Y-109434734D01*
X23569802Y-109412579D01*
X23627518Y-109417121D01*
X23676881Y-109447371D01*
X24093197Y-109863687D01*
X24106098Y-109879789D01*
X24108212Y-109881774D01*
X24108214Y-109881777D01*
X24155561Y-109926239D01*
X24157240Y-109927816D01*
X24160035Y-109930525D01*
X24179530Y-109950020D01*
X24182704Y-109952482D01*
X24191568Y-109960053D01*
X24223418Y-109989962D01*
X24233914Y-109995732D01*
X24240974Y-109999614D01*
X24257231Y-110010292D01*
X24273064Y-110022574D01*
X24289185Y-110029549D01*
X24313156Y-110039923D01*
X24323643Y-110045060D01*
X24361908Y-110066097D01*
X24381316Y-110071080D01*
X24399710Y-110077378D01*
X24418105Y-110085338D01*
X24461254Y-110092171D01*
X24472680Y-110094538D01*
X24488222Y-110098529D01*
X24514980Y-110105400D01*
X24514981Y-110105400D01*
X24535016Y-110105400D01*
X24554413Y-110106926D01*
X24574196Y-110110060D01*
X24617674Y-110105950D01*
X24629344Y-110105400D01*
X26532956Y-110105400D01*
X26553462Y-110107664D01*
X26556365Y-110107572D01*
X26556367Y-110107573D01*
X26623572Y-110105461D01*
X26627468Y-110105400D01*
X26655049Y-110105400D01*
X26655050Y-110105400D01*
X26659019Y-110104898D01*
X26670665Y-110103980D01*
X26714327Y-110102609D01*
X26733559Y-110097020D01*
X26752618Y-110093074D01*
X26759791Y-110092168D01*
X26772492Y-110090564D01*
X26813107Y-110074482D01*
X26824144Y-110070703D01*
X26866090Y-110058518D01*
X26883329Y-110048322D01*
X26900802Y-110039762D01*
X26919432Y-110032386D01*
X26954764Y-110006714D01*
X26964530Y-110000300D01*
X27002118Y-109978071D01*
X27002117Y-109978071D01*
X27002120Y-109978070D01*
X27016285Y-109963904D01*
X27031073Y-109951273D01*
X27047287Y-109939494D01*
X27075138Y-109905826D01*
X27082979Y-109897209D01*
X27915619Y-109064569D01*
X27964982Y-109034320D01*
X28022698Y-109029778D01*
X28076185Y-109051933D01*
G37*
%TD.AperFunction*%
%TA.AperFunction,Conductor*%
G36*
X29201064Y-76273341D02*
G01*
X29237336Y-76320867D01*
X29247153Y-76379842D01*
X29244300Y-76416105D01*
X29244300Y-76847492D01*
X29247202Y-76884372D01*
X29293055Y-77042197D01*
X29384693Y-77197148D01*
X29383119Y-77198078D01*
X29404267Y-77234706D01*
X29404267Y-77298894D01*
X29383119Y-77335521D01*
X29384693Y-77336452D01*
X29293055Y-77491402D01*
X29247202Y-77649227D01*
X29244300Y-77686108D01*
X29244300Y-78117492D01*
X29247202Y-78154372D01*
X29293055Y-78312197D01*
X29350900Y-78410007D01*
X29376719Y-78453665D01*
X29492935Y-78569881D01*
X29630684Y-78651345D01*
X29634402Y-78653544D01*
X29792227Y-78699397D01*
X29792231Y-78699398D01*
X29829106Y-78702300D01*
X29829108Y-78702300D01*
X31516700Y-78702300D01*
X31578700Y-78718913D01*
X31624087Y-78764300D01*
X31640700Y-78826299D01*
X31640700Y-78987978D01*
X31643535Y-79024005D01*
X31688330Y-79178192D01*
X31722327Y-79235678D01*
X31739595Y-79298798D01*
X31722328Y-79361918D01*
X31688330Y-79419406D01*
X31643535Y-79573593D01*
X31640700Y-79609621D01*
X31640700Y-80007979D01*
X31643535Y-80044005D01*
X31688330Y-80198192D01*
X31744288Y-80292812D01*
X31770065Y-80336398D01*
X31883602Y-80449935D01*
X32021807Y-80531669D01*
X32175996Y-80576465D01*
X32212019Y-80579300D01*
X32710380Y-80579299D01*
X32746404Y-80576465D01*
X32900593Y-80531669D01*
X33038798Y-80449935D01*
X33038799Y-80449933D01*
X33050792Y-80442841D01*
X33066749Y-80431438D01*
X33105769Y-80419770D01*
X33105765Y-80419770D01*
X33108192Y-80419464D01*
X33148807Y-80403382D01*
X33159844Y-80399603D01*
X33201790Y-80387418D01*
X33219029Y-80377222D01*
X33236502Y-80368662D01*
X33255132Y-80361286D01*
X33290464Y-80335614D01*
X33300230Y-80329200D01*
X33337818Y-80306971D01*
X33337817Y-80306971D01*
X33337820Y-80306970D01*
X33351985Y-80292804D01*
X33366773Y-80280173D01*
X33382987Y-80268394D01*
X33410833Y-80234732D01*
X33418687Y-80226102D01*
X33439473Y-80205317D01*
X33479701Y-80178438D01*
X33527152Y-80169000D01*
X33586344Y-80169000D01*
X33586346Y-80169000D01*
X33634385Y-80158788D01*
X33681692Y-80157962D01*
X33725870Y-80174919D01*
X33745050Y-80192805D01*
X33745136Y-80192702D01*
X33790858Y-80230526D01*
X33799499Y-80238389D01*
X34580257Y-81019147D01*
X34611263Y-81070919D01*
X34614158Y-81131195D01*
X34588258Y-81185701D01*
X34539696Y-81221526D01*
X34479975Y-81230186D01*
X34442913Y-81226400D01*
X34387600Y-81226400D01*
X34387600Y-83976400D01*
X35147599Y-83976400D01*
X35147599Y-81931092D01*
X35143812Y-81894025D01*
X35152471Y-81834303D01*
X35188296Y-81785741D01*
X35242802Y-81759840D01*
X35303079Y-81762735D01*
X35354851Y-81793741D01*
X35630781Y-82069671D01*
X35657661Y-82109899D01*
X35667100Y-82157352D01*
X35667100Y-86521742D01*
X35677670Y-86625214D01*
X35733223Y-86792864D01*
X35825937Y-86943175D01*
X35825939Y-86943177D01*
X35825940Y-86943178D01*
X35950822Y-87068060D01*
X35993198Y-87094198D01*
X36036378Y-87139305D01*
X36052100Y-87199736D01*
X36052100Y-88853064D01*
X36036378Y-88913495D01*
X35993198Y-88958602D01*
X35950823Y-88984739D01*
X35825937Y-89109624D01*
X35733223Y-89259935D01*
X35677670Y-89427585D01*
X35667100Y-89531058D01*
X35667100Y-94121742D01*
X35677670Y-94225214D01*
X35733223Y-94392864D01*
X35825939Y-94543178D01*
X35950821Y-94668060D01*
X36101135Y-94760776D01*
X36101137Y-94760776D01*
X36101138Y-94760777D01*
X36268785Y-94816329D01*
X36372258Y-94826900D01*
X36982942Y-94826900D01*
X37094298Y-94815524D01*
X37161474Y-94827537D01*
X37212122Y-94873274D01*
X37230900Y-94938882D01*
X37230900Y-98899848D01*
X37221461Y-98947301D01*
X37194583Y-98987526D01*
X36975800Y-99206308D01*
X36910885Y-99271224D01*
X36859199Y-99302203D01*
X36799013Y-99305159D01*
X36744539Y-99279395D01*
X36708643Y-99230995D01*
X36628984Y-99038680D01*
X36500233Y-98828577D01*
X36340199Y-98641201D01*
X36152823Y-98481167D01*
X35942720Y-98352416D01*
X35828635Y-98305160D01*
X35775771Y-98263485D01*
X35752471Y-98200329D01*
X35765604Y-98134305D01*
X35811299Y-98084873D01*
X35876089Y-98066600D01*
X36242624Y-98066600D01*
X36302175Y-98060197D01*
X36436889Y-98009952D01*
X36551988Y-97923788D01*
X36638152Y-97808689D01*
X36688397Y-97673975D01*
X36694800Y-97614424D01*
X36694800Y-96901600D01*
X33764800Y-96901600D01*
X33764800Y-97614424D01*
X33771202Y-97673975D01*
X33821447Y-97808689D01*
X33907611Y-97923788D01*
X34022710Y-98009952D01*
X34157424Y-98060197D01*
X34216976Y-98066600D01*
X34583511Y-98066600D01*
X34648301Y-98084873D01*
X34693996Y-98134305D01*
X34707129Y-98200329D01*
X34683829Y-98263485D01*
X34630964Y-98305161D01*
X34516878Y-98352417D01*
X34306778Y-98481166D01*
X34119401Y-98641201D01*
X33959366Y-98828578D01*
X33830617Y-99038678D01*
X33736316Y-99266338D01*
X33678793Y-99505943D01*
X33659459Y-99751600D01*
X33678793Y-99997256D01*
X33736316Y-100236861D01*
X33783466Y-100350691D01*
X33830616Y-100464520D01*
X33959367Y-100674623D01*
X34119401Y-100861999D01*
X34306777Y-101022033D01*
X34516880Y-101150784D01*
X34709196Y-101230444D01*
X34757595Y-101266339D01*
X34783359Y-101320813D01*
X34780403Y-101380999D01*
X34749423Y-101432685D01*
X29027780Y-107154327D01*
X28978417Y-107184577D01*
X28920701Y-107189119D01*
X28867214Y-107166964D01*
X28829614Y-107122941D01*
X28816099Y-107066646D01*
X28816099Y-106837221D01*
X28815981Y-106835718D01*
X28813265Y-106801196D01*
X28768469Y-106647007D01*
X28686735Y-106508802D01*
X28573198Y-106395265D01*
X28492971Y-106347819D01*
X28434992Y-106313530D01*
X28280806Y-106268735D01*
X28266394Y-106267601D01*
X28244781Y-106265900D01*
X28244778Y-106265900D01*
X27846420Y-106265900D01*
X27810394Y-106268735D01*
X27656207Y-106313530D01*
X27598227Y-106347819D01*
X27535107Y-106365086D01*
X27471987Y-106347818D01*
X27414795Y-106313995D01*
X27275599Y-106273555D01*
X27275600Y-106273556D01*
X27275600Y-106825992D01*
X27275218Y-106835718D01*
X27275100Y-106837218D01*
X27275100Y-107107100D01*
X27258487Y-107169100D01*
X27213100Y-107214487D01*
X27151100Y-107231100D01*
X27028346Y-107231100D01*
X26899599Y-107231100D01*
X26837600Y-107214488D01*
X26792213Y-107169101D01*
X26775600Y-107107101D01*
X26775600Y-106273555D01*
X26636404Y-106313995D01*
X26498309Y-106395664D01*
X26384864Y-106509109D01*
X26303193Y-106647207D01*
X26287773Y-106700283D01*
X26260082Y-106749501D01*
X26213437Y-106781335D01*
X26157512Y-106789182D01*
X26103908Y-106771414D01*
X25909720Y-106652416D01*
X25769481Y-106594327D01*
X25682061Y-106558116D01*
X25442456Y-106500593D01*
X25196800Y-106481259D01*
X24951143Y-106500593D01*
X24711538Y-106558116D01*
X24700661Y-106562622D01*
X24653209Y-106572059D01*
X24605758Y-106562620D01*
X24565531Y-106535740D01*
X24454719Y-106424928D01*
X24427839Y-106384700D01*
X24418400Y-106337247D01*
X24418400Y-101309241D01*
X24433042Y-101250788D01*
X24473509Y-101206139D01*
X24530246Y-101185838D01*
X24589852Y-101194680D01*
X24711535Y-101245082D01*
X24711536Y-101245082D01*
X24711538Y-101245083D01*
X24951145Y-101302607D01*
X25196800Y-101321941D01*
X25442455Y-101302607D01*
X25682062Y-101245083D01*
X25909720Y-101150784D01*
X26119823Y-101022033D01*
X26307199Y-100861999D01*
X26467233Y-100674623D01*
X26595984Y-100464520D01*
X26690283Y-100236862D01*
X26747807Y-99997255D01*
X26767141Y-99751600D01*
X26747807Y-99505945D01*
X26690283Y-99266338D01*
X26595984Y-99038680D01*
X26467233Y-98828577D01*
X26307199Y-98641201D01*
X26119823Y-98481167D01*
X25909720Y-98352416D01*
X25795635Y-98305160D01*
X25742771Y-98263485D01*
X25719471Y-98200329D01*
X25732604Y-98134305D01*
X25778299Y-98084873D01*
X25843089Y-98066600D01*
X26209624Y-98066600D01*
X26269175Y-98060197D01*
X26403889Y-98009952D01*
X26518988Y-97923788D01*
X26605152Y-97808689D01*
X26655397Y-97673975D01*
X26661800Y-97614424D01*
X26661800Y-96901600D01*
X25070800Y-96901600D01*
X25008800Y-96884987D01*
X24963413Y-96839600D01*
X24946800Y-96777600D01*
X24946800Y-95236600D01*
X25446800Y-95236600D01*
X25446800Y-96401600D01*
X26661800Y-96401600D01*
X33764800Y-96401600D01*
X34979800Y-96401600D01*
X34979800Y-95236600D01*
X35479800Y-95236600D01*
X35479800Y-96401600D01*
X36694800Y-96401600D01*
X36694800Y-95688776D01*
X36688397Y-95629224D01*
X36638152Y-95494510D01*
X36551988Y-95379411D01*
X36436889Y-95293247D01*
X36302175Y-95243002D01*
X36242624Y-95236600D01*
X35479800Y-95236600D01*
X34979800Y-95236600D01*
X34216976Y-95236600D01*
X34157424Y-95243002D01*
X34022710Y-95293247D01*
X33907611Y-95379411D01*
X33821447Y-95494510D01*
X33771202Y-95629224D01*
X33764800Y-95688776D01*
X33764800Y-96401600D01*
X26661800Y-96401600D01*
X26661800Y-95688776D01*
X26655397Y-95629224D01*
X26605152Y-95494510D01*
X26518988Y-95379411D01*
X26403889Y-95293247D01*
X26269175Y-95243002D01*
X26209624Y-95236600D01*
X25446800Y-95236600D01*
X24946800Y-95236600D01*
X24542400Y-95236600D01*
X24480400Y-95219987D01*
X24435013Y-95174600D01*
X24418400Y-95112600D01*
X24418400Y-78713626D01*
X24435176Y-78651345D01*
X24480963Y-78605916D01*
X24543374Y-78589630D01*
X24605521Y-78606894D01*
X24684402Y-78653544D01*
X24842227Y-78699397D01*
X24842231Y-78699398D01*
X24879106Y-78702300D01*
X26660492Y-78702300D01*
X26660494Y-78702300D01*
X26697369Y-78699398D01*
X26855198Y-78653544D01*
X26935733Y-78605916D01*
X26951579Y-78596545D01*
X27013726Y-78579281D01*
X27076137Y-78595567D01*
X27121925Y-78640996D01*
X27138700Y-78703277D01*
X27138700Y-81135095D01*
X27125103Y-81191551D01*
X27087293Y-81235625D01*
X27033563Y-81257652D01*
X26975696Y-81252801D01*
X26926414Y-81236470D01*
X26822942Y-81225900D01*
X26212258Y-81225900D01*
X26108785Y-81236470D01*
X25941135Y-81292023D01*
X25790821Y-81384739D01*
X25665939Y-81509621D01*
X25573223Y-81659935D01*
X25517670Y-81827585D01*
X25507100Y-81931058D01*
X25507100Y-86521742D01*
X25517670Y-86625214D01*
X25573223Y-86792864D01*
X25665937Y-86943175D01*
X25665939Y-86943177D01*
X25665940Y-86943178D01*
X25790822Y-87068060D01*
X25833198Y-87094198D01*
X25876378Y-87139305D01*
X25892100Y-87199736D01*
X25892100Y-88853064D01*
X25876378Y-88913495D01*
X25833198Y-88958602D01*
X25790823Y-88984739D01*
X25665937Y-89109624D01*
X25573223Y-89259935D01*
X25517670Y-89427585D01*
X25507100Y-89531058D01*
X25507100Y-94121742D01*
X25517670Y-94225214D01*
X25573223Y-94392864D01*
X25665939Y-94543178D01*
X25790821Y-94668060D01*
X25941135Y-94760776D01*
X25941137Y-94760776D01*
X25941138Y-94760777D01*
X26108785Y-94816329D01*
X26212258Y-94826900D01*
X26822942Y-94826900D01*
X26926415Y-94816329D01*
X27094062Y-94760777D01*
X27094802Y-94760321D01*
X27244378Y-94668060D01*
X27369260Y-94543178D01*
X27461976Y-94392864D01*
X27462706Y-94390663D01*
X27517529Y-94225215D01*
X27528100Y-94121742D01*
X27528100Y-92076400D01*
X28047601Y-92076400D01*
X28047601Y-94121711D01*
X28058163Y-94225113D01*
X28113678Y-94392647D01*
X28206335Y-94542868D01*
X28331131Y-94667664D01*
X28481352Y-94760321D01*
X28648885Y-94815836D01*
X28752289Y-94826400D01*
X28807600Y-94826400D01*
X28807600Y-92076400D01*
X29307600Y-92076400D01*
X29307600Y-94826399D01*
X29362911Y-94826399D01*
X29466313Y-94815836D01*
X29633847Y-94760321D01*
X29784068Y-94667664D01*
X29908864Y-94542868D01*
X30001521Y-94392647D01*
X30057036Y-94225114D01*
X30067600Y-94121711D01*
X30067600Y-92076400D01*
X30587601Y-92076400D01*
X30587601Y-94121711D01*
X30598163Y-94225113D01*
X30653678Y-94392647D01*
X30746335Y-94542868D01*
X30871131Y-94667664D01*
X31021352Y-94760321D01*
X31188885Y-94815836D01*
X31292289Y-94826400D01*
X31347600Y-94826400D01*
X31347600Y-92076400D01*
X31847600Y-92076400D01*
X31847600Y-94826399D01*
X31902911Y-94826399D01*
X32006313Y-94815836D01*
X32173847Y-94760321D01*
X32324068Y-94667664D01*
X32448864Y-94542868D01*
X32541521Y-94392647D01*
X32597036Y-94225114D01*
X32607600Y-94121711D01*
X32607600Y-92076400D01*
X33127601Y-92076400D01*
X33127601Y-94121711D01*
X33138163Y-94225113D01*
X33193678Y-94392647D01*
X33286335Y-94542868D01*
X33411131Y-94667664D01*
X33561352Y-94760321D01*
X33728885Y-94815836D01*
X33832289Y-94826400D01*
X33887600Y-94826400D01*
X33887600Y-92076400D01*
X34387600Y-92076400D01*
X34387600Y-94826399D01*
X34442911Y-94826399D01*
X34546313Y-94815836D01*
X34713847Y-94760321D01*
X34864068Y-94667664D01*
X34988864Y-94542868D01*
X35081521Y-94392647D01*
X35137036Y-94225114D01*
X35147600Y-94121711D01*
X35147600Y-92076400D01*
X34387600Y-92076400D01*
X33887600Y-92076400D01*
X33127601Y-92076400D01*
X32607600Y-92076400D01*
X31847600Y-92076400D01*
X31347600Y-92076400D01*
X30587601Y-92076400D01*
X30067600Y-92076400D01*
X29307600Y-92076400D01*
X28807600Y-92076400D01*
X28047601Y-92076400D01*
X27528100Y-92076400D01*
X27528100Y-91576400D01*
X28047600Y-91576400D01*
X28807600Y-91576400D01*
X28807600Y-88826401D01*
X28752289Y-88826401D01*
X28648886Y-88836963D01*
X28481352Y-88892478D01*
X28331131Y-88985135D01*
X28206335Y-89109931D01*
X28113678Y-89260152D01*
X28058163Y-89427685D01*
X28047600Y-89531089D01*
X28047600Y-91576400D01*
X27528100Y-91576400D01*
X27528100Y-89531058D01*
X27517529Y-89427585D01*
X27461977Y-89259938D01*
X27461976Y-89259937D01*
X27461976Y-89259935D01*
X27369262Y-89109624D01*
X27362784Y-89103146D01*
X27244378Y-88984740D01*
X27202001Y-88958601D01*
X27158822Y-88913495D01*
X27143100Y-88853064D01*
X27143100Y-88826400D01*
X29307600Y-88826400D01*
X29307600Y-91576400D01*
X30067599Y-91576400D01*
X30587600Y-91576400D01*
X31347600Y-91576400D01*
X31347600Y-88826401D01*
X31292289Y-88826401D01*
X31188886Y-88836963D01*
X31021352Y-88892478D01*
X30871131Y-88985135D01*
X30746335Y-89109931D01*
X30653678Y-89260152D01*
X30598163Y-89427685D01*
X30587600Y-89531089D01*
X30587600Y-91576400D01*
X30067599Y-91576400D01*
X30067599Y-89531089D01*
X30057036Y-89427686D01*
X30001521Y-89260152D01*
X29908864Y-89109931D01*
X29784068Y-88985135D01*
X29633847Y-88892478D01*
X29466314Y-88836963D01*
X29362911Y-88826400D01*
X31847600Y-88826400D01*
X31847600Y-91576400D01*
X32607599Y-91576400D01*
X33127600Y-91576400D01*
X33887600Y-91576400D01*
X33887600Y-88826401D01*
X33832289Y-88826401D01*
X33728886Y-88836963D01*
X33561352Y-88892478D01*
X33411131Y-88985135D01*
X33286335Y-89109931D01*
X33193678Y-89260152D01*
X33138163Y-89427685D01*
X33127600Y-89531089D01*
X33127600Y-91576400D01*
X32607599Y-91576400D01*
X32607599Y-89531089D01*
X32597036Y-89427686D01*
X32541521Y-89260152D01*
X32448864Y-89109931D01*
X32324068Y-88985135D01*
X32173847Y-88892478D01*
X32006314Y-88836963D01*
X31902911Y-88826400D01*
X34387600Y-88826400D01*
X34387600Y-91576400D01*
X35147599Y-91576400D01*
X35147599Y-89531089D01*
X35137036Y-89427686D01*
X35081521Y-89260152D01*
X34988864Y-89109931D01*
X34864068Y-88985135D01*
X34713847Y-88892478D01*
X34546314Y-88836963D01*
X34442911Y-88826400D01*
X34387600Y-88826400D01*
X31902911Y-88826400D01*
X31847600Y-88826400D01*
X29362911Y-88826400D01*
X29307600Y-88826400D01*
X27143100Y-88826400D01*
X27143100Y-87199736D01*
X27158822Y-87139305D01*
X27202002Y-87094198D01*
X27244378Y-87068060D01*
X27369260Y-86943178D01*
X27461977Y-86792862D01*
X27517529Y-86625215D01*
X27528100Y-86521742D01*
X27528100Y-84476400D01*
X28047601Y-84476400D01*
X28047601Y-86521711D01*
X28058163Y-86625113D01*
X28113678Y-86792647D01*
X28206335Y-86942868D01*
X28331131Y-87067664D01*
X28481352Y-87160321D01*
X28648885Y-87215836D01*
X28752289Y-87226400D01*
X28807600Y-87226400D01*
X28807600Y-84476400D01*
X29307600Y-84476400D01*
X29307600Y-87226399D01*
X29362911Y-87226399D01*
X29466313Y-87215836D01*
X29633847Y-87160321D01*
X29784068Y-87067664D01*
X29908864Y-86942868D01*
X30001521Y-86792647D01*
X30057036Y-86625114D01*
X30067600Y-86521711D01*
X30067600Y-84476400D01*
X30587601Y-84476400D01*
X30587601Y-86521711D01*
X30598163Y-86625113D01*
X30653678Y-86792647D01*
X30746335Y-86942868D01*
X30871131Y-87067664D01*
X31021352Y-87160321D01*
X31188885Y-87215836D01*
X31292289Y-87226400D01*
X31347600Y-87226400D01*
X31347600Y-84476400D01*
X31847600Y-84476400D01*
X31847600Y-87226399D01*
X31902911Y-87226399D01*
X32006313Y-87215836D01*
X32173847Y-87160321D01*
X32324068Y-87067664D01*
X32448864Y-86942868D01*
X32541521Y-86792647D01*
X32597036Y-86625114D01*
X32607600Y-86521711D01*
X32607600Y-84476400D01*
X33127601Y-84476400D01*
X33127601Y-86521711D01*
X33138163Y-86625113D01*
X33193678Y-86792647D01*
X33286335Y-86942868D01*
X33411131Y-87067664D01*
X33561352Y-87160321D01*
X33728885Y-87215836D01*
X33832289Y-87226400D01*
X33887600Y-87226400D01*
X33887600Y-84476400D01*
X34387600Y-84476400D01*
X34387600Y-87226399D01*
X34442911Y-87226399D01*
X34546313Y-87215836D01*
X34713847Y-87160321D01*
X34864068Y-87067664D01*
X34988864Y-86942868D01*
X35081521Y-86792647D01*
X35137036Y-86625114D01*
X35147600Y-86521711D01*
X35147600Y-84476400D01*
X34387600Y-84476400D01*
X33887600Y-84476400D01*
X33127601Y-84476400D01*
X32607600Y-84476400D01*
X31847600Y-84476400D01*
X31347600Y-84476400D01*
X30587601Y-84476400D01*
X30067600Y-84476400D01*
X29307600Y-84476400D01*
X28807600Y-84476400D01*
X28047601Y-84476400D01*
X27528100Y-84476400D01*
X27528100Y-84151852D01*
X27537539Y-84104399D01*
X27564419Y-84064171D01*
X27652190Y-83976400D01*
X27835920Y-83792669D01*
X27885282Y-83762420D01*
X27942998Y-83757878D01*
X27996485Y-83780033D01*
X28034085Y-83824056D01*
X28047600Y-83880351D01*
X28047600Y-83976400D01*
X28807600Y-83976400D01*
X28807600Y-81226401D01*
X28752289Y-81226401D01*
X28648884Y-81236963D01*
X28552703Y-81268835D01*
X28494837Y-81273686D01*
X28441107Y-81251659D01*
X28419438Y-81226400D01*
X29307600Y-81226400D01*
X29307600Y-83976400D01*
X30067599Y-83976400D01*
X30587600Y-83976400D01*
X31347600Y-83976400D01*
X31347600Y-81226401D01*
X31292289Y-81226401D01*
X31188886Y-81236963D01*
X31021352Y-81292478D01*
X30871131Y-81385135D01*
X30746335Y-81509931D01*
X30653678Y-81660152D01*
X30598163Y-81827685D01*
X30587600Y-81931089D01*
X30587600Y-83976400D01*
X30067599Y-83976400D01*
X30067599Y-81931089D01*
X30057036Y-81827686D01*
X30001521Y-81660152D01*
X29908864Y-81509931D01*
X29784068Y-81385135D01*
X29633847Y-81292478D01*
X29466314Y-81236963D01*
X29362911Y-81226400D01*
X31847600Y-81226400D01*
X31847600Y-83976400D01*
X32607599Y-83976400D01*
X33127600Y-83976400D01*
X33887600Y-83976400D01*
X33887600Y-81226401D01*
X33832289Y-81226401D01*
X33728886Y-81236963D01*
X33561352Y-81292478D01*
X33411131Y-81385135D01*
X33286335Y-81509931D01*
X33193678Y-81660152D01*
X33138163Y-81827685D01*
X33127600Y-81931089D01*
X33127600Y-83976400D01*
X32607599Y-83976400D01*
X32607599Y-81931089D01*
X32597036Y-81827686D01*
X32541521Y-81660152D01*
X32448864Y-81509931D01*
X32324068Y-81385135D01*
X32173847Y-81292478D01*
X32006314Y-81236963D01*
X31902911Y-81226400D01*
X31847600Y-81226400D01*
X29362911Y-81226400D01*
X29307600Y-81226400D01*
X28419438Y-81226400D01*
X28403297Y-81207584D01*
X28389700Y-81151129D01*
X28389700Y-76979952D01*
X28399139Y-76932499D01*
X28426019Y-76892271D01*
X28470798Y-76847492D01*
X29035856Y-76282433D01*
X29087073Y-76251598D01*
X29146769Y-76248312D01*
X29201064Y-76273341D01*
G37*
%TD.AperFunction*%
%TA.AperFunction,Conductor*%
G36*
X23668241Y-67392593D02*
G01*
X23675603Y-67398684D01*
X23675606Y-67398687D01*
X23709269Y-67426535D01*
X23717899Y-67434389D01*
X23739697Y-67456187D01*
X23752598Y-67472289D01*
X23754712Y-67474274D01*
X23754714Y-67474277D01*
X23802061Y-67518739D01*
X23803740Y-67520316D01*
X23806535Y-67523025D01*
X23826030Y-67542520D01*
X23829204Y-67544982D01*
X23838068Y-67552553D01*
X23869918Y-67582462D01*
X23880414Y-67588232D01*
X23887474Y-67592114D01*
X23903731Y-67602792D01*
X23919564Y-67615074D01*
X23935685Y-67622049D01*
X23959656Y-67632423D01*
X23970143Y-67637560D01*
X24008408Y-67658597D01*
X24027816Y-67663580D01*
X24046210Y-67669878D01*
X24064605Y-67677838D01*
X24107754Y-67684671D01*
X24119180Y-67687038D01*
X24134722Y-67691029D01*
X24161480Y-67697900D01*
X24161481Y-67697900D01*
X24181516Y-67697900D01*
X24200913Y-67699426D01*
X24220696Y-67702560D01*
X24264174Y-67698450D01*
X24275844Y-67697900D01*
X26359748Y-67697900D01*
X26407201Y-67707339D01*
X26447429Y-67734219D01*
X26648729Y-67935519D01*
X26678979Y-67984882D01*
X26683521Y-68042598D01*
X26661366Y-68096085D01*
X26617343Y-68133685D01*
X26561048Y-68147200D01*
X26310400Y-68147200D01*
X26310400Y-69147200D01*
X27360400Y-69147200D01*
X27360400Y-68946552D01*
X27373915Y-68890257D01*
X27411515Y-68846234D01*
X27465002Y-68824079D01*
X27522718Y-68828621D01*
X27572079Y-68858870D01*
X28269753Y-69556544D01*
X28841796Y-70128587D01*
X28854696Y-70144688D01*
X28905823Y-70192700D01*
X28908619Y-70195410D01*
X28928129Y-70214920D01*
X28931311Y-70217388D01*
X28940171Y-70224955D01*
X28971712Y-70254575D01*
X28972018Y-70254862D01*
X28989570Y-70264511D01*
X29005838Y-70275197D01*
X29021664Y-70287473D01*
X29061746Y-70304817D01*
X29072233Y-70309955D01*
X29110507Y-70330997D01*
X29119010Y-70333179D01*
X29129908Y-70335978D01*
X29148313Y-70342278D01*
X29166704Y-70350237D01*
X29209850Y-70357070D01*
X29221268Y-70359435D01*
X29263581Y-70370300D01*
X29283616Y-70370300D01*
X29303015Y-70371827D01*
X29322796Y-70374960D01*
X29366274Y-70370850D01*
X29377944Y-70370300D01*
X32270753Y-70370300D01*
X32321188Y-70381020D01*
X32362901Y-70411326D01*
X32368629Y-70417688D01*
X32521770Y-70528951D01*
X32521771Y-70528951D01*
X32521772Y-70528952D01*
X32694697Y-70605944D01*
X32879852Y-70645300D01*
X32879854Y-70645300D01*
X33069146Y-70645300D01*
X33069148Y-70645300D01*
X33192583Y-70619062D01*
X33254303Y-70605944D01*
X33427230Y-70528951D01*
X33458024Y-70506577D01*
X33520013Y-70483374D01*
X33585107Y-70495365D01*
X33634759Y-70539133D01*
X33654822Y-70602209D01*
X33639579Y-70666620D01*
X33638294Y-70668958D01*
X33627609Y-70685228D01*
X33615326Y-70701063D01*
X33597975Y-70741158D01*
X33592838Y-70751644D01*
X33571802Y-70789907D01*
X33566821Y-70809309D01*
X33560520Y-70827711D01*
X33552561Y-70846102D01*
X33545728Y-70889242D01*
X33543360Y-70900674D01*
X33532500Y-70942978D01*
X33532500Y-70963016D01*
X33530973Y-70982415D01*
X33527840Y-71002194D01*
X33531950Y-71045675D01*
X33532500Y-71057344D01*
X33532500Y-71127411D01*
X33519950Y-71181769D01*
X33484842Y-71225125D01*
X33434281Y-71248701D01*
X33356396Y-71265255D01*
X33183472Y-71342247D01*
X33081375Y-71416424D01*
X33030329Y-71453512D01*
X33024601Y-71459873D01*
X32982888Y-71490180D01*
X32932453Y-71500900D01*
X29465744Y-71500900D01*
X29445236Y-71498635D01*
X29375113Y-71500839D01*
X29371219Y-71500900D01*
X29343650Y-71500900D01*
X29339671Y-71501402D01*
X29328041Y-71502317D01*
X29284372Y-71503689D01*
X29265128Y-71509280D01*
X29246084Y-71513224D01*
X29226208Y-71515735D01*
X29185600Y-71531813D01*
X29174554Y-71535594D01*
X29132610Y-71547782D01*
X29132607Y-71547783D01*
X29115365Y-71557979D01*
X29097904Y-71566533D01*
X29079267Y-71573912D01*
X29043931Y-71599585D01*
X29034174Y-71605995D01*
X28996580Y-71628229D01*
X28982413Y-71642396D01*
X28967624Y-71655026D01*
X28951413Y-71666804D01*
X28923572Y-71700458D01*
X28915711Y-71709097D01*
X27186205Y-73438603D01*
X27130618Y-73470697D01*
X27066430Y-73470697D01*
X27010843Y-73438603D01*
X26996357Y-73424117D01*
X26854997Y-73340517D01*
X26697293Y-73294700D01*
X26660439Y-73291800D01*
X26019800Y-73291800D01*
X26019800Y-74217800D01*
X26003187Y-74279800D01*
X25957800Y-74325187D01*
X25895800Y-74341800D01*
X24297504Y-74341800D01*
X24297700Y-74344288D01*
X24343519Y-74502000D01*
X24435091Y-74656840D01*
X24433503Y-74657778D01*
X24454617Y-74694347D01*
X24454622Y-74758528D01*
X24433231Y-74795587D01*
X24434693Y-74796452D01*
X24343055Y-74951402D01*
X24297202Y-75109227D01*
X24294300Y-75146108D01*
X24294300Y-75522448D01*
X24284861Y-75569901D01*
X24257981Y-75610129D01*
X23676881Y-76191228D01*
X23627518Y-76221478D01*
X23569802Y-76226020D01*
X23516315Y-76203865D01*
X23478715Y-76159842D01*
X23465200Y-76103547D01*
X23465200Y-73841799D01*
X24297504Y-73841799D01*
X24297505Y-73841800D01*
X25519800Y-73841800D01*
X25519800Y-73291800D01*
X24879161Y-73291800D01*
X24842306Y-73294700D01*
X24684602Y-73340517D01*
X24543242Y-73424117D01*
X24427117Y-73540242D01*
X24343519Y-73681599D01*
X24297700Y-73839311D01*
X24297504Y-73841799D01*
X23465200Y-73841799D01*
X23465200Y-69647200D01*
X24760400Y-69647200D01*
X24760400Y-70195024D01*
X24766802Y-70254575D01*
X24817047Y-70389289D01*
X24903211Y-70504388D01*
X25018310Y-70590552D01*
X25153024Y-70640797D01*
X25212576Y-70647200D01*
X25810400Y-70647200D01*
X25810400Y-69647200D01*
X26310400Y-69647200D01*
X26310400Y-70647200D01*
X26908224Y-70647200D01*
X26967775Y-70640797D01*
X27102489Y-70590552D01*
X27217588Y-70504388D01*
X27303752Y-70389289D01*
X27353997Y-70254575D01*
X27360400Y-70195024D01*
X27360400Y-69647200D01*
X26310400Y-69647200D01*
X25810400Y-69647200D01*
X24760400Y-69647200D01*
X23465200Y-69647200D01*
X23465200Y-69147200D01*
X24760400Y-69147200D01*
X25810400Y-69147200D01*
X25810400Y-68147200D01*
X25212576Y-68147200D01*
X25153024Y-68153602D01*
X25018310Y-68203847D01*
X24903211Y-68290011D01*
X24817047Y-68405110D01*
X24766802Y-68539824D01*
X24760400Y-68599376D01*
X24760400Y-69147200D01*
X23465200Y-69147200D01*
X23465200Y-67488137D01*
X23484503Y-67421694D01*
X23536403Y-67375938D01*
X23604741Y-67365115D01*
X23668241Y-67392593D01*
G37*
%TD.AperFunction*%
%TA.AperFunction,Conductor*%
G36*
X24470518Y-55713822D02*
G01*
X24513966Y-55740447D01*
X24514363Y-55739936D01*
X24518995Y-55743529D01*
X24519881Y-55744072D01*
X24520529Y-55744720D01*
X24523711Y-55747188D01*
X24532571Y-55754755D01*
X24564418Y-55784662D01*
X24579942Y-55793196D01*
X24581972Y-55794312D01*
X24598236Y-55804996D01*
X24609972Y-55814099D01*
X24614064Y-55817273D01*
X24638909Y-55828024D01*
X24654152Y-55834621D01*
X24664631Y-55839754D01*
X24702908Y-55860797D01*
X24714915Y-55863879D01*
X24773901Y-55898499D01*
X24805561Y-55959126D01*
X24800260Y-56027317D01*
X24766802Y-56117022D01*
X24760400Y-56176576D01*
X24760400Y-56724400D01*
X26186400Y-56724400D01*
X26248400Y-56741013D01*
X26293787Y-56786400D01*
X26310400Y-56848400D01*
X26310400Y-58224400D01*
X26908224Y-58224400D01*
X26967775Y-58217997D01*
X27102489Y-58167752D01*
X27217588Y-58081588D01*
X27303752Y-57966489D01*
X27353997Y-57831775D01*
X27360400Y-57772224D01*
X27360400Y-57210152D01*
X27373915Y-57153857D01*
X27411515Y-57109834D01*
X27465002Y-57087679D01*
X27522718Y-57092221D01*
X27572079Y-57122470D01*
X28531197Y-58081588D01*
X29262181Y-58812572D01*
X29289061Y-58852800D01*
X29298500Y-58900253D01*
X29298500Y-59359500D01*
X29281887Y-59421500D01*
X29236500Y-59466887D01*
X29174500Y-59483500D01*
X25621452Y-59483500D01*
X25573999Y-59474061D01*
X25533771Y-59447181D01*
X24344519Y-58257928D01*
X24317639Y-58217700D01*
X24308200Y-58170247D01*
X24308200Y-57224400D01*
X24760400Y-57224400D01*
X24760400Y-57772224D01*
X24766802Y-57831775D01*
X24817047Y-57966489D01*
X24903211Y-58081588D01*
X25018310Y-58167752D01*
X25153024Y-58217997D01*
X25212576Y-58224400D01*
X25810400Y-58224400D01*
X25810400Y-57224400D01*
X24760400Y-57224400D01*
X24308200Y-57224400D01*
X24308200Y-55831753D01*
X24321715Y-55775458D01*
X24359315Y-55731435D01*
X24412802Y-55709280D01*
X24470518Y-55713822D01*
G37*
%TD.AperFunction*%
%TA.AperFunction,Conductor*%
G36*
X32283304Y-42609667D02*
G01*
X32339241Y-42651451D01*
X32363736Y-42716833D01*
X32378402Y-42917218D01*
X32437616Y-43183038D01*
X32489806Y-43319494D01*
X32534907Y-43437414D01*
X32668196Y-43674910D01*
X32742313Y-43770894D01*
X32834645Y-43890469D01*
X33030704Y-44079494D01*
X33252199Y-44237959D01*
X33338935Y-44282553D01*
X33494403Y-44362485D01*
X33752159Y-44450419D01*
X33752161Y-44450419D01*
X33752163Y-44450420D01*
X34019970Y-44499886D01*
X34292130Y-44509832D01*
X34292130Y-44509831D01*
X34292131Y-44509832D01*
X34562839Y-44480046D01*
X34826326Y-44411162D01*
X34882995Y-44387080D01*
X34943030Y-44377741D01*
X35000299Y-44398048D01*
X35041045Y-44443124D01*
X35055484Y-44502146D01*
X35040149Y-44560942D01*
X35030787Y-44577971D01*
X35020109Y-44594228D01*
X35007826Y-44610063D01*
X34990475Y-44650158D01*
X34985338Y-44660644D01*
X34964302Y-44698907D01*
X34959321Y-44718309D01*
X34953020Y-44736711D01*
X34945061Y-44755102D01*
X34938228Y-44798242D01*
X34935860Y-44809674D01*
X34925000Y-44851978D01*
X34925000Y-44872016D01*
X34923473Y-44891415D01*
X34920340Y-44911194D01*
X34924450Y-44954675D01*
X34925000Y-44966344D01*
X34925000Y-56674300D01*
X34908387Y-56736300D01*
X34863000Y-56781687D01*
X34801000Y-56798300D01*
X34781250Y-56798300D01*
X34777265Y-56798803D01*
X34765633Y-56799718D01*
X34721969Y-56801090D01*
X34702729Y-56806680D01*
X34683681Y-56810625D01*
X34663809Y-56813135D01*
X34623199Y-56829213D01*
X34612154Y-56832994D01*
X34570210Y-56845181D01*
X34552965Y-56855379D01*
X34535504Y-56863933D01*
X34516867Y-56871312D01*
X34481531Y-56896985D01*
X34471774Y-56903395D01*
X34434180Y-56925629D01*
X34420013Y-56939796D01*
X34405224Y-56952426D01*
X34389014Y-56964204D01*
X34368525Y-56988971D01*
X34312533Y-57027453D01*
X34244666Y-57030654D01*
X34185301Y-56997611D01*
X30528302Y-53340611D01*
X30515406Y-53324513D01*
X30464275Y-53276498D01*
X30461478Y-53273787D01*
X30441970Y-53254279D01*
X30438790Y-53251812D01*
X30429924Y-53244239D01*
X30398082Y-53214338D01*
X30380524Y-53204685D01*
X30364264Y-53194004D01*
X30348436Y-53181727D01*
X30308351Y-53164380D01*
X30297861Y-53159241D01*
X30259591Y-53138202D01*
X30240191Y-53133221D01*
X30221784Y-53126919D01*
X30203397Y-53118962D01*
X30160258Y-53112129D01*
X30148824Y-53109761D01*
X30106519Y-53098900D01*
X30086484Y-53098900D01*
X30067086Y-53097373D01*
X30059662Y-53096197D01*
X30047305Y-53094240D01*
X30047304Y-53094240D01*
X30014251Y-53097364D01*
X30003825Y-53098350D01*
X29992156Y-53098900D01*
X28271164Y-53098900D01*
X28222351Y-53088888D01*
X28181421Y-53060470D01*
X28154982Y-53018233D01*
X28147817Y-52999023D01*
X28104196Y-52882069D01*
X28017946Y-52766854D01*
X27902731Y-52680604D01*
X27767883Y-52630309D01*
X27708273Y-52623900D01*
X27708269Y-52623900D01*
X26412530Y-52623900D01*
X26352915Y-52630309D01*
X26218069Y-52680604D01*
X26134711Y-52743006D01*
X26086758Y-52764905D01*
X26034042Y-52764905D01*
X25986089Y-52743006D01*
X25902731Y-52680604D01*
X25767883Y-52630309D01*
X25708273Y-52623900D01*
X25708269Y-52623900D01*
X25708242Y-52623900D01*
X24884699Y-52623900D01*
X24822700Y-52607288D01*
X24777313Y-52561901D01*
X24760700Y-52499901D01*
X24760700Y-51037951D01*
X26125199Y-51037951D01*
X26155650Y-51061651D01*
X26359700Y-51172077D01*
X26579140Y-51247411D01*
X26807993Y-51285600D01*
X27040007Y-51285600D01*
X27268859Y-51247411D01*
X27488296Y-51172078D01*
X27692353Y-51061648D01*
X27722798Y-51037951D01*
X26924000Y-50239153D01*
X26125199Y-51037951D01*
X24760700Y-51037951D01*
X24760700Y-50081252D01*
X24770139Y-50033799D01*
X24797019Y-49993571D01*
X24904991Y-49885599D01*
X25356297Y-49434292D01*
X25411552Y-49402289D01*
X25475409Y-49402025D01*
X25530929Y-49433572D01*
X25563390Y-49488562D01*
X25564182Y-49552414D01*
X25538361Y-49654380D01*
X25519201Y-49885599D01*
X25538361Y-50116817D01*
X25595319Y-50341739D01*
X25688516Y-50554209D01*
X25772812Y-50683233D01*
X26570446Y-49885600D01*
X27277553Y-49885600D01*
X28075186Y-50683234D01*
X28079141Y-50682824D01*
X28114683Y-50650105D01*
X28173700Y-50635159D01*
X28232718Y-50650104D01*
X28277508Y-50691335D01*
X28315021Y-50748753D01*
X28472216Y-50919513D01*
X28655374Y-51062070D01*
X28859497Y-51172536D01*
X28969258Y-51210217D01*
X29079015Y-51247897D01*
X29079017Y-51247897D01*
X29079019Y-51247898D01*
X29307951Y-51286100D01*
X29540048Y-51286100D01*
X29540049Y-51286100D01*
X29768981Y-51247898D01*
X29988503Y-51172536D01*
X30192626Y-51062070D01*
X30369566Y-50924352D01*
X30421991Y-50900501D01*
X30479540Y-50902908D01*
X30529793Y-50931057D01*
X30561906Y-50978873D01*
X30580204Y-51027931D01*
X30666454Y-51143146D01*
X30781669Y-51229396D01*
X30916517Y-51279691D01*
X30976127Y-51286100D01*
X32871872Y-51286099D01*
X32931483Y-51279691D01*
X33066331Y-51229396D01*
X33181546Y-51143146D01*
X33267796Y-51027931D01*
X33318091Y-50893083D01*
X33324500Y-50833473D01*
X33324499Y-48937728D01*
X33318091Y-48878117D01*
X33267796Y-48743269D01*
X33181546Y-48628054D01*
X33066331Y-48541804D01*
X32931483Y-48491509D01*
X32871873Y-48485100D01*
X32871869Y-48485100D01*
X30976130Y-48485100D01*
X30916515Y-48491509D01*
X30831275Y-48523302D01*
X30781669Y-48541804D01*
X30666454Y-48628054D01*
X30587707Y-48733247D01*
X30580203Y-48743271D01*
X30561906Y-48792326D01*
X30529793Y-48840142D01*
X30479540Y-48868291D01*
X30421991Y-48870698D01*
X30369563Y-48846845D01*
X30299517Y-48792326D01*
X30192626Y-48709130D01*
X29988503Y-48598664D01*
X29988499Y-48598662D01*
X29988498Y-48598662D01*
X29768984Y-48523302D01*
X29578456Y-48491509D01*
X29540049Y-48485100D01*
X29307951Y-48485100D01*
X29269544Y-48491509D01*
X29079015Y-48523302D01*
X28859501Y-48598662D01*
X28655372Y-48709131D01*
X28472215Y-48851687D01*
X28315018Y-49022450D01*
X28277509Y-49079862D01*
X28232718Y-49121095D01*
X28173700Y-49136040D01*
X28114682Y-49121094D01*
X28079140Y-49088374D01*
X28075186Y-49087964D01*
X27277553Y-49885600D01*
X26570446Y-49885600D01*
X26924000Y-49532047D01*
X27722799Y-48733247D01*
X27692349Y-48709548D01*
X27488299Y-48599122D01*
X27268859Y-48523788D01*
X27040007Y-48485600D01*
X26807993Y-48485600D01*
X26586032Y-48522638D01*
X26524392Y-48517273D01*
X26473017Y-48482792D01*
X26444699Y-48427779D01*
X26446490Y-48365931D01*
X26477942Y-48312648D01*
X28556653Y-46233937D01*
X32152388Y-42638202D01*
X32213659Y-42604730D01*
X32283304Y-42609667D01*
G37*
%TD.AperFunction*%
%TA.AperFunction,Conductor*%
G36*
X50417500Y-20017113D02*
G01*
X50462887Y-20062500D01*
X50479500Y-20124500D01*
X50479500Y-148375500D01*
X50462887Y-148437500D01*
X50417500Y-148482887D01*
X50355500Y-148499500D01*
X20124500Y-148499500D01*
X20062500Y-148482887D01*
X20017113Y-148437500D01*
X20000500Y-148375500D01*
X20000500Y-145500000D01*
X25074551Y-145500000D01*
X25094317Y-145751149D01*
X25153126Y-145996110D01*
X25156100Y-146003289D01*
X25249534Y-146228859D01*
X25381164Y-146443659D01*
X25544776Y-146635224D01*
X25736341Y-146798836D01*
X25951141Y-146930466D01*
X26183889Y-147026873D01*
X26428852Y-147085683D01*
X26680000Y-147105449D01*
X26931148Y-147085683D01*
X27176111Y-147026873D01*
X27408859Y-146930466D01*
X27623659Y-146798836D01*
X27815224Y-146635224D01*
X27978836Y-146443659D01*
X28110466Y-146228859D01*
X28206873Y-145996111D01*
X28265683Y-145751148D01*
X28285449Y-145500000D01*
X42194551Y-145500000D01*
X42214317Y-145751149D01*
X42273126Y-145996110D01*
X42276100Y-146003289D01*
X42369534Y-146228859D01*
X42501164Y-146443659D01*
X42664776Y-146635224D01*
X42856341Y-146798836D01*
X43071141Y-146930466D01*
X43303889Y-147026873D01*
X43548852Y-147085683D01*
X43800000Y-147105449D01*
X44051148Y-147085683D01*
X44296111Y-147026873D01*
X44528859Y-146930466D01*
X44743659Y-146798836D01*
X44935224Y-146635224D01*
X45098836Y-146443659D01*
X45230466Y-146228859D01*
X45326873Y-145996111D01*
X45385683Y-145751148D01*
X45405449Y-145500000D01*
X45385683Y-145248852D01*
X45326873Y-145003889D01*
X45230466Y-144771141D01*
X45098836Y-144556341D01*
X44935224Y-144364776D01*
X44743659Y-144201164D01*
X44528859Y-144069534D01*
X44412485Y-144021330D01*
X44296110Y-143973126D01*
X44051149Y-143914317D01*
X43800000Y-143894551D01*
X43548850Y-143914317D01*
X43303889Y-143973126D01*
X43071139Y-144069535D01*
X42856342Y-144201163D01*
X42664776Y-144364776D01*
X42501163Y-144556342D01*
X42369535Y-144771139D01*
X42273126Y-145003889D01*
X42214317Y-145248850D01*
X42194551Y-145500000D01*
X28285449Y-145500000D01*
X28265683Y-145248852D01*
X28206873Y-145003889D01*
X28110466Y-144771141D01*
X27978836Y-144556341D01*
X27815224Y-144364776D01*
X27623659Y-144201164D01*
X27408859Y-144069534D01*
X27292485Y-144021330D01*
X27176110Y-143973126D01*
X26931149Y-143914317D01*
X26680000Y-143894551D01*
X26428850Y-143914317D01*
X26183889Y-143973126D01*
X25951139Y-144069535D01*
X25736342Y-144201163D01*
X25544776Y-144364776D01*
X25381163Y-144556342D01*
X25249535Y-144771139D01*
X25153126Y-145003889D01*
X25094317Y-145248850D01*
X25074551Y-145500000D01*
X20000500Y-145500000D01*
X20000500Y-138000000D01*
X21499459Y-138000000D01*
X21499617Y-138000383D01*
X21499759Y-138000441D01*
X21499900Y-138000500D01*
X21499901Y-138000500D01*
X24500099Y-138000500D01*
X24500100Y-138000500D01*
X24500193Y-138000460D01*
X24500383Y-138000383D01*
X24500541Y-138000000D01*
X26499459Y-138000000D01*
X26499617Y-138000383D01*
X26499759Y-138000441D01*
X26499900Y-138000500D01*
X26499901Y-138000500D01*
X29500099Y-138000500D01*
X29500100Y-138000500D01*
X29500193Y-138000460D01*
X29500383Y-138000383D01*
X29500541Y-138000000D01*
X31499459Y-138000000D01*
X31499617Y-138000383D01*
X31499759Y-138000441D01*
X31499900Y-138000500D01*
X31499901Y-138000500D01*
X34500099Y-138000500D01*
X34500100Y-138000500D01*
X34500193Y-138000460D01*
X34500383Y-138000383D01*
X34500541Y-138000000D01*
X36499459Y-138000000D01*
X36499617Y-138000383D01*
X36499759Y-138000441D01*
X36499900Y-138000500D01*
X36499901Y-138000500D01*
X39500099Y-138000500D01*
X39500100Y-138000500D01*
X39500193Y-138000460D01*
X39500383Y-138000383D01*
X39500541Y-138000000D01*
X41499459Y-138000000D01*
X41499617Y-138000383D01*
X41499759Y-138000441D01*
X41499900Y-138000500D01*
X41499901Y-138000500D01*
X44500099Y-138000500D01*
X44500100Y-138000500D01*
X44500193Y-138000460D01*
X44500383Y-138000383D01*
X44500541Y-138000000D01*
X46499459Y-138000000D01*
X46499617Y-138000383D01*
X46499759Y-138000441D01*
X46499900Y-138000500D01*
X46499901Y-138000500D01*
X49500099Y-138000500D01*
X49500100Y-138000500D01*
X49500193Y-138000460D01*
X49500383Y-138000383D01*
X49500541Y-138000000D01*
X49500383Y-137999617D01*
X49500381Y-137999616D01*
X49500100Y-137999500D01*
X49500099Y-137999500D01*
X46499901Y-137999500D01*
X46499900Y-137999500D01*
X46499618Y-137999616D01*
X46499616Y-137999618D01*
X46499459Y-137999999D01*
X46499459Y-138000000D01*
X44500541Y-138000000D01*
X44500383Y-137999617D01*
X44500381Y-137999616D01*
X44500100Y-137999500D01*
X44500099Y-137999500D01*
X41499901Y-137999500D01*
X41499900Y-137999500D01*
X41499618Y-137999616D01*
X41499616Y-137999618D01*
X41499459Y-137999999D01*
X41499459Y-138000000D01*
X39500541Y-138000000D01*
X39500383Y-137999617D01*
X39500381Y-137999616D01*
X39500100Y-137999500D01*
X39500099Y-137999500D01*
X36499901Y-137999500D01*
X36499900Y-137999500D01*
X36499618Y-137999616D01*
X36499616Y-137999618D01*
X36499459Y-137999999D01*
X36499459Y-138000000D01*
X34500541Y-138000000D01*
X34500383Y-137999617D01*
X34500381Y-137999616D01*
X34500100Y-137999500D01*
X34500099Y-137999500D01*
X31499901Y-137999500D01*
X31499900Y-137999500D01*
X31499618Y-137999616D01*
X31499616Y-137999618D01*
X31499459Y-137999999D01*
X31499459Y-138000000D01*
X29500541Y-138000000D01*
X29500383Y-137999617D01*
X29500381Y-137999616D01*
X29500100Y-137999500D01*
X29500099Y-137999500D01*
X26499901Y-137999500D01*
X26499900Y-137999500D01*
X26499618Y-137999616D01*
X26499616Y-137999618D01*
X26499459Y-137999999D01*
X26499459Y-138000000D01*
X24500541Y-138000000D01*
X24500383Y-137999617D01*
X24500381Y-137999616D01*
X24500100Y-137999500D01*
X24500099Y-137999500D01*
X21499901Y-137999500D01*
X21499900Y-137999500D01*
X21499618Y-137999616D01*
X21499616Y-137999618D01*
X21499459Y-137999999D01*
X21499459Y-138000000D01*
X20000500Y-138000000D01*
X20000500Y-66027094D01*
X22209540Y-66027094D01*
X22213650Y-66070575D01*
X22214200Y-66082244D01*
X22214200Y-128263956D01*
X22211935Y-128284462D01*
X22214139Y-128354573D01*
X22214200Y-128358468D01*
X22214200Y-128386049D01*
X22214703Y-128390034D01*
X22215618Y-128401667D01*
X22216990Y-128445326D01*
X22222579Y-128464560D01*
X22226525Y-128483616D01*
X22229035Y-128503492D01*
X22245114Y-128544104D01*
X22248897Y-128555151D01*
X22261082Y-128597091D01*
X22271280Y-128614335D01*
X22279836Y-128631800D01*
X22287214Y-128650432D01*
X22287215Y-128650433D01*
X22312880Y-128685759D01*
X22319293Y-128695522D01*
X22341526Y-128733116D01*
X22341529Y-128733119D01*
X22341530Y-128733120D01*
X22355695Y-128747285D01*
X22368327Y-128762075D01*
X22380106Y-128778287D01*
X22413758Y-128806126D01*
X22422399Y-128813989D01*
X24113496Y-130505087D01*
X24126396Y-130521188D01*
X24177523Y-130569200D01*
X24180320Y-130571911D01*
X24199829Y-130591420D01*
X24203011Y-130593888D01*
X24211871Y-130601455D01*
X24243717Y-130631361D01*
X24243718Y-130631362D01*
X24261270Y-130641011D01*
X24277538Y-130651697D01*
X24293364Y-130663973D01*
X24333446Y-130681317D01*
X24343933Y-130686455D01*
X24382207Y-130707497D01*
X24390710Y-130709679D01*
X24401608Y-130712478D01*
X24420013Y-130718778D01*
X24438404Y-130726737D01*
X24481550Y-130733570D01*
X24492968Y-130735935D01*
X24535281Y-130746800D01*
X24555316Y-130746800D01*
X24574715Y-130748327D01*
X24594496Y-130751460D01*
X24637974Y-130747350D01*
X24649644Y-130746800D01*
X47518756Y-130746800D01*
X47539262Y-130749064D01*
X47542165Y-130748972D01*
X47542167Y-130748973D01*
X47609372Y-130746861D01*
X47613268Y-130746800D01*
X47640849Y-130746800D01*
X47640850Y-130746800D01*
X47644819Y-130746298D01*
X47656465Y-130745380D01*
X47700127Y-130744009D01*
X47719359Y-130738420D01*
X47738418Y-130734474D01*
X47745599Y-130733567D01*
X47758292Y-130731964D01*
X47798907Y-130715882D01*
X47809944Y-130712103D01*
X47851890Y-130699918D01*
X47869129Y-130689722D01*
X47886602Y-130681162D01*
X47905232Y-130673786D01*
X47940564Y-130648114D01*
X47950330Y-130641700D01*
X47987918Y-130619471D01*
X47987917Y-130619471D01*
X47987920Y-130619470D01*
X48002085Y-130605304D01*
X48016873Y-130592673D01*
X48033087Y-130580894D01*
X48060938Y-130547226D01*
X48068779Y-130538609D01*
X48868371Y-129739019D01*
X48908600Y-129712139D01*
X48956053Y-129702700D01*
X49252217Y-129702700D01*
X49269860Y-129701096D01*
X49322796Y-129696286D01*
X49485206Y-129645678D01*
X49630785Y-129557672D01*
X49751072Y-129437385D01*
X49839078Y-129291806D01*
X49889686Y-129129396D01*
X49896100Y-129058816D01*
X49896100Y-128395584D01*
X49889686Y-128325004D01*
X49839078Y-128162594D01*
X49751072Y-128017015D01*
X49751071Y-128017013D01*
X49630786Y-127896728D01*
X49512282Y-127825090D01*
X49485206Y-127808722D01*
X49322796Y-127758114D01*
X49322793Y-127758113D01*
X49252217Y-127751700D01*
X49252216Y-127751700D01*
X48738984Y-127751700D01*
X48738983Y-127751700D01*
X48668406Y-127758113D01*
X48587199Y-127783417D01*
X48505994Y-127808722D01*
X48505992Y-127808722D01*
X48505992Y-127808723D01*
X48360415Y-127896727D01*
X48258280Y-127998862D01*
X48202692Y-128030955D01*
X48138505Y-128030955D01*
X48082919Y-127998862D01*
X47980785Y-127896728D01*
X47980784Y-127896727D01*
X47868748Y-127828999D01*
X47835206Y-127808722D01*
X47672796Y-127758114D01*
X47672793Y-127758113D01*
X47602217Y-127751700D01*
X47602216Y-127751700D01*
X47088984Y-127751700D01*
X47088983Y-127751700D01*
X47018406Y-127758113D01*
X46855990Y-127808723D01*
X46736395Y-127881021D01*
X46674992Y-127898874D01*
X46612859Y-127883758D01*
X46566519Y-127839694D01*
X46547539Y-127808722D01*
X46533233Y-127785377D01*
X46373199Y-127598001D01*
X46185823Y-127437967D01*
X45975720Y-127309216D01*
X45835481Y-127251127D01*
X45748061Y-127214916D01*
X45508456Y-127157393D01*
X45262800Y-127138059D01*
X45017143Y-127157393D01*
X44777538Y-127214916D01*
X44549878Y-127309217D01*
X44339778Y-127437966D01*
X44152401Y-127598001D01*
X43992366Y-127785378D01*
X43863618Y-127995476D01*
X43863616Y-127995480D01*
X43862216Y-127998861D01*
X43769316Y-128223138D01*
X43711793Y-128462743D01*
X43692459Y-128708400D01*
X43711793Y-128954056D01*
X43769317Y-129193664D01*
X43823448Y-129324348D01*
X43832290Y-129383954D01*
X43811989Y-129440691D01*
X43767340Y-129481158D01*
X43708887Y-129495800D01*
X36783713Y-129495800D01*
X36725260Y-129481158D01*
X36680611Y-129440691D01*
X36660310Y-129383954D01*
X36669152Y-129324348D01*
X36723282Y-129193664D01*
X36723281Y-129193664D01*
X36723283Y-129193662D01*
X36780807Y-128954055D01*
X36800141Y-128708400D01*
X36780807Y-128462745D01*
X36723283Y-128223138D01*
X36718779Y-128212265D01*
X36709339Y-128164814D01*
X36718777Y-128117360D01*
X36745655Y-128077133D01*
X39804589Y-125018200D01*
X39820685Y-125005306D01*
X39822673Y-125003187D01*
X39822677Y-125003186D01*
X39868748Y-124954123D01*
X39871366Y-124951423D01*
X39890920Y-124931871D01*
X39893381Y-124928698D01*
X39900956Y-124919827D01*
X39930862Y-124887982D01*
X39940512Y-124870427D01*
X39951200Y-124854157D01*
X39963471Y-124838338D01*
X39963473Y-124838336D01*
X39980826Y-124798232D01*
X39985957Y-124787762D01*
X40006997Y-124749492D01*
X40011975Y-124730099D01*
X40018281Y-124711682D01*
X40019818Y-124708128D01*
X40026238Y-124693296D01*
X40033072Y-124650145D01*
X40035435Y-124638731D01*
X40046300Y-124596419D01*
X40046300Y-124576384D01*
X40047827Y-124556985D01*
X40050960Y-124537204D01*
X40046850Y-124493725D01*
X40046300Y-124482056D01*
X40046300Y-120408400D01*
X43692459Y-120408400D01*
X43711793Y-120654056D01*
X43769316Y-120893661D01*
X43816466Y-121007491D01*
X43863616Y-121121320D01*
X43992367Y-121331423D01*
X44152401Y-121518799D01*
X44339777Y-121678833D01*
X44549880Y-121807584D01*
X44777538Y-121901883D01*
X45017145Y-121959407D01*
X45262800Y-121978741D01*
X45508455Y-121959407D01*
X45748062Y-121901883D01*
X45975720Y-121807584D01*
X46185823Y-121678833D01*
X46373199Y-121518799D01*
X46533233Y-121331423D01*
X46661984Y-121121320D01*
X46756283Y-120893662D01*
X46813807Y-120654055D01*
X46833141Y-120408400D01*
X46813807Y-120162745D01*
X46756283Y-119923138D01*
X46661984Y-119695480D01*
X46533233Y-119485377D01*
X46373199Y-119298001D01*
X46185823Y-119137967D01*
X45975720Y-119009216D01*
X45861635Y-118961960D01*
X45808771Y-118920285D01*
X45785471Y-118857129D01*
X45798604Y-118791105D01*
X45844299Y-118741673D01*
X45909089Y-118723400D01*
X46275624Y-118723400D01*
X46335175Y-118716997D01*
X46469889Y-118666752D01*
X46584988Y-118580588D01*
X46671152Y-118465489D01*
X46721397Y-118330775D01*
X46727800Y-118271224D01*
X46727800Y-117558400D01*
X43797800Y-117558400D01*
X43797800Y-118271224D01*
X43804202Y-118330775D01*
X43854447Y-118465489D01*
X43940611Y-118580588D01*
X44055710Y-118666752D01*
X44190424Y-118716997D01*
X44249976Y-118723400D01*
X44616511Y-118723400D01*
X44681301Y-118741673D01*
X44726996Y-118791105D01*
X44740129Y-118857129D01*
X44716829Y-118920285D01*
X44663964Y-118961961D01*
X44549878Y-119009217D01*
X44339778Y-119137966D01*
X44152401Y-119298001D01*
X43992366Y-119485378D01*
X43863617Y-119695478D01*
X43769316Y-119923138D01*
X43711793Y-120162743D01*
X43692459Y-120408400D01*
X40046300Y-120408400D01*
X40046300Y-117058400D01*
X43797800Y-117058400D01*
X45012800Y-117058400D01*
X45012800Y-115893400D01*
X45512800Y-115893400D01*
X45512800Y-117058400D01*
X46727800Y-117058400D01*
X46727800Y-116345576D01*
X46721397Y-116286024D01*
X46671152Y-116151310D01*
X46584988Y-116036211D01*
X46469889Y-115950047D01*
X46335175Y-115899802D01*
X46275624Y-115893400D01*
X45512800Y-115893400D01*
X45012800Y-115893400D01*
X44249976Y-115893400D01*
X44190424Y-115899802D01*
X44055710Y-115950047D01*
X43940611Y-116036211D01*
X43854447Y-116151310D01*
X43804202Y-116286024D01*
X43797800Y-116345576D01*
X43797800Y-117058400D01*
X40046300Y-117058400D01*
X40046300Y-99751600D01*
X43692459Y-99751600D01*
X43711793Y-99997256D01*
X43769316Y-100236861D01*
X43816466Y-100350691D01*
X43863616Y-100464520D01*
X43992367Y-100674623D01*
X44152401Y-100861999D01*
X44339777Y-101022033D01*
X44549880Y-101150784D01*
X44777538Y-101245083D01*
X45017145Y-101302607D01*
X45262800Y-101321941D01*
X45508455Y-101302607D01*
X45748062Y-101245083D01*
X45975720Y-101150784D01*
X46185823Y-101022033D01*
X46373199Y-100861999D01*
X46533233Y-100674623D01*
X46661984Y-100464520D01*
X46756283Y-100236862D01*
X46813807Y-99997255D01*
X46833141Y-99751600D01*
X46813807Y-99505945D01*
X46756283Y-99266338D01*
X46661984Y-99038680D01*
X46533233Y-98828577D01*
X46373199Y-98641201D01*
X46185823Y-98481167D01*
X45975720Y-98352416D01*
X45861635Y-98305160D01*
X45808771Y-98263485D01*
X45785471Y-98200329D01*
X45798604Y-98134305D01*
X45844299Y-98084873D01*
X45909089Y-98066600D01*
X46275624Y-98066600D01*
X46335175Y-98060197D01*
X46469889Y-98009952D01*
X46584988Y-97923788D01*
X46671152Y-97808689D01*
X46721397Y-97673975D01*
X46727800Y-97614424D01*
X46727800Y-96901600D01*
X43797800Y-96901600D01*
X43797800Y-97614424D01*
X43804202Y-97673975D01*
X43854447Y-97808689D01*
X43940611Y-97923788D01*
X44055710Y-98009952D01*
X44190424Y-98060197D01*
X44249976Y-98066600D01*
X44616511Y-98066600D01*
X44681301Y-98084873D01*
X44726996Y-98134305D01*
X44740129Y-98200329D01*
X44716829Y-98263485D01*
X44663964Y-98305161D01*
X44549878Y-98352417D01*
X44339778Y-98481166D01*
X44152401Y-98641201D01*
X43992366Y-98828578D01*
X43863617Y-99038678D01*
X43769316Y-99266338D01*
X43711793Y-99505943D01*
X43692459Y-99751600D01*
X40046300Y-99751600D01*
X40046300Y-96401600D01*
X43797800Y-96401600D01*
X45012800Y-96401600D01*
X45012800Y-95236600D01*
X45512800Y-95236600D01*
X45512800Y-96401600D01*
X46727800Y-96401600D01*
X46727800Y-95688776D01*
X46721397Y-95629224D01*
X46671152Y-95494510D01*
X46584988Y-95379411D01*
X46469889Y-95293247D01*
X46335175Y-95243002D01*
X46275624Y-95236600D01*
X45512800Y-95236600D01*
X45012800Y-95236600D01*
X44249976Y-95236600D01*
X44190424Y-95243002D01*
X44055710Y-95293247D01*
X43940611Y-95379411D01*
X43854447Y-95494510D01*
X43804202Y-95629224D01*
X43797800Y-95688776D01*
X43797800Y-96401600D01*
X40046300Y-96401600D01*
X40046300Y-95253896D01*
X40055739Y-95206443D01*
X40082619Y-95166215D01*
X40136234Y-95112600D01*
X40436389Y-94812444D01*
X40452485Y-94799550D01*
X40454473Y-94797431D01*
X40454477Y-94797430D01*
X40500548Y-94748367D01*
X40503166Y-94745667D01*
X40522720Y-94726115D01*
X40525181Y-94722942D01*
X40532756Y-94714071D01*
X40562662Y-94682226D01*
X40572317Y-94664662D01*
X40582994Y-94648408D01*
X40595273Y-94632580D01*
X40612618Y-94592496D01*
X40617760Y-94582000D01*
X40638797Y-94543736D01*
X40643779Y-94524328D01*
X40650087Y-94505910D01*
X40651637Y-94502329D01*
X40693668Y-94450463D01*
X40756502Y-94427907D01*
X40821924Y-94441200D01*
X40870972Y-94486488D01*
X40905939Y-94543178D01*
X41030821Y-94668060D01*
X41181135Y-94760776D01*
X41181137Y-94760776D01*
X41181138Y-94760777D01*
X41348785Y-94816329D01*
X41452258Y-94826900D01*
X42062942Y-94826900D01*
X42166415Y-94816329D01*
X42334062Y-94760777D01*
X42334802Y-94760321D01*
X42484378Y-94668060D01*
X42609260Y-94543178D01*
X42701976Y-94392864D01*
X42702706Y-94390663D01*
X42757529Y-94225215D01*
X42768100Y-94121742D01*
X43287100Y-94121742D01*
X43297670Y-94225214D01*
X43353223Y-94392864D01*
X43445939Y-94543178D01*
X43570821Y-94668060D01*
X43721135Y-94760776D01*
X43721137Y-94760776D01*
X43721138Y-94760777D01*
X43888785Y-94816329D01*
X43992258Y-94826900D01*
X44602942Y-94826900D01*
X44706415Y-94816329D01*
X44874062Y-94760777D01*
X44874802Y-94760321D01*
X45024378Y-94668060D01*
X45149260Y-94543178D01*
X45241976Y-94392864D01*
X45242706Y-94390663D01*
X45297529Y-94225215D01*
X45308100Y-94121742D01*
X45308100Y-89531058D01*
X45297529Y-89427585D01*
X45241977Y-89259938D01*
X45241976Y-89259937D01*
X45241976Y-89259935D01*
X45149262Y-89109624D01*
X45142784Y-89103146D01*
X45024378Y-88984740D01*
X44982001Y-88958601D01*
X44938822Y-88913495D01*
X44923100Y-88853064D01*
X44923100Y-87199736D01*
X44938822Y-87139305D01*
X44982002Y-87094198D01*
X45024378Y-87068060D01*
X45149260Y-86943178D01*
X45241977Y-86792862D01*
X45297529Y-86625215D01*
X45308100Y-86521742D01*
X45308100Y-81931058D01*
X45297529Y-81827585D01*
X45241977Y-81659938D01*
X45241976Y-81659937D01*
X45241976Y-81659935D01*
X45149260Y-81509621D01*
X45024378Y-81384739D01*
X44874064Y-81292023D01*
X44706414Y-81236470D01*
X44602942Y-81225900D01*
X43992258Y-81225900D01*
X43888785Y-81236470D01*
X43721135Y-81292023D01*
X43570821Y-81384739D01*
X43445939Y-81509621D01*
X43353223Y-81659935D01*
X43297670Y-81827585D01*
X43287100Y-81931058D01*
X43287100Y-86521742D01*
X43297670Y-86625214D01*
X43353223Y-86792864D01*
X43445937Y-86943175D01*
X43445939Y-86943177D01*
X43445940Y-86943178D01*
X43570822Y-87068060D01*
X43613198Y-87094198D01*
X43656378Y-87139305D01*
X43672100Y-87199736D01*
X43672100Y-88853064D01*
X43656378Y-88913495D01*
X43613198Y-88958602D01*
X43570823Y-88984739D01*
X43445937Y-89109624D01*
X43353223Y-89259935D01*
X43297670Y-89427585D01*
X43287100Y-89531058D01*
X43287100Y-94121742D01*
X42768100Y-94121742D01*
X42768100Y-89531058D01*
X42757529Y-89427585D01*
X42701977Y-89259938D01*
X42701976Y-89259937D01*
X42701976Y-89259935D01*
X42609262Y-89109624D01*
X42602784Y-89103146D01*
X42484378Y-88984740D01*
X42442001Y-88958601D01*
X42398822Y-88913495D01*
X42383100Y-88853064D01*
X42383100Y-87199736D01*
X42398822Y-87139305D01*
X42442002Y-87094198D01*
X42484378Y-87068060D01*
X42609260Y-86943178D01*
X42701977Y-86792862D01*
X42757529Y-86625215D01*
X42768100Y-86521742D01*
X42768100Y-81931058D01*
X42757529Y-81827585D01*
X42701977Y-81659938D01*
X42701976Y-81659937D01*
X42701976Y-81659935D01*
X42609260Y-81509621D01*
X42484378Y-81384739D01*
X42334064Y-81292023D01*
X42166414Y-81236470D01*
X42062942Y-81225900D01*
X41452258Y-81225900D01*
X41348785Y-81236470D01*
X41181135Y-81292023D01*
X41030821Y-81384739D01*
X40895691Y-81519870D01*
X40894836Y-81519015D01*
X40861586Y-81550571D01*
X40799937Y-81565752D01*
X40738856Y-81548430D01*
X40694354Y-81503146D01*
X40678100Y-81441771D01*
X40678100Y-79354403D01*
X43884300Y-79354403D01*
X43899202Y-79558017D01*
X43958416Y-79823838D01*
X44007744Y-79952810D01*
X44055707Y-80078214D01*
X44188996Y-80315710D01*
X44269349Y-80419770D01*
X44355445Y-80531269D01*
X44551504Y-80720294D01*
X44772999Y-80878759D01*
X44902706Y-80945446D01*
X45015203Y-81003285D01*
X45272959Y-81091219D01*
X45272961Y-81091219D01*
X45272963Y-81091220D01*
X45540770Y-81140686D01*
X45812930Y-81150632D01*
X45812930Y-81150631D01*
X45812931Y-81150632D01*
X46083639Y-81120846D01*
X46347126Y-81051962D01*
X46597775Y-80945447D01*
X46830244Y-80803573D01*
X47039579Y-80629363D01*
X47221318Y-80426531D01*
X47371588Y-80199398D01*
X47487186Y-79952806D01*
X47565647Y-79692011D01*
X47605300Y-79422571D01*
X47605300Y-78698400D01*
X47600310Y-78630229D01*
X47590397Y-78494782D01*
X47531183Y-78228961D01*
X47502654Y-78154369D01*
X47433893Y-77974586D01*
X47300604Y-77737090D01*
X47152190Y-77544888D01*
X47134154Y-77521530D01*
X46938095Y-77332505D01*
X46716600Y-77174040D01*
X46474402Y-77049517D01*
X46474398Y-77049515D01*
X46474397Y-77049515D01*
X46270491Y-76979952D01*
X46216636Y-76961579D01*
X45948829Y-76912113D01*
X45676669Y-76902167D01*
X45405962Y-76931953D01*
X45142474Y-77000838D01*
X44891824Y-77107353D01*
X44659356Y-77249226D01*
X44450023Y-77423435D01*
X44268280Y-77626271D01*
X44118010Y-77853405D01*
X44002415Y-78099989D01*
X43923953Y-78360788D01*
X43923953Y-78360789D01*
X43887735Y-78606894D01*
X43884300Y-78630232D01*
X43884300Y-79354403D01*
X40678100Y-79354403D01*
X40678100Y-73216944D01*
X40680364Y-73196436D01*
X40678161Y-73126313D01*
X40678100Y-73122419D01*
X40678100Y-73094854D01*
X40678100Y-73094850D01*
X40677597Y-73090870D01*
X40676681Y-73079229D01*
X40676649Y-73078200D01*
X40675815Y-73051666D01*
X40686055Y-72998292D01*
X40718139Y-72954421D01*
X40765902Y-72928485D01*
X40820164Y-72925467D01*
X40828751Y-72926900D01*
X41060848Y-72926900D01*
X41060849Y-72926900D01*
X41289781Y-72888698D01*
X41509303Y-72813336D01*
X41713426Y-72702870D01*
X41744414Y-72678751D01*
X42645999Y-72678751D01*
X42676450Y-72702451D01*
X42880500Y-72812877D01*
X43099940Y-72888211D01*
X43328793Y-72926400D01*
X43560807Y-72926400D01*
X43789659Y-72888211D01*
X44009096Y-72812878D01*
X44213153Y-72702448D01*
X44243598Y-72678751D01*
X43444800Y-71879953D01*
X42645999Y-72678751D01*
X41744414Y-72678751D01*
X41896584Y-72560313D01*
X42053779Y-72389553D01*
X42091289Y-72332138D01*
X42136080Y-72290905D01*
X42195098Y-72275960D01*
X42254115Y-72290905D01*
X42289658Y-72323624D01*
X42293611Y-72324034D01*
X43091247Y-71526401D01*
X43091247Y-71526400D01*
X43798353Y-71526400D01*
X44595986Y-72324034D01*
X44680283Y-72195007D01*
X44773480Y-71982538D01*
X44830438Y-71757617D01*
X44849598Y-71526400D01*
X44830438Y-71295182D01*
X44773480Y-71070260D01*
X44680284Y-70857792D01*
X44595986Y-70728764D01*
X43798353Y-71526400D01*
X43091247Y-71526400D01*
X42293611Y-70728764D01*
X42289657Y-70729174D01*
X42254113Y-70761895D01*
X42195095Y-70776839D01*
X42136078Y-70761893D01*
X42091289Y-70720661D01*
X42053779Y-70663247D01*
X41896584Y-70492487D01*
X41744412Y-70374047D01*
X42646000Y-70374047D01*
X43444800Y-71172847D01*
X43444801Y-71172847D01*
X44243599Y-70374048D01*
X44243599Y-70374047D01*
X44213149Y-70350348D01*
X44009099Y-70239922D01*
X43789659Y-70164588D01*
X43560807Y-70126400D01*
X43328793Y-70126400D01*
X43099940Y-70164588D01*
X42880503Y-70239921D01*
X42676445Y-70350352D01*
X42646000Y-70374046D01*
X42646000Y-70374047D01*
X41744412Y-70374047D01*
X41713426Y-70349930D01*
X41509303Y-70239464D01*
X41509299Y-70239462D01*
X41509298Y-70239462D01*
X41289784Y-70164102D01*
X41076951Y-70128587D01*
X41060849Y-70125900D01*
X40828751Y-70125900D01*
X40812649Y-70128587D01*
X40599815Y-70164102D01*
X40380301Y-70239462D01*
X40380297Y-70239463D01*
X40380297Y-70239464D01*
X40351844Y-70254862D01*
X40176172Y-70349931D01*
X39999236Y-70487645D01*
X39946807Y-70511499D01*
X39889258Y-70509091D01*
X39839005Y-70480941D01*
X39806892Y-70433124D01*
X39801134Y-70417686D01*
X39788596Y-70384069D01*
X39702346Y-70268854D01*
X39587131Y-70182604D01*
X39452283Y-70132309D01*
X39392673Y-70125900D01*
X39392669Y-70125900D01*
X37496930Y-70125900D01*
X37437315Y-70132309D01*
X37302467Y-70182604D01*
X37272811Y-70204806D01*
X37209553Y-70229046D01*
X37142996Y-70216424D01*
X37093005Y-70170707D01*
X37074500Y-70105540D01*
X37074500Y-65295492D01*
X37091275Y-65233211D01*
X37137063Y-65187782D01*
X37199474Y-65171496D01*
X37261621Y-65188760D01*
X37308602Y-65216544D01*
X37466427Y-65262397D01*
X37466431Y-65262398D01*
X37503306Y-65265300D01*
X37934692Y-65265300D01*
X37934694Y-65265300D01*
X37971569Y-65262398D01*
X38129398Y-65216544D01*
X38270865Y-65132881D01*
X38270865Y-65132880D01*
X38284348Y-65124907D01*
X38285278Y-65126480D01*
X38321906Y-65105333D01*
X38386094Y-65105333D01*
X38422721Y-65126480D01*
X38423652Y-65124907D01*
X38578602Y-65216544D01*
X38736427Y-65262397D01*
X38736431Y-65262398D01*
X38773306Y-65265300D01*
X39204692Y-65265300D01*
X39204694Y-65265300D01*
X39241569Y-65262398D01*
X39399398Y-65216544D01*
X39540865Y-65132881D01*
X39657081Y-65016665D01*
X39740744Y-64875198D01*
X39786598Y-64717369D01*
X39789500Y-64680494D01*
X39789500Y-62849106D01*
X39786598Y-62812231D01*
X39740744Y-62654402D01*
X39657081Y-62512935D01*
X39540865Y-62396719D01*
X39431908Y-62332282D01*
X39399397Y-62313055D01*
X39241572Y-62267202D01*
X39219443Y-62265460D01*
X39204694Y-62264300D01*
X38773306Y-62264300D01*
X38761014Y-62265267D01*
X38736427Y-62267202D01*
X38578602Y-62313055D01*
X38450719Y-62388685D01*
X38394087Y-62405783D01*
X38335979Y-62394698D01*
X38289619Y-62357953D01*
X38265558Y-62303911D01*
X38269272Y-62244872D01*
X38299915Y-62194274D01*
X40479189Y-60015000D01*
X40495285Y-60002106D01*
X40497273Y-59999987D01*
X40497277Y-59999986D01*
X40543348Y-59950923D01*
X40545966Y-59948223D01*
X40565520Y-59928671D01*
X40567981Y-59925498D01*
X40575556Y-59916627D01*
X40605462Y-59884782D01*
X40615117Y-59867218D01*
X40625794Y-59850964D01*
X40638073Y-59835136D01*
X40655418Y-59795052D01*
X40660560Y-59784556D01*
X40681597Y-59746292D01*
X40686579Y-59726884D01*
X40692881Y-59708480D01*
X40700837Y-59690096D01*
X40707669Y-59646952D01*
X40710033Y-59635538D01*
X40720900Y-59593219D01*
X40720900Y-59573184D01*
X40722427Y-59553785D01*
X40722468Y-59553521D01*
X40725560Y-59534004D01*
X40721450Y-59490525D01*
X40720900Y-59478856D01*
X40720900Y-46568300D01*
X40737513Y-46506300D01*
X40782900Y-46460913D01*
X40844900Y-46444300D01*
X40986092Y-46444300D01*
X40986094Y-46444300D01*
X41022969Y-46441398D01*
X41180798Y-46395544D01*
X41322265Y-46311881D01*
X41438481Y-46195665D01*
X41522144Y-46054198D01*
X41567998Y-45896369D01*
X41570900Y-45859494D01*
X41570900Y-45767500D01*
X41587513Y-45705500D01*
X41632900Y-45660113D01*
X41694900Y-45643500D01*
X43446400Y-45643500D01*
X43508400Y-45660113D01*
X43553787Y-45705500D01*
X43570400Y-45767500D01*
X43570400Y-45859439D01*
X43573300Y-45896293D01*
X43619117Y-46053997D01*
X43702717Y-46195357D01*
X43818842Y-46311482D01*
X43960202Y-46395082D01*
X44117906Y-46440899D01*
X44154761Y-46443800D01*
X44795400Y-46443800D01*
X44795400Y-45893800D01*
X45295400Y-45893800D01*
X45295400Y-46443800D01*
X45936039Y-46443800D01*
X45972893Y-46440899D01*
X46130597Y-46395082D01*
X46271957Y-46311482D01*
X46388082Y-46195357D01*
X46471680Y-46054000D01*
X46517499Y-45896288D01*
X46517695Y-45893800D01*
X45295400Y-45893800D01*
X44795400Y-45893800D01*
X44795400Y-45567431D01*
X44802730Y-45525430D01*
X44823853Y-45488394D01*
X44832787Y-45477594D01*
X44860638Y-45443926D01*
X44868477Y-45435311D01*
X44873681Y-45430107D01*
X44913904Y-45403237D01*
X44961351Y-45393800D01*
X46517695Y-45393800D01*
X46517695Y-45393799D01*
X46517499Y-45391311D01*
X46471680Y-45233599D01*
X46380109Y-45078760D01*
X46381696Y-45077820D01*
X46360579Y-45041244D01*
X46360582Y-44977054D01*
X46381969Y-44940013D01*
X46380507Y-44939149D01*
X46432059Y-44851978D01*
X46472144Y-44784198D01*
X46517998Y-44626369D01*
X46520900Y-44589494D01*
X46520900Y-44158106D01*
X46517998Y-44121231D01*
X46515737Y-44113450D01*
X46472144Y-43963402D01*
X46454021Y-43932757D01*
X46388481Y-43821935D01*
X46388480Y-43821934D01*
X46380507Y-43808452D01*
X46382080Y-43807521D01*
X46360933Y-43770894D01*
X46360933Y-43706706D01*
X46382080Y-43670078D01*
X46380507Y-43669148D01*
X46388481Y-43655665D01*
X46472144Y-43514198D01*
X46517998Y-43356369D01*
X46520900Y-43319494D01*
X46520900Y-42888106D01*
X46517998Y-42851231D01*
X46500999Y-42792723D01*
X46499780Y-42728048D01*
X46531299Y-42671557D01*
X46586980Y-42638627D01*
X46651667Y-42638221D01*
X46707757Y-42670448D01*
X48232181Y-44194872D01*
X48259061Y-44235100D01*
X48268500Y-44282553D01*
X48268500Y-107160080D01*
X48259061Y-107207533D01*
X48232181Y-107247762D01*
X48156680Y-107323262D01*
X48101092Y-107355355D01*
X48036905Y-107355355D01*
X47981319Y-107323262D01*
X47879185Y-107221128D01*
X47879184Y-107221127D01*
X47793122Y-107169101D01*
X47733606Y-107133122D01*
X47571196Y-107082514D01*
X47571193Y-107082513D01*
X47500617Y-107076100D01*
X47500616Y-107076100D01*
X46987384Y-107076100D01*
X46987383Y-107076100D01*
X46916806Y-107082513D01*
X46754390Y-107133123D01*
X46700525Y-107165686D01*
X46639124Y-107183539D01*
X46576992Y-107168425D01*
X46541319Y-107134506D01*
X46539572Y-107135999D01*
X46514890Y-107107100D01*
X46373199Y-106941201D01*
X46185823Y-106781167D01*
X45975720Y-106652416D01*
X45835481Y-106594327D01*
X45748061Y-106558116D01*
X45508456Y-106500593D01*
X45262800Y-106481259D01*
X45017143Y-106500593D01*
X44777538Y-106558116D01*
X44583218Y-106638606D01*
X44562939Y-106647007D01*
X44549878Y-106652417D01*
X44339778Y-106781166D01*
X44152401Y-106941201D01*
X43992366Y-107128578D01*
X43863617Y-107338678D01*
X43769316Y-107566338D01*
X43711793Y-107805943D01*
X43692459Y-108051600D01*
X43711793Y-108297256D01*
X43769316Y-108536861D01*
X43814843Y-108646772D01*
X43863616Y-108764520D01*
X43992367Y-108974623D01*
X44152401Y-109161999D01*
X44339777Y-109322033D01*
X44549880Y-109450784D01*
X44777538Y-109545083D01*
X45017145Y-109602607D01*
X45262800Y-109621941D01*
X45508455Y-109602607D01*
X45748062Y-109545083D01*
X45975720Y-109450784D01*
X46185823Y-109322033D01*
X46373199Y-109161999D01*
X46533233Y-108974623D01*
X46533233Y-108974622D01*
X46539572Y-108967201D01*
X46541322Y-108968695D01*
X46576971Y-108934785D01*
X46639112Y-108919660D01*
X46700525Y-108937513D01*
X46754394Y-108970078D01*
X46916804Y-109020686D01*
X46963857Y-109024962D01*
X46987383Y-109027100D01*
X46987384Y-109027100D01*
X47500616Y-109027100D01*
X47500617Y-109027100D01*
X47518261Y-109025496D01*
X47571196Y-109020686D01*
X47733606Y-108970078D01*
X47879185Y-108882072D01*
X47890884Y-108870373D01*
X47981319Y-108779939D01*
X48036906Y-108747845D01*
X48101094Y-108747845D01*
X48156681Y-108779939D01*
X48258813Y-108882071D01*
X48258815Y-108882072D01*
X48404394Y-108970078D01*
X48566804Y-109020686D01*
X48613857Y-109024962D01*
X48637383Y-109027100D01*
X48637384Y-109027100D01*
X49150616Y-109027100D01*
X49150617Y-109027100D01*
X49168261Y-109025496D01*
X49221196Y-109020686D01*
X49383606Y-108970078D01*
X49529185Y-108882072D01*
X49649472Y-108761785D01*
X49737478Y-108616206D01*
X49788086Y-108453796D01*
X49794500Y-108383216D01*
X49794500Y-107719984D01*
X49788086Y-107649404D01*
X49737478Y-107486994D01*
X49649472Y-107341415D01*
X49649471Y-107341413D01*
X49555819Y-107247761D01*
X49528939Y-107207533D01*
X49519500Y-107160080D01*
X49519500Y-44054841D01*
X49521763Y-44034337D01*
X49519561Y-43964245D01*
X49519500Y-43960351D01*
X49519500Y-43932757D01*
X49519500Y-43932750D01*
X49518995Y-43928753D01*
X49518080Y-43917123D01*
X49518058Y-43916421D01*
X49516709Y-43873473D01*
X49511120Y-43854240D01*
X49507174Y-43835182D01*
X49504664Y-43815306D01*
X49488588Y-43774704D01*
X49484804Y-43763653D01*
X49474823Y-43729300D01*
X49472618Y-43721710D01*
X49462414Y-43704455D01*
X49453861Y-43686995D01*
X49447163Y-43670078D01*
X49446486Y-43668368D01*
X49420808Y-43633025D01*
X49414401Y-43623271D01*
X49392169Y-43585679D01*
X49378006Y-43571516D01*
X49365367Y-43556717D01*
X49353595Y-43540513D01*
X49319941Y-43512673D01*
X49311299Y-43504809D01*
X44855402Y-39048911D01*
X44842506Y-39032813D01*
X44791375Y-38984798D01*
X44788578Y-38982087D01*
X44769070Y-38962579D01*
X44765890Y-38960112D01*
X44757024Y-38952539D01*
X44725182Y-38922638D01*
X44707624Y-38912985D01*
X44691364Y-38902304D01*
X44675536Y-38890027D01*
X44635451Y-38872680D01*
X44624961Y-38867541D01*
X44586691Y-38846502D01*
X44567291Y-38841521D01*
X44548884Y-38835219D01*
X44530497Y-38827262D01*
X44487358Y-38820429D01*
X44475924Y-38818061D01*
X44433619Y-38807200D01*
X44413584Y-38807200D01*
X44394186Y-38805673D01*
X44386762Y-38804497D01*
X44374405Y-38802540D01*
X44374404Y-38802540D01*
X44348084Y-38805028D01*
X44330925Y-38806650D01*
X44319256Y-38807200D01*
X33919341Y-38807200D01*
X33898837Y-38804936D01*
X33828745Y-38807139D01*
X33824851Y-38807200D01*
X33797248Y-38807200D01*
X33793253Y-38807704D01*
X33781629Y-38808618D01*
X33737968Y-38809990D01*
X33718728Y-38815580D01*
X33699681Y-38819525D01*
X33679809Y-38822035D01*
X33639199Y-38838113D01*
X33628154Y-38841894D01*
X33586210Y-38854081D01*
X33568965Y-38864279D01*
X33551504Y-38872833D01*
X33532867Y-38880212D01*
X33497531Y-38905885D01*
X33487774Y-38912295D01*
X33450180Y-38934529D01*
X33436013Y-38948696D01*
X33421224Y-38961326D01*
X33405013Y-38973104D01*
X33377172Y-39006758D01*
X33369311Y-39015397D01*
X23298908Y-49085799D01*
X23282810Y-49098696D01*
X23234796Y-49149825D01*
X23232091Y-49152617D01*
X23212574Y-49172134D01*
X23210115Y-49175305D01*
X23202542Y-49184172D01*
X23172635Y-49216020D01*
X23162985Y-49233574D01*
X23152309Y-49249828D01*
X23140026Y-49265663D01*
X23122675Y-49305758D01*
X23117538Y-49316244D01*
X23096502Y-49354507D01*
X23091521Y-49373909D01*
X23085220Y-49392311D01*
X23077261Y-49410702D01*
X23070428Y-49453842D01*
X23068060Y-49465274D01*
X23057200Y-49507578D01*
X23057200Y-49527616D01*
X23055673Y-49547015D01*
X23052540Y-49566794D01*
X23056650Y-49610275D01*
X23057200Y-49621944D01*
X23057200Y-58397956D01*
X23054935Y-58418462D01*
X23057139Y-58488573D01*
X23057200Y-58492468D01*
X23057200Y-58520049D01*
X23057703Y-58524034D01*
X23058618Y-58535667D01*
X23059990Y-58579326D01*
X23065579Y-58598560D01*
X23069525Y-58617616D01*
X23072035Y-58637492D01*
X23088114Y-58678104D01*
X23091897Y-58689151D01*
X23104082Y-58731091D01*
X23114280Y-58748335D01*
X23122836Y-58765800D01*
X23130214Y-58784432D01*
X23130215Y-58784433D01*
X23155880Y-58819759D01*
X23162293Y-58829522D01*
X23184526Y-58867116D01*
X23184529Y-58867119D01*
X23184530Y-58867120D01*
X23198695Y-58881285D01*
X23211327Y-58896075D01*
X23223106Y-58912287D01*
X23256758Y-58940126D01*
X23265399Y-58947989D01*
X24810196Y-60492787D01*
X24823096Y-60508888D01*
X24874223Y-60556900D01*
X24877019Y-60559610D01*
X24896529Y-60579120D01*
X24899711Y-60581588D01*
X24908571Y-60589155D01*
X24940418Y-60619062D01*
X24948053Y-60623259D01*
X24957972Y-60628712D01*
X24974236Y-60639396D01*
X24982379Y-60645712D01*
X24990064Y-60651673D01*
X25014909Y-60662424D01*
X25030152Y-60669021D01*
X25040631Y-60674154D01*
X25078908Y-60695197D01*
X25098306Y-60700177D01*
X25116708Y-60706477D01*
X25135104Y-60714438D01*
X25178261Y-60721273D01*
X25189664Y-60723634D01*
X25231981Y-60734500D01*
X25252016Y-60734500D01*
X25271413Y-60736026D01*
X25291196Y-60739160D01*
X25334674Y-60735050D01*
X25346344Y-60734500D01*
X30389056Y-60734500D01*
X30409562Y-60736764D01*
X30412465Y-60736672D01*
X30412467Y-60736673D01*
X30479672Y-60734561D01*
X30483568Y-60734500D01*
X30511149Y-60734500D01*
X30511150Y-60734500D01*
X30515119Y-60733998D01*
X30526765Y-60733080D01*
X30570427Y-60731709D01*
X30589659Y-60726120D01*
X30608718Y-60722174D01*
X30615891Y-60721268D01*
X30628592Y-60719664D01*
X30656109Y-60708768D01*
X30703703Y-60700076D01*
X30751001Y-60710259D01*
X30760855Y-60714523D01*
X30771343Y-60719660D01*
X30809608Y-60740697D01*
X30829016Y-60745680D01*
X30847410Y-60751978D01*
X30865805Y-60759938D01*
X30908954Y-60766771D01*
X30920380Y-60769138D01*
X30932943Y-60772364D01*
X30962680Y-60780000D01*
X30962681Y-60780000D01*
X30982716Y-60780000D01*
X31002113Y-60781526D01*
X31021896Y-60784660D01*
X31065374Y-60780550D01*
X31077044Y-60780000D01*
X31574156Y-60780000D01*
X31594662Y-60782264D01*
X31597565Y-60782172D01*
X31597567Y-60782173D01*
X31664772Y-60780061D01*
X31668668Y-60780000D01*
X31696249Y-60780000D01*
X31696250Y-60780000D01*
X31700219Y-60779498D01*
X31711865Y-60778580D01*
X31755527Y-60777209D01*
X31774759Y-60771620D01*
X31793818Y-60767674D01*
X31800991Y-60766768D01*
X31813692Y-60765164D01*
X31854307Y-60749082D01*
X31865344Y-60745303D01*
X31907290Y-60733118D01*
X31924529Y-60722922D01*
X31942002Y-60714362D01*
X31960632Y-60706986D01*
X31995964Y-60681314D01*
X32005730Y-60674900D01*
X32043318Y-60652671D01*
X32043317Y-60652671D01*
X32043320Y-60652670D01*
X32057485Y-60638504D01*
X32072273Y-60625873D01*
X32088487Y-60614094D01*
X32116338Y-60580426D01*
X32124169Y-60571819D01*
X32394373Y-60301616D01*
X32434599Y-60274739D01*
X32482052Y-60265300D01*
X32796048Y-60265300D01*
X32843501Y-60274739D01*
X32883729Y-60301619D01*
X33112997Y-60530887D01*
X33125898Y-60546989D01*
X33128012Y-60548974D01*
X33128014Y-60548977D01*
X33166548Y-60585163D01*
X33177040Y-60595016D01*
X33179836Y-60597726D01*
X33199330Y-60617220D01*
X33202504Y-60619682D01*
X33211368Y-60627253D01*
X33243218Y-60657162D01*
X33248144Y-60659870D01*
X33260774Y-60666814D01*
X33277031Y-60677492D01*
X33292864Y-60689774D01*
X33305397Y-60695197D01*
X33332956Y-60707123D01*
X33343443Y-60712260D01*
X33381708Y-60733297D01*
X33401116Y-60738280D01*
X33419510Y-60744578D01*
X33437905Y-60752538D01*
X33481054Y-60759371D01*
X33492484Y-60761739D01*
X33496397Y-60762743D01*
X33507845Y-60765684D01*
X33556044Y-60790246D01*
X33589200Y-60832992D01*
X33601000Y-60885786D01*
X33601000Y-61629700D01*
X33584387Y-61691700D01*
X33539000Y-61737087D01*
X33477000Y-61753700D01*
X32383940Y-61753700D01*
X32363436Y-61751436D01*
X32293344Y-61753639D01*
X32289450Y-61753700D01*
X32261848Y-61753700D01*
X32257853Y-61754204D01*
X32246229Y-61755118D01*
X32202568Y-61756490D01*
X32183328Y-61762080D01*
X32164281Y-61766025D01*
X32144409Y-61768535D01*
X32103799Y-61784613D01*
X32092754Y-61788394D01*
X32050811Y-61800580D01*
X32033569Y-61810778D01*
X32016097Y-61819338D01*
X31997466Y-61826714D01*
X31962138Y-61852381D01*
X31952380Y-61858791D01*
X31914779Y-61881029D01*
X31900610Y-61895198D01*
X31885822Y-61907828D01*
X31869613Y-61919605D01*
X31841772Y-61953258D01*
X31833911Y-61961896D01*
X31620208Y-62175599D01*
X31604111Y-62188496D01*
X31569657Y-62225185D01*
X31528511Y-62254102D01*
X31479266Y-62264300D01*
X31216052Y-62264300D01*
X31168599Y-62254861D01*
X31128371Y-62227981D01*
X30931803Y-62031412D01*
X30918903Y-62015311D01*
X30867774Y-61967297D01*
X30864977Y-61964586D01*
X30845470Y-61945079D01*
X30842290Y-61942612D01*
X30833424Y-61935039D01*
X30801582Y-61905138D01*
X30784024Y-61895485D01*
X30767764Y-61884804D01*
X30751936Y-61872527D01*
X30711851Y-61855180D01*
X30701361Y-61850041D01*
X30663091Y-61829002D01*
X30643691Y-61824021D01*
X30625284Y-61817719D01*
X30606897Y-61809762D01*
X30563758Y-61802929D01*
X30552324Y-61800561D01*
X30510019Y-61789700D01*
X30489984Y-61789700D01*
X30470586Y-61788173D01*
X30461702Y-61786766D01*
X30450805Y-61785040D01*
X30450804Y-61785040D01*
X30424484Y-61787528D01*
X30407325Y-61789150D01*
X30395656Y-61789700D01*
X26554140Y-61789700D01*
X26533636Y-61787436D01*
X26463544Y-61789639D01*
X26459650Y-61789700D01*
X26432048Y-61789700D01*
X26428053Y-61790204D01*
X26416429Y-61791118D01*
X26372768Y-61792490D01*
X26353529Y-61798080D01*
X26334480Y-61802025D01*
X26314608Y-61804535D01*
X26273993Y-61820615D01*
X26262949Y-61824396D01*
X26221011Y-61836582D01*
X26203764Y-61846781D01*
X26186300Y-61855336D01*
X26167667Y-61862714D01*
X26132326Y-61888389D01*
X26122568Y-61894799D01*
X26084979Y-61917029D01*
X26070810Y-61931198D01*
X26056022Y-61943828D01*
X26039813Y-61955605D01*
X26011972Y-61989258D01*
X26004111Y-61997896D01*
X22455908Y-65546099D01*
X22439810Y-65558996D01*
X22391796Y-65610125D01*
X22389091Y-65612917D01*
X22369574Y-65632434D01*
X22367115Y-65635605D01*
X22359542Y-65644472D01*
X22329635Y-65676320D01*
X22319985Y-65693874D01*
X22309309Y-65710128D01*
X22297026Y-65725963D01*
X22279675Y-65766058D01*
X22274538Y-65776544D01*
X22253502Y-65814807D01*
X22248521Y-65834209D01*
X22242220Y-65852611D01*
X22234261Y-65871002D01*
X22227428Y-65914142D01*
X22225060Y-65925574D01*
X22214200Y-65967878D01*
X22214200Y-65987916D01*
X22212673Y-66007315D01*
X22209540Y-66027094D01*
X20000500Y-66027094D01*
X20000500Y-42713603D01*
X22763500Y-42713603D01*
X22778402Y-42917217D01*
X22837616Y-43183038D01*
X22889806Y-43319494D01*
X22934907Y-43437414D01*
X23068196Y-43674910D01*
X23142313Y-43770894D01*
X23234645Y-43890469D01*
X23430704Y-44079494D01*
X23652199Y-44237959D01*
X23738935Y-44282553D01*
X23894403Y-44362485D01*
X24152159Y-44450419D01*
X24152161Y-44450419D01*
X24152163Y-44450420D01*
X24419970Y-44499886D01*
X24692130Y-44509832D01*
X24692130Y-44509831D01*
X24692131Y-44509832D01*
X24962839Y-44480046D01*
X25226326Y-44411162D01*
X25476975Y-44304647D01*
X25709444Y-44162773D01*
X25918779Y-43988563D01*
X26100518Y-43785731D01*
X26250788Y-43558598D01*
X26366386Y-43312006D01*
X26444847Y-43051211D01*
X26484500Y-42781771D01*
X26484500Y-42057600D01*
X26479510Y-41989429D01*
X26469597Y-41853982D01*
X26410383Y-41588161D01*
X26410382Y-41588158D01*
X26313093Y-41333786D01*
X26179804Y-41096290D01*
X26013357Y-40880734D01*
X26013354Y-40880730D01*
X25817295Y-40691705D01*
X25595800Y-40533240D01*
X25353602Y-40408717D01*
X25353598Y-40408715D01*
X25353597Y-40408715D01*
X25210913Y-40360038D01*
X25095836Y-40320779D01*
X24828029Y-40271313D01*
X24555869Y-40261367D01*
X24285162Y-40291153D01*
X24021674Y-40360038D01*
X23771024Y-40466553D01*
X23538556Y-40608426D01*
X23361685Y-40755620D01*
X23329221Y-40782637D01*
X23301842Y-40813194D01*
X23147480Y-40985471D01*
X22997210Y-41212605D01*
X22881615Y-41459189D01*
X22833804Y-41618108D01*
X22803153Y-41719989D01*
X22783434Y-41853982D01*
X22763500Y-41989432D01*
X22763500Y-42713603D01*
X20000500Y-42713603D01*
X20000500Y-29000000D01*
X21499459Y-29000000D01*
X21499617Y-29000383D01*
X21499758Y-29000441D01*
X21499900Y-29000500D01*
X21499901Y-29000500D01*
X24500099Y-29000500D01*
X24500100Y-29000500D01*
X24500193Y-29000460D01*
X24500383Y-29000383D01*
X24500541Y-29000000D01*
X26499459Y-29000000D01*
X26499617Y-29000383D01*
X26499758Y-29000441D01*
X26499900Y-29000500D01*
X26499901Y-29000500D01*
X29500099Y-29000500D01*
X29500100Y-29000500D01*
X29500193Y-29000460D01*
X29500383Y-29000383D01*
X29500541Y-29000000D01*
X31499459Y-29000000D01*
X31499617Y-29000383D01*
X31499758Y-29000441D01*
X31499900Y-29000500D01*
X31499901Y-29000500D01*
X34500099Y-29000500D01*
X34500100Y-29000500D01*
X34500193Y-29000460D01*
X34500383Y-29000383D01*
X34500541Y-29000000D01*
X36499459Y-29000000D01*
X36499617Y-29000383D01*
X36499758Y-29000441D01*
X36499900Y-29000500D01*
X36499901Y-29000500D01*
X39500099Y-29000500D01*
X39500100Y-29000500D01*
X39500193Y-29000460D01*
X39500383Y-29000383D01*
X39500541Y-29000000D01*
X41499459Y-29000000D01*
X41499617Y-29000383D01*
X41499758Y-29000441D01*
X41499900Y-29000500D01*
X41499901Y-29000500D01*
X44500099Y-29000500D01*
X44500100Y-29000500D01*
X44500193Y-29000460D01*
X44500383Y-29000383D01*
X44500541Y-29000000D01*
X46499459Y-29000000D01*
X46499617Y-29000383D01*
X46499758Y-29000441D01*
X46499900Y-29000500D01*
X46499901Y-29000500D01*
X49500099Y-29000500D01*
X49500100Y-29000500D01*
X49500193Y-29000460D01*
X49500383Y-29000383D01*
X49500541Y-29000000D01*
X49500383Y-28999617D01*
X49500381Y-28999616D01*
X49500100Y-28999500D01*
X49500099Y-28999500D01*
X46499901Y-28999500D01*
X46499900Y-28999500D01*
X46499618Y-28999616D01*
X46499616Y-28999618D01*
X46499459Y-28999999D01*
X46499459Y-29000000D01*
X44500541Y-29000000D01*
X44500383Y-28999617D01*
X44500381Y-28999616D01*
X44500100Y-28999500D01*
X44500099Y-28999500D01*
X41499901Y-28999500D01*
X41499900Y-28999500D01*
X41499618Y-28999616D01*
X41499616Y-28999618D01*
X41499459Y-28999999D01*
X41499459Y-29000000D01*
X39500541Y-29000000D01*
X39500383Y-28999617D01*
X39500381Y-28999616D01*
X39500100Y-28999500D01*
X39500099Y-28999500D01*
X36499901Y-28999500D01*
X36499900Y-28999500D01*
X36499618Y-28999616D01*
X36499616Y-28999618D01*
X36499459Y-28999999D01*
X36499459Y-29000000D01*
X34500541Y-29000000D01*
X34500383Y-28999617D01*
X34500381Y-28999616D01*
X34500100Y-28999500D01*
X34500099Y-28999500D01*
X31499901Y-28999500D01*
X31499900Y-28999500D01*
X31499618Y-28999616D01*
X31499616Y-28999618D01*
X31499459Y-28999999D01*
X31499459Y-29000000D01*
X29500541Y-29000000D01*
X29500383Y-28999617D01*
X29500381Y-28999616D01*
X29500100Y-28999500D01*
X29500099Y-28999500D01*
X26499901Y-28999500D01*
X26499900Y-28999500D01*
X26499618Y-28999616D01*
X26499616Y-28999618D01*
X26499459Y-28999999D01*
X26499459Y-29000000D01*
X24500541Y-29000000D01*
X24500383Y-28999617D01*
X24500381Y-28999616D01*
X24500100Y-28999500D01*
X24500099Y-28999500D01*
X21499901Y-28999500D01*
X21499900Y-28999500D01*
X21499618Y-28999616D01*
X21499616Y-28999618D01*
X21499459Y-28999999D01*
X21499459Y-29000000D01*
X20000500Y-29000000D01*
X20000500Y-23000000D01*
X25074551Y-23000000D01*
X25094317Y-23251149D01*
X25153126Y-23496110D01*
X25156100Y-23503289D01*
X25249534Y-23728859D01*
X25381164Y-23943659D01*
X25544776Y-24135224D01*
X25736341Y-24298836D01*
X25951141Y-24430466D01*
X26183889Y-24526873D01*
X26428852Y-24585683D01*
X26680000Y-24605449D01*
X26931148Y-24585683D01*
X27176111Y-24526873D01*
X27408859Y-24430466D01*
X27623659Y-24298836D01*
X27815224Y-24135224D01*
X27978836Y-23943659D01*
X28110466Y-23728859D01*
X28206873Y-23496111D01*
X28265683Y-23251148D01*
X28285449Y-23000000D01*
X28285449Y-22999999D01*
X42194551Y-22999999D01*
X42214317Y-23251149D01*
X42273126Y-23496110D01*
X42276100Y-23503289D01*
X42369534Y-23728859D01*
X42501164Y-23943659D01*
X42664776Y-24135224D01*
X42856341Y-24298836D01*
X43071141Y-24430466D01*
X43303889Y-24526873D01*
X43548852Y-24585683D01*
X43800000Y-24605449D01*
X44051148Y-24585683D01*
X44296111Y-24526873D01*
X44528859Y-24430466D01*
X44743659Y-24298836D01*
X44935224Y-24135224D01*
X45098836Y-23943659D01*
X45230466Y-23728859D01*
X45326873Y-23496111D01*
X45385683Y-23251148D01*
X45405449Y-23000000D01*
X45385683Y-22748852D01*
X45326873Y-22503889D01*
X45230466Y-22271141D01*
X45098836Y-22056341D01*
X44935224Y-21864776D01*
X44743659Y-21701164D01*
X44528859Y-21569534D01*
X44412484Y-21521330D01*
X44296110Y-21473126D01*
X44051149Y-21414317D01*
X43800000Y-21394551D01*
X43548850Y-21414317D01*
X43303889Y-21473126D01*
X43071139Y-21569535D01*
X42856342Y-21701163D01*
X42664776Y-21864776D01*
X42501163Y-22056342D01*
X42369535Y-22271139D01*
X42273126Y-22503889D01*
X42214317Y-22748850D01*
X42194551Y-22999999D01*
X28285449Y-22999999D01*
X28265683Y-22748852D01*
X28206873Y-22503889D01*
X28110466Y-22271141D01*
X27978836Y-22056341D01*
X27815224Y-21864776D01*
X27623659Y-21701164D01*
X27408859Y-21569534D01*
X27292484Y-21521330D01*
X27176110Y-21473126D01*
X26931149Y-21414317D01*
X26680000Y-21394551D01*
X26428850Y-21414317D01*
X26183889Y-21473126D01*
X25951139Y-21569535D01*
X25736342Y-21701163D01*
X25544776Y-21864776D01*
X25381163Y-22056342D01*
X25249535Y-22271139D01*
X25153126Y-22503889D01*
X25094317Y-22748850D01*
X25074551Y-23000000D01*
X20000500Y-23000000D01*
X20000500Y-20124500D01*
X20017113Y-20062500D01*
X20062500Y-20017113D01*
X20124500Y-20000500D01*
X50355500Y-20000500D01*
X50417500Y-20017113D01*
G37*
%TD.AperFunction*%
%TD*%
M02*
