%TF.GenerationSoftware,KiCad,Pcbnew,7.0.1*%
%TF.CreationDate,2023-04-20T06:23:29-07:00*%
%TF.ProjectId,wissystem_vca1,77697373-7973-4746-956d-5f766361312e,rev?*%
%TF.SameCoordinates,Original*%
%TF.FileFunction,Legend,Bot*%
%TF.FilePolarity,Positive*%
%FSLAX46Y46*%
G04 Gerber Fmt 4.6, Leading zero omitted, Abs format (unit mm)*
G04 Created by KiCad (PCBNEW 7.0.1) date 2023-04-20 06:23:29*
%MOMM*%
%LPD*%
G01*
G04 APERTURE LIST*
%ADD10C,0.150000*%
%ADD11C,1.000000*%
%ADD12C,0.120000*%
%ADD13O,2.720000X3.240000*%
%ADD14R,1.800000X1.800000*%
%ADD15C,1.800000*%
%ADD16R,1.930000X1.830000*%
%ADD17C,2.130000*%
G04 APERTURE END LIST*
D10*
X45104228Y-58955714D02*
X45104228Y-52955714D01*
X45104228Y-52955714D02*
X43675657Y-52955714D01*
X43675657Y-52955714D02*
X42818514Y-53241428D01*
X42818514Y-53241428D02*
X42247085Y-53812857D01*
X42247085Y-53812857D02*
X41961371Y-54384285D01*
X41961371Y-54384285D02*
X41675657Y-55527142D01*
X41675657Y-55527142D02*
X41675657Y-56384285D01*
X41675657Y-56384285D02*
X41961371Y-57527142D01*
X41961371Y-57527142D02*
X42247085Y-58098571D01*
X42247085Y-58098571D02*
X42818514Y-58670000D01*
X42818514Y-58670000D02*
X43675657Y-58955714D01*
X43675657Y-58955714D02*
X45104228Y-58955714D01*
X39104228Y-52955714D02*
X39104228Y-57812857D01*
X39104228Y-57812857D02*
X38818514Y-58384285D01*
X38818514Y-58384285D02*
X38532800Y-58670000D01*
X38532800Y-58670000D02*
X37961371Y-58955714D01*
X37961371Y-58955714D02*
X36818514Y-58955714D01*
X36818514Y-58955714D02*
X36247085Y-58670000D01*
X36247085Y-58670000D02*
X35961371Y-58384285D01*
X35961371Y-58384285D02*
X35675657Y-57812857D01*
X35675657Y-57812857D02*
X35675657Y-52955714D01*
X33104228Y-57241428D02*
X30247086Y-57241428D01*
X33675657Y-58955714D02*
X31675657Y-52955714D01*
X31675657Y-52955714D02*
X29675657Y-58955714D01*
X24818514Y-58955714D02*
X27675657Y-58955714D01*
X27675657Y-58955714D02*
X27675657Y-52955714D01*
X42961371Y-62455314D02*
X40961371Y-68455314D01*
X40961371Y-68455314D02*
X38961371Y-62455314D01*
X33532800Y-67883885D02*
X33818514Y-68169600D01*
X33818514Y-68169600D02*
X34675657Y-68455314D01*
X34675657Y-68455314D02*
X35247085Y-68455314D01*
X35247085Y-68455314D02*
X36104228Y-68169600D01*
X36104228Y-68169600D02*
X36675657Y-67598171D01*
X36675657Y-67598171D02*
X36961371Y-67026742D01*
X36961371Y-67026742D02*
X37247085Y-65883885D01*
X37247085Y-65883885D02*
X37247085Y-65026742D01*
X37247085Y-65026742D02*
X36961371Y-63883885D01*
X36961371Y-63883885D02*
X36675657Y-63312457D01*
X36675657Y-63312457D02*
X36104228Y-62741028D01*
X36104228Y-62741028D02*
X35247085Y-62455314D01*
X35247085Y-62455314D02*
X34675657Y-62455314D01*
X34675657Y-62455314D02*
X33818514Y-62741028D01*
X33818514Y-62741028D02*
X33532800Y-63026742D01*
X31247085Y-66741028D02*
X28389943Y-66741028D01*
X31818514Y-68455314D02*
X29818514Y-62455314D01*
X29818514Y-62455314D02*
X27818514Y-68455314D01*
X36449000Y-111810800D02*
X45034200Y-111810800D01*
X25146000Y-111810800D02*
X33731200Y-111810800D01*
X25120600Y-111810800D02*
X25120600Y-113080800D01*
X45034200Y-111810800D02*
X45034200Y-113080800D01*
X25196800Y-90932000D02*
X25196800Y-92202000D01*
X25222200Y-90932000D02*
X33807400Y-90932000D01*
X45110400Y-90932000D02*
X45110400Y-92202000D01*
X36525200Y-90932000D02*
X45110400Y-90932000D01*
X35472761Y-110924914D02*
X35365619Y-110829676D01*
X35365619Y-110829676D02*
X35163238Y-110734438D01*
X35163238Y-110734438D02*
X34687047Y-110734438D01*
X34687047Y-110734438D02*
X34508476Y-110829676D01*
X34508476Y-110829676D02*
X34425142Y-110924914D01*
X34425142Y-110924914D02*
X34353714Y-111115390D01*
X34353714Y-111115390D02*
X34377523Y-111305866D01*
X34377523Y-111305866D02*
X34508476Y-111591580D01*
X34508476Y-111591580D02*
X35794190Y-112734438D01*
X35794190Y-112734438D02*
X34556095Y-112734438D01*
X34657695Y-91906438D02*
X35800552Y-91906438D01*
X35229123Y-91906438D02*
X34979123Y-89906438D01*
X34979123Y-89906438D02*
X35205314Y-90192152D01*
X35205314Y-90192152D02*
X35419600Y-90382628D01*
X35419600Y-90382628D02*
X35621980Y-90477866D01*
D11*
X27698819Y-77160285D02*
X27460723Y-76922190D01*
X27460723Y-76922190D02*
X26984533Y-76684095D01*
X26984533Y-76684095D02*
X25794057Y-76684095D01*
X25794057Y-76684095D02*
X25317866Y-76922190D01*
X25317866Y-76922190D02*
X25079771Y-77160285D01*
X25079771Y-77160285D02*
X24841676Y-77636476D01*
X24841676Y-77636476D02*
X24841676Y-78112666D01*
X24841676Y-78112666D02*
X25079771Y-78826952D01*
X25079771Y-78826952D02*
X27936914Y-81684095D01*
X27936914Y-81684095D02*
X24841676Y-81684095D01*
X42824876Y-45108095D02*
X45682019Y-45108095D01*
X44253447Y-45108095D02*
X44253447Y-40108095D01*
X44253447Y-40108095D02*
X44729638Y-40822380D01*
X44729638Y-40822380D02*
X45205828Y-41298571D01*
X45205828Y-41298571D02*
X45682019Y-41536666D01*
D10*
X34045542Y-135986819D02*
X33807447Y-136986819D01*
X33807447Y-136986819D02*
X33616971Y-136272533D01*
X33616971Y-136272533D02*
X33426495Y-136986819D01*
X33426495Y-136986819D02*
X33188400Y-135986819D01*
X32807447Y-136986819D02*
X32807447Y-136320152D01*
X32807447Y-135986819D02*
X32855066Y-136034438D01*
X32855066Y-136034438D02*
X32807447Y-136082057D01*
X32807447Y-136082057D02*
X32759828Y-136034438D01*
X32759828Y-136034438D02*
X32807447Y-135986819D01*
X32807447Y-135986819D02*
X32807447Y-136082057D01*
X32378876Y-136939200D02*
X32283638Y-136986819D01*
X32283638Y-136986819D02*
X32093162Y-136986819D01*
X32093162Y-136986819D02*
X31997924Y-136939200D01*
X31997924Y-136939200D02*
X31950305Y-136843961D01*
X31950305Y-136843961D02*
X31950305Y-136796342D01*
X31950305Y-136796342D02*
X31997924Y-136701104D01*
X31997924Y-136701104D02*
X32093162Y-136653485D01*
X32093162Y-136653485D02*
X32236019Y-136653485D01*
X32236019Y-136653485D02*
X32331257Y-136605866D01*
X32331257Y-136605866D02*
X32378876Y-136510628D01*
X32378876Y-136510628D02*
X32378876Y-136463009D01*
X32378876Y-136463009D02*
X32331257Y-136367771D01*
X32331257Y-136367771D02*
X32236019Y-136320152D01*
X32236019Y-136320152D02*
X32093162Y-136320152D01*
X32093162Y-136320152D02*
X31997924Y-136367771D01*
X30759828Y-136986819D02*
X30759828Y-135986819D01*
X30759828Y-135986819D02*
X30521733Y-135986819D01*
X30521733Y-135986819D02*
X30378876Y-136034438D01*
X30378876Y-136034438D02*
X30283638Y-136129676D01*
X30283638Y-136129676D02*
X30236019Y-136224914D01*
X30236019Y-136224914D02*
X30188400Y-136415390D01*
X30188400Y-136415390D02*
X30188400Y-136558247D01*
X30188400Y-136558247D02*
X30236019Y-136748723D01*
X30236019Y-136748723D02*
X30283638Y-136843961D01*
X30283638Y-136843961D02*
X30378876Y-136939200D01*
X30378876Y-136939200D02*
X30521733Y-136986819D01*
X30521733Y-136986819D02*
X30759828Y-136986819D01*
X29378876Y-136939200D02*
X29474114Y-136986819D01*
X29474114Y-136986819D02*
X29664590Y-136986819D01*
X29664590Y-136986819D02*
X29759828Y-136939200D01*
X29759828Y-136939200D02*
X29807447Y-136843961D01*
X29807447Y-136843961D02*
X29807447Y-136463009D01*
X29807447Y-136463009D02*
X29759828Y-136367771D01*
X29759828Y-136367771D02*
X29664590Y-136320152D01*
X29664590Y-136320152D02*
X29474114Y-136320152D01*
X29474114Y-136320152D02*
X29378876Y-136367771D01*
X29378876Y-136367771D02*
X29331257Y-136463009D01*
X29331257Y-136463009D02*
X29331257Y-136558247D01*
X29331257Y-136558247D02*
X29807447Y-136653485D01*
X28950304Y-136939200D02*
X28855066Y-136986819D01*
X28855066Y-136986819D02*
X28664590Y-136986819D01*
X28664590Y-136986819D02*
X28569352Y-136939200D01*
X28569352Y-136939200D02*
X28521733Y-136843961D01*
X28521733Y-136843961D02*
X28521733Y-136796342D01*
X28521733Y-136796342D02*
X28569352Y-136701104D01*
X28569352Y-136701104D02*
X28664590Y-136653485D01*
X28664590Y-136653485D02*
X28807447Y-136653485D01*
X28807447Y-136653485D02*
X28902685Y-136605866D01*
X28902685Y-136605866D02*
X28950304Y-136510628D01*
X28950304Y-136510628D02*
X28950304Y-136463009D01*
X28950304Y-136463009D02*
X28902685Y-136367771D01*
X28902685Y-136367771D02*
X28807447Y-136320152D01*
X28807447Y-136320152D02*
X28664590Y-136320152D01*
X28664590Y-136320152D02*
X28569352Y-136367771D01*
X28093161Y-136986819D02*
X28093161Y-136320152D01*
X28093161Y-135986819D02*
X28140780Y-136034438D01*
X28140780Y-136034438D02*
X28093161Y-136082057D01*
X28093161Y-136082057D02*
X28045542Y-136034438D01*
X28045542Y-136034438D02*
X28093161Y-135986819D01*
X28093161Y-135986819D02*
X28093161Y-136082057D01*
X27188400Y-136320152D02*
X27188400Y-137129676D01*
X27188400Y-137129676D02*
X27236019Y-137224914D01*
X27236019Y-137224914D02*
X27283638Y-137272533D01*
X27283638Y-137272533D02*
X27378876Y-137320152D01*
X27378876Y-137320152D02*
X27521733Y-137320152D01*
X27521733Y-137320152D02*
X27616971Y-137272533D01*
X27188400Y-136939200D02*
X27283638Y-136986819D01*
X27283638Y-136986819D02*
X27474114Y-136986819D01*
X27474114Y-136986819D02*
X27569352Y-136939200D01*
X27569352Y-136939200D02*
X27616971Y-136891580D01*
X27616971Y-136891580D02*
X27664590Y-136796342D01*
X27664590Y-136796342D02*
X27664590Y-136510628D01*
X27664590Y-136510628D02*
X27616971Y-136415390D01*
X27616971Y-136415390D02*
X27569352Y-136367771D01*
X27569352Y-136367771D02*
X27474114Y-136320152D01*
X27474114Y-136320152D02*
X27283638Y-136320152D01*
X27283638Y-136320152D02*
X27188400Y-136367771D01*
X26712209Y-136320152D02*
X26712209Y-136986819D01*
X26712209Y-136415390D02*
X26664590Y-136367771D01*
X26664590Y-136367771D02*
X26569352Y-136320152D01*
X26569352Y-136320152D02*
X26426495Y-136320152D01*
X26426495Y-136320152D02*
X26331257Y-136367771D01*
X26331257Y-136367771D02*
X26283638Y-136463009D01*
X26283638Y-136463009D02*
X26283638Y-136986819D01*
X25855066Y-136939200D02*
X25759828Y-136986819D01*
X25759828Y-136986819D02*
X25569352Y-136986819D01*
X25569352Y-136986819D02*
X25474114Y-136939200D01*
X25474114Y-136939200D02*
X25426495Y-136843961D01*
X25426495Y-136843961D02*
X25426495Y-136796342D01*
X25426495Y-136796342D02*
X25474114Y-136701104D01*
X25474114Y-136701104D02*
X25569352Y-136653485D01*
X25569352Y-136653485D02*
X25712209Y-136653485D01*
X25712209Y-136653485D02*
X25807447Y-136605866D01*
X25807447Y-136605866D02*
X25855066Y-136510628D01*
X25855066Y-136510628D02*
X25855066Y-136463009D01*
X25855066Y-136463009D02*
X25807447Y-136367771D01*
X25807447Y-136367771D02*
X25712209Y-136320152D01*
X25712209Y-136320152D02*
X25569352Y-136320152D01*
X25569352Y-136320152D02*
X25474114Y-136367771D01*
X24283637Y-136082057D02*
X24236018Y-136034438D01*
X24236018Y-136034438D02*
X24140780Y-135986819D01*
X24140780Y-135986819D02*
X23902685Y-135986819D01*
X23902685Y-135986819D02*
X23807447Y-136034438D01*
X23807447Y-136034438D02*
X23759828Y-136082057D01*
X23759828Y-136082057D02*
X23712209Y-136177295D01*
X23712209Y-136177295D02*
X23712209Y-136272533D01*
X23712209Y-136272533D02*
X23759828Y-136415390D01*
X23759828Y-136415390D02*
X24331256Y-136986819D01*
X24331256Y-136986819D02*
X23712209Y-136986819D01*
X23093161Y-135986819D02*
X22997923Y-135986819D01*
X22997923Y-135986819D02*
X22902685Y-136034438D01*
X22902685Y-136034438D02*
X22855066Y-136082057D01*
X22855066Y-136082057D02*
X22807447Y-136177295D01*
X22807447Y-136177295D02*
X22759828Y-136367771D01*
X22759828Y-136367771D02*
X22759828Y-136605866D01*
X22759828Y-136605866D02*
X22807447Y-136796342D01*
X22807447Y-136796342D02*
X22855066Y-136891580D01*
X22855066Y-136891580D02*
X22902685Y-136939200D01*
X22902685Y-136939200D02*
X22997923Y-136986819D01*
X22997923Y-136986819D02*
X23093161Y-136986819D01*
X23093161Y-136986819D02*
X23188399Y-136939200D01*
X23188399Y-136939200D02*
X23236018Y-136891580D01*
X23236018Y-136891580D02*
X23283637Y-136796342D01*
X23283637Y-136796342D02*
X23331256Y-136605866D01*
X23331256Y-136605866D02*
X23331256Y-136367771D01*
X23331256Y-136367771D02*
X23283637Y-136177295D01*
X23283637Y-136177295D02*
X23236018Y-136082057D01*
X23236018Y-136082057D02*
X23188399Y-136034438D01*
X23188399Y-136034438D02*
X23093161Y-135986819D01*
X22378875Y-136082057D02*
X22331256Y-136034438D01*
X22331256Y-136034438D02*
X22236018Y-135986819D01*
X22236018Y-135986819D02*
X21997923Y-135986819D01*
X21997923Y-135986819D02*
X21902685Y-136034438D01*
X21902685Y-136034438D02*
X21855066Y-136082057D01*
X21855066Y-136082057D02*
X21807447Y-136177295D01*
X21807447Y-136177295D02*
X21807447Y-136272533D01*
X21807447Y-136272533D02*
X21855066Y-136415390D01*
X21855066Y-136415390D02*
X22426494Y-136986819D01*
X22426494Y-136986819D02*
X21807447Y-136986819D01*
X21474113Y-135986819D02*
X20855066Y-135986819D01*
X20855066Y-135986819D02*
X21188399Y-136367771D01*
X21188399Y-136367771D02*
X21045542Y-136367771D01*
X21045542Y-136367771D02*
X20950304Y-136415390D01*
X20950304Y-136415390D02*
X20902685Y-136463009D01*
X20902685Y-136463009D02*
X20855066Y-136558247D01*
X20855066Y-136558247D02*
X20855066Y-136796342D01*
X20855066Y-136796342D02*
X20902685Y-136891580D01*
X20902685Y-136891580D02*
X20950304Y-136939200D01*
X20950304Y-136939200D02*
X21045542Y-136986819D01*
X21045542Y-136986819D02*
X21331256Y-136986819D01*
X21331256Y-136986819D02*
X21426494Y-136939200D01*
X21426494Y-136939200D02*
X21474113Y-136891580D01*
X49590342Y-134208819D02*
X49352247Y-135208819D01*
X49352247Y-135208819D02*
X49161771Y-134494533D01*
X49161771Y-134494533D02*
X48971295Y-135208819D01*
X48971295Y-135208819D02*
X48733200Y-134208819D01*
X48352247Y-135208819D02*
X48352247Y-134542152D01*
X48352247Y-134208819D02*
X48399866Y-134256438D01*
X48399866Y-134256438D02*
X48352247Y-134304057D01*
X48352247Y-134304057D02*
X48304628Y-134256438D01*
X48304628Y-134256438D02*
X48352247Y-134208819D01*
X48352247Y-134208819D02*
X48352247Y-134304057D01*
X47923676Y-135161200D02*
X47828438Y-135208819D01*
X47828438Y-135208819D02*
X47637962Y-135208819D01*
X47637962Y-135208819D02*
X47542724Y-135161200D01*
X47542724Y-135161200D02*
X47495105Y-135065961D01*
X47495105Y-135065961D02*
X47495105Y-135018342D01*
X47495105Y-135018342D02*
X47542724Y-134923104D01*
X47542724Y-134923104D02*
X47637962Y-134875485D01*
X47637962Y-134875485D02*
X47780819Y-134875485D01*
X47780819Y-134875485D02*
X47876057Y-134827866D01*
X47876057Y-134827866D02*
X47923676Y-134732628D01*
X47923676Y-134732628D02*
X47923676Y-134685009D01*
X47923676Y-134685009D02*
X47876057Y-134589771D01*
X47876057Y-134589771D02*
X47780819Y-134542152D01*
X47780819Y-134542152D02*
X47637962Y-134542152D01*
X47637962Y-134542152D02*
X47542724Y-134589771D01*
X47114152Y-135161200D02*
X47018914Y-135208819D01*
X47018914Y-135208819D02*
X46828438Y-135208819D01*
X46828438Y-135208819D02*
X46733200Y-135161200D01*
X46733200Y-135161200D02*
X46685581Y-135065961D01*
X46685581Y-135065961D02*
X46685581Y-135018342D01*
X46685581Y-135018342D02*
X46733200Y-134923104D01*
X46733200Y-134923104D02*
X46828438Y-134875485D01*
X46828438Y-134875485D02*
X46971295Y-134875485D01*
X46971295Y-134875485D02*
X47066533Y-134827866D01*
X47066533Y-134827866D02*
X47114152Y-134732628D01*
X47114152Y-134732628D02*
X47114152Y-134685009D01*
X47114152Y-134685009D02*
X47066533Y-134589771D01*
X47066533Y-134589771D02*
X46971295Y-134542152D01*
X46971295Y-134542152D02*
X46828438Y-134542152D01*
X46828438Y-134542152D02*
X46733200Y-134589771D01*
X46352247Y-134542152D02*
X46114152Y-135208819D01*
X45876057Y-134542152D02*
X46114152Y-135208819D01*
X46114152Y-135208819D02*
X46209390Y-135446914D01*
X46209390Y-135446914D02*
X46257009Y-135494533D01*
X46257009Y-135494533D02*
X46352247Y-135542152D01*
X45542723Y-135161200D02*
X45447485Y-135208819D01*
X45447485Y-135208819D02*
X45257009Y-135208819D01*
X45257009Y-135208819D02*
X45161771Y-135161200D01*
X45161771Y-135161200D02*
X45114152Y-135065961D01*
X45114152Y-135065961D02*
X45114152Y-135018342D01*
X45114152Y-135018342D02*
X45161771Y-134923104D01*
X45161771Y-134923104D02*
X45257009Y-134875485D01*
X45257009Y-134875485D02*
X45399866Y-134875485D01*
X45399866Y-134875485D02*
X45495104Y-134827866D01*
X45495104Y-134827866D02*
X45542723Y-134732628D01*
X45542723Y-134732628D02*
X45542723Y-134685009D01*
X45542723Y-134685009D02*
X45495104Y-134589771D01*
X45495104Y-134589771D02*
X45399866Y-134542152D01*
X45399866Y-134542152D02*
X45257009Y-134542152D01*
X45257009Y-134542152D02*
X45161771Y-134589771D01*
X44828437Y-134542152D02*
X44447485Y-134542152D01*
X44685580Y-134208819D02*
X44685580Y-135065961D01*
X44685580Y-135065961D02*
X44637961Y-135161200D01*
X44637961Y-135161200D02*
X44542723Y-135208819D01*
X44542723Y-135208819D02*
X44447485Y-135208819D01*
X43733199Y-135161200D02*
X43828437Y-135208819D01*
X43828437Y-135208819D02*
X44018913Y-135208819D01*
X44018913Y-135208819D02*
X44114151Y-135161200D01*
X44114151Y-135161200D02*
X44161770Y-135065961D01*
X44161770Y-135065961D02*
X44161770Y-134685009D01*
X44161770Y-134685009D02*
X44114151Y-134589771D01*
X44114151Y-134589771D02*
X44018913Y-134542152D01*
X44018913Y-134542152D02*
X43828437Y-134542152D01*
X43828437Y-134542152D02*
X43733199Y-134589771D01*
X43733199Y-134589771D02*
X43685580Y-134685009D01*
X43685580Y-134685009D02*
X43685580Y-134780247D01*
X43685580Y-134780247D02*
X44161770Y-134875485D01*
X43257008Y-135208819D02*
X43257008Y-134542152D01*
X43257008Y-134637390D02*
X43209389Y-134589771D01*
X43209389Y-134589771D02*
X43114151Y-134542152D01*
X43114151Y-134542152D02*
X42971294Y-134542152D01*
X42971294Y-134542152D02*
X42876056Y-134589771D01*
X42876056Y-134589771D02*
X42828437Y-134685009D01*
X42828437Y-134685009D02*
X42828437Y-135208819D01*
X42828437Y-134685009D02*
X42780818Y-134589771D01*
X42780818Y-134589771D02*
X42685580Y-134542152D01*
X42685580Y-134542152D02*
X42542723Y-134542152D01*
X42542723Y-134542152D02*
X42447484Y-134589771D01*
X42447484Y-134589771D02*
X42399865Y-134685009D01*
X42399865Y-134685009D02*
X42399865Y-135208819D01*
X40637961Y-135208819D02*
X41209389Y-135208819D01*
X40923675Y-135208819D02*
X40923675Y-134208819D01*
X40923675Y-134208819D02*
X41018913Y-134351676D01*
X41018913Y-134351676D02*
X41114151Y-134446914D01*
X41114151Y-134446914D02*
X41209389Y-134494533D01*
X39447484Y-134827866D02*
X38685580Y-134827866D01*
X37447484Y-135208819D02*
X37447484Y-134208819D01*
X37447484Y-134208819D02*
X37209389Y-134208819D01*
X37209389Y-134208819D02*
X37066532Y-134256438D01*
X37066532Y-134256438D02*
X36971294Y-134351676D01*
X36971294Y-134351676D02*
X36923675Y-134446914D01*
X36923675Y-134446914D02*
X36876056Y-134637390D01*
X36876056Y-134637390D02*
X36876056Y-134780247D01*
X36876056Y-134780247D02*
X36923675Y-134970723D01*
X36923675Y-134970723D02*
X36971294Y-135065961D01*
X36971294Y-135065961D02*
X37066532Y-135161200D01*
X37066532Y-135161200D02*
X37209389Y-135208819D01*
X37209389Y-135208819D02*
X37447484Y-135208819D01*
X36018913Y-134542152D02*
X36018913Y-135208819D01*
X36447484Y-134542152D02*
X36447484Y-135065961D01*
X36447484Y-135065961D02*
X36399865Y-135161200D01*
X36399865Y-135161200D02*
X36304627Y-135208819D01*
X36304627Y-135208819D02*
X36161770Y-135208819D01*
X36161770Y-135208819D02*
X36066532Y-135161200D01*
X36066532Y-135161200D02*
X36018913Y-135113580D01*
X35114151Y-135208819D02*
X35114151Y-134685009D01*
X35114151Y-134685009D02*
X35161770Y-134589771D01*
X35161770Y-134589771D02*
X35257008Y-134542152D01*
X35257008Y-134542152D02*
X35447484Y-134542152D01*
X35447484Y-134542152D02*
X35542722Y-134589771D01*
X35114151Y-135161200D02*
X35209389Y-135208819D01*
X35209389Y-135208819D02*
X35447484Y-135208819D01*
X35447484Y-135208819D02*
X35542722Y-135161200D01*
X35542722Y-135161200D02*
X35590341Y-135065961D01*
X35590341Y-135065961D02*
X35590341Y-134970723D01*
X35590341Y-134970723D02*
X35542722Y-134875485D01*
X35542722Y-134875485D02*
X35447484Y-134827866D01*
X35447484Y-134827866D02*
X35209389Y-134827866D01*
X35209389Y-134827866D02*
X35114151Y-134780247D01*
X34495103Y-135208819D02*
X34590341Y-135161200D01*
X34590341Y-135161200D02*
X34637960Y-135065961D01*
X34637960Y-135065961D02*
X34637960Y-134208819D01*
X33495102Y-134208819D02*
X33161769Y-135208819D01*
X33161769Y-135208819D02*
X32828436Y-134208819D01*
X31923674Y-135113580D02*
X31971293Y-135161200D01*
X31971293Y-135161200D02*
X32114150Y-135208819D01*
X32114150Y-135208819D02*
X32209388Y-135208819D01*
X32209388Y-135208819D02*
X32352245Y-135161200D01*
X32352245Y-135161200D02*
X32447483Y-135065961D01*
X32447483Y-135065961D02*
X32495102Y-134970723D01*
X32495102Y-134970723D02*
X32542721Y-134780247D01*
X32542721Y-134780247D02*
X32542721Y-134637390D01*
X32542721Y-134637390D02*
X32495102Y-134446914D01*
X32495102Y-134446914D02*
X32447483Y-134351676D01*
X32447483Y-134351676D02*
X32352245Y-134256438D01*
X32352245Y-134256438D02*
X32209388Y-134208819D01*
X32209388Y-134208819D02*
X32114150Y-134208819D01*
X32114150Y-134208819D02*
X31971293Y-134256438D01*
X31971293Y-134256438D02*
X31923674Y-134304057D01*
X31542721Y-134923104D02*
X31066531Y-134923104D01*
X31637959Y-135208819D02*
X31304626Y-134208819D01*
X31304626Y-134208819D02*
X30971293Y-135208819D01*
X45583504Y-114736419D02*
X45583504Y-113736419D01*
X45107314Y-114736419D02*
X45107314Y-113736419D01*
X45107314Y-113736419D02*
X44535886Y-114736419D01*
X44535886Y-114736419D02*
X44535886Y-113736419D01*
X35258476Y-114641180D02*
X35306095Y-114688800D01*
X35306095Y-114688800D02*
X35448952Y-114736419D01*
X35448952Y-114736419D02*
X35544190Y-114736419D01*
X35544190Y-114736419D02*
X35687047Y-114688800D01*
X35687047Y-114688800D02*
X35782285Y-114593561D01*
X35782285Y-114593561D02*
X35829904Y-114498323D01*
X35829904Y-114498323D02*
X35877523Y-114307847D01*
X35877523Y-114307847D02*
X35877523Y-114164990D01*
X35877523Y-114164990D02*
X35829904Y-113974514D01*
X35829904Y-113974514D02*
X35782285Y-113879276D01*
X35782285Y-113879276D02*
X35687047Y-113784038D01*
X35687047Y-113784038D02*
X35544190Y-113736419D01*
X35544190Y-113736419D02*
X35448952Y-113736419D01*
X35448952Y-113736419D02*
X35306095Y-113784038D01*
X35306095Y-113784038D02*
X35258476Y-113831657D01*
X34972761Y-113736419D02*
X34639428Y-114736419D01*
X34639428Y-114736419D02*
X34306095Y-113736419D01*
X26241428Y-113736419D02*
X26050952Y-113736419D01*
X26050952Y-113736419D02*
X25955714Y-113784038D01*
X25955714Y-113784038D02*
X25860476Y-113879276D01*
X25860476Y-113879276D02*
X25812857Y-114069752D01*
X25812857Y-114069752D02*
X25812857Y-114403085D01*
X25812857Y-114403085D02*
X25860476Y-114593561D01*
X25860476Y-114593561D02*
X25955714Y-114688800D01*
X25955714Y-114688800D02*
X26050952Y-114736419D01*
X26050952Y-114736419D02*
X26241428Y-114736419D01*
X26241428Y-114736419D02*
X26336666Y-114688800D01*
X26336666Y-114688800D02*
X26431904Y-114593561D01*
X26431904Y-114593561D02*
X26479523Y-114403085D01*
X26479523Y-114403085D02*
X26479523Y-114069752D01*
X26479523Y-114069752D02*
X26431904Y-113879276D01*
X26431904Y-113879276D02*
X26336666Y-113784038D01*
X26336666Y-113784038D02*
X26241428Y-113736419D01*
X25384285Y-113736419D02*
X25384285Y-114545942D01*
X25384285Y-114545942D02*
X25336666Y-114641180D01*
X25336666Y-114641180D02*
X25289047Y-114688800D01*
X25289047Y-114688800D02*
X25193809Y-114736419D01*
X25193809Y-114736419D02*
X25003333Y-114736419D01*
X25003333Y-114736419D02*
X24908095Y-114688800D01*
X24908095Y-114688800D02*
X24860476Y-114641180D01*
X24860476Y-114641180D02*
X24812857Y-114545942D01*
X24812857Y-114545942D02*
X24812857Y-113736419D01*
X24479523Y-113736419D02*
X23908095Y-113736419D01*
X24193809Y-114736419D02*
X24193809Y-113736419D01*
X26292228Y-92908419D02*
X26101752Y-92908419D01*
X26101752Y-92908419D02*
X26006514Y-92956038D01*
X26006514Y-92956038D02*
X25911276Y-93051276D01*
X25911276Y-93051276D02*
X25863657Y-93241752D01*
X25863657Y-93241752D02*
X25863657Y-93575085D01*
X25863657Y-93575085D02*
X25911276Y-93765561D01*
X25911276Y-93765561D02*
X26006514Y-93860800D01*
X26006514Y-93860800D02*
X26101752Y-93908419D01*
X26101752Y-93908419D02*
X26292228Y-93908419D01*
X26292228Y-93908419D02*
X26387466Y-93860800D01*
X26387466Y-93860800D02*
X26482704Y-93765561D01*
X26482704Y-93765561D02*
X26530323Y-93575085D01*
X26530323Y-93575085D02*
X26530323Y-93241752D01*
X26530323Y-93241752D02*
X26482704Y-93051276D01*
X26482704Y-93051276D02*
X26387466Y-92956038D01*
X26387466Y-92956038D02*
X26292228Y-92908419D01*
X25435085Y-92908419D02*
X25435085Y-93717942D01*
X25435085Y-93717942D02*
X25387466Y-93813180D01*
X25387466Y-93813180D02*
X25339847Y-93860800D01*
X25339847Y-93860800D02*
X25244609Y-93908419D01*
X25244609Y-93908419D02*
X25054133Y-93908419D01*
X25054133Y-93908419D02*
X24958895Y-93860800D01*
X24958895Y-93860800D02*
X24911276Y-93813180D01*
X24911276Y-93813180D02*
X24863657Y-93717942D01*
X24863657Y-93717942D02*
X24863657Y-92908419D01*
X24530323Y-92908419D02*
X23958895Y-92908419D01*
X24244609Y-93908419D02*
X24244609Y-92908419D01*
X45634304Y-93908419D02*
X45634304Y-92908419D01*
X45158114Y-93908419D02*
X45158114Y-92908419D01*
X45158114Y-92908419D02*
X44586686Y-93908419D01*
X44586686Y-93908419D02*
X44586686Y-92908419D01*
X35309276Y-93813180D02*
X35356895Y-93860800D01*
X35356895Y-93860800D02*
X35499752Y-93908419D01*
X35499752Y-93908419D02*
X35594990Y-93908419D01*
X35594990Y-93908419D02*
X35737847Y-93860800D01*
X35737847Y-93860800D02*
X35833085Y-93765561D01*
X35833085Y-93765561D02*
X35880704Y-93670323D01*
X35880704Y-93670323D02*
X35928323Y-93479847D01*
X35928323Y-93479847D02*
X35928323Y-93336990D01*
X35928323Y-93336990D02*
X35880704Y-93146514D01*
X35880704Y-93146514D02*
X35833085Y-93051276D01*
X35833085Y-93051276D02*
X35737847Y-92956038D01*
X35737847Y-92956038D02*
X35594990Y-92908419D01*
X35594990Y-92908419D02*
X35499752Y-92908419D01*
X35499752Y-92908419D02*
X35356895Y-92956038D01*
X35356895Y-92956038D02*
X35309276Y-93003657D01*
X35023561Y-92908419D02*
X34690228Y-93908419D01*
X34690228Y-93908419D02*
X34356895Y-92908419D01*
X49433840Y-79140960D02*
G75*
G03*
X49433840Y-79140960I-8235040J0D01*
G01*
X37597440Y-42418000D02*
G75*
G03*
X37597440Y-42418000I-8235040J0D01*
G01*
D12*
%TO.C,RV4*%
X34304000Y-49005600D02*
X34304000Y-44285600D01*
X33114000Y-49005600D02*
X34294000Y-49005600D01*
X30214000Y-49005600D02*
X30744000Y-49005600D01*
X27764000Y-49005600D02*
X28594000Y-49005600D01*
X24554000Y-49005600D02*
X26044000Y-49005600D01*
X24554000Y-49005600D02*
X24554000Y-44285600D01*
X34294000Y-40475600D02*
X34294000Y-37415600D01*
X24554000Y-40475600D02*
X24554000Y-37415600D01*
X24554000Y-37415600D02*
X34294000Y-37415600D01*
%TO.C,J_OUT1*%
X29696800Y-98631600D02*
X29696800Y-109131600D01*
X26426800Y-95481600D02*
X26426800Y-96281600D01*
X26426800Y-95481600D02*
X25566800Y-95481600D01*
X25996800Y-109131600D02*
X29696800Y-109131600D01*
X25916800Y-98631600D02*
X29696800Y-98631600D01*
X20696800Y-98631600D02*
X24476800Y-98631600D01*
X20696800Y-98631600D02*
X20696800Y-109131600D01*
X20696800Y-109131600D02*
X24396800Y-109131600D01*
X26996800Y-103131600D02*
G75*
G03*
X26996800Y-103131600I-1800000J0D01*
G01*
%TO.C,J_CV2*%
X37029800Y-123788400D02*
G75*
G03*
X37029800Y-123788400I-1800000J0D01*
G01*
X30729800Y-129788400D02*
X34429800Y-129788400D01*
X30729800Y-119288400D02*
X30729800Y-129788400D01*
X30729800Y-119288400D02*
X34509800Y-119288400D01*
X35949800Y-119288400D02*
X39729800Y-119288400D01*
X36029800Y-129788400D02*
X39729800Y-129788400D01*
X36459800Y-116138400D02*
X35599800Y-116138400D01*
X36459800Y-116138400D02*
X36459800Y-116938400D01*
X39729800Y-119288400D02*
X39729800Y-129788400D01*
%TO.C,J_OUT2*%
X29696800Y-119288400D02*
X29696800Y-129788400D01*
X26426800Y-116138400D02*
X26426800Y-116938400D01*
X26426800Y-116138400D02*
X25566800Y-116138400D01*
X25996800Y-129788400D02*
X29696800Y-129788400D01*
X25916800Y-119288400D02*
X29696800Y-119288400D01*
X20696800Y-119288400D02*
X24476800Y-119288400D01*
X20696800Y-119288400D02*
X20696800Y-129788400D01*
X20696800Y-129788400D02*
X24396800Y-129788400D01*
X26996800Y-123788400D02*
G75*
G03*
X26996800Y-123788400I-1800000J0D01*
G01*
%TO.C,J_SIG3*%
X49762800Y-119288400D02*
X49762800Y-129788400D01*
X46492800Y-116138400D02*
X46492800Y-116938400D01*
X46492800Y-116138400D02*
X45632800Y-116138400D01*
X46062800Y-129788400D02*
X49762800Y-129788400D01*
X45982800Y-119288400D02*
X49762800Y-119288400D01*
X40762800Y-119288400D02*
X44542800Y-119288400D01*
X40762800Y-119288400D02*
X40762800Y-129788400D01*
X40762800Y-129788400D02*
X44462800Y-129788400D01*
X47062800Y-123788400D02*
G75*
G03*
X47062800Y-123788400I-1800000J0D01*
G01*
%TO.C,J_CV1*%
X37029800Y-103131600D02*
G75*
G03*
X37029800Y-103131600I-1800000J0D01*
G01*
X30729800Y-109131600D02*
X34429800Y-109131600D01*
X30729800Y-98631600D02*
X30729800Y-109131600D01*
X30729800Y-98631600D02*
X34509800Y-98631600D01*
X35949800Y-98631600D02*
X39729800Y-98631600D01*
X36029800Y-109131600D02*
X39729800Y-109131600D01*
X36459800Y-95481600D02*
X35599800Y-95481600D01*
X36459800Y-95481600D02*
X36459800Y-96281600D01*
X39729800Y-98631600D02*
X39729800Y-109131600D01*
%TO.C,RV1*%
X36064800Y-72406400D02*
X36064800Y-77126400D01*
X37254800Y-72406400D02*
X36074800Y-72406400D01*
X40154800Y-72406400D02*
X39624800Y-72406400D01*
X42604800Y-72406400D02*
X41774800Y-72406400D01*
X45814800Y-72406400D02*
X44324800Y-72406400D01*
X45814800Y-72406400D02*
X45814800Y-77126400D01*
X36074800Y-80936400D02*
X36074800Y-83996400D01*
X45814800Y-80936400D02*
X45814800Y-83996400D01*
X45814800Y-83996400D02*
X36074800Y-83996400D01*
%TO.C,J_SIG1*%
X49762800Y-98631600D02*
X49762800Y-109131600D01*
X46492800Y-95481600D02*
X46492800Y-96281600D01*
X46492800Y-95481600D02*
X45632800Y-95481600D01*
X46062800Y-109131600D02*
X49762800Y-109131600D01*
X45982800Y-98631600D02*
X49762800Y-98631600D01*
X40762800Y-98631600D02*
X44542800Y-98631600D01*
X40762800Y-98631600D02*
X40762800Y-109131600D01*
X40762800Y-109131600D02*
X44462800Y-109131600D01*
X47062800Y-103131600D02*
G75*
G03*
X47062800Y-103131600I-1800000J0D01*
G01*
%TD*%
%LPC*%
D13*
%TO.C,RV4*%
X34224000Y-42385600D03*
X24624000Y-42385600D03*
D14*
X31924000Y-49885600D03*
D15*
X29424000Y-49885600D03*
X26924000Y-49885600D03*
%TD*%
D16*
%TO.C,J_OUT1*%
X25196800Y-96651600D03*
D17*
X25196800Y-108051600D03*
X25196800Y-99751600D03*
%TD*%
%TO.C,J_CV2*%
X35229800Y-120408400D03*
X35229800Y-128708400D03*
D16*
X35229800Y-117308400D03*
%TD*%
%TO.C,J_OUT2*%
X25196800Y-117308400D03*
D17*
X25196800Y-128708400D03*
X25196800Y-120408400D03*
%TD*%
D16*
%TO.C,J_SIG3*%
X45262800Y-117308400D03*
D17*
X45262800Y-128708400D03*
X45262800Y-120408400D03*
%TD*%
%TO.C,J_CV1*%
X35229800Y-99751600D03*
X35229800Y-108051600D03*
D16*
X35229800Y-96651600D03*
%TD*%
D13*
%TO.C,RV1*%
X36144800Y-79026400D03*
X45744800Y-79026400D03*
D14*
X38444800Y-71526400D03*
D15*
X40944800Y-71526400D03*
X43444800Y-71526400D03*
%TD*%
D16*
%TO.C,J_SIG1*%
X45262800Y-96651600D03*
D17*
X45262800Y-108051600D03*
X45262800Y-99751600D03*
%TD*%
M02*
