M48
; DRILL file {KiCad 7.0.1} date Thu Apr 20 06:23:29 2023
; FORMAT={-:-/ absolute / inch / decimal}
; #@! TF.CreationDate,2023-04-20T06:23:29-07:00
; #@! TF.GenerationSoftware,Kicad,Pcbnew,7.0.1
; #@! TF.FileFunction,Plated,1,2,PTH
FMAT,2
INCH
; #@! TA.AperFunction,Plated,PTH,ViaDrill
T1C0.0157
; #@! TA.AperFunction,Plated,PTH,ComponentDrill
T2C0.0394
; #@! TA.AperFunction,Plated,PTH,ComponentDrill
T3C0.0433
; #@! TA.AperFunction,Plated,PTH,ComponentDrill
T4C0.0480
; #@! TA.AperFunction,Plated,PTH,ComponentDrill
T5C0.0559
; #@! TA.AperFunction,Plated,PTH,ComponentDrill
T6C0.0563
%
G90
G05
T1
X1.022Y-2.832
X1.026Y-2.318
X1.182Y-3.468
X1.192Y-3.188
X1.192Y-3.754
X1.2756Y-2.9554
X1.2898Y-2.9106
X1.292Y-3.188
X1.294Y-3.462
X1.296Y-3.754
X1.2982Y-2.7459
X1.3186Y-3.1208
X1.3243Y-2.8396
X1.3734Y-2.808
X1.392Y-3.464
X1.4277Y-2.8368
X1.4659Y-1.7816
X1.6625Y-1.7359
T2
X1.06Y-1.964
X1.1584Y-1.964
X1.2569Y-1.964
X1.5136Y-2.816
X1.612Y-2.816
X1.7104Y-2.816
T4
X0.992Y-3.8052
X0.992Y-4.6184
X1.387Y-3.8052
X1.387Y-4.6184
X1.782Y-3.8052
X1.782Y-4.6184
T5
X0.992Y-3.9272
X0.992Y-4.7405
X1.387Y-3.9272
X1.387Y-4.7405
X1.782Y-3.9272
X1.782Y-4.7405
T6
X0.992Y-4.254
X0.992Y-5.0673
X1.387Y-4.254
X1.387Y-5.0673
X1.782Y-4.254
X1.782Y-5.0673
T3
G00X0.9694Y-1.6549
M15
G01X0.9694Y-1.6825
M16
G05
G00X1.3474Y-1.6549
M15
G01X1.3474Y-1.6825
M16
G05
G00X1.423Y-3.1251
M15
G01X1.423Y-3.0975
M16
G05
G00X1.801Y-3.1251
M15
G01X1.801Y-3.0975
M16
G05
T0
M30
